<svg width="40" height="58" viewBox="0 0 40 58" fill="none" xmlns="http://www.w3.org/2000/svg">
<path d="M0 2.6C0 1.16406 1.16406 0 2.6 0H37.4C38.8359 0 40 1.16406 40 2.6V51.3892C40 53.6359 37.3426 54.8249 35.6674 53.3277L21.7326 40.8735C20.7459 39.9916 19.2541 39.9916 18.2674 40.8735L4.3326 53.3277C2.65742 54.8249 0 53.6359 0 51.3892V2.6Z" fill="#FFD25E"/>
<path d="M12.3251 28V17.76L13.4451 18.88H10.0851V16.8H14.9171V28H12.3251ZM19.9668 28.128C19.2308 28.128 18.5214 28.0427 17.8388 27.872C17.1668 27.6907 16.6334 27.4667 16.2388 27.2L17.0708 25.408C17.4654 25.6533 17.9294 25.856 18.4628 26.016C19.0068 26.1653 19.5401 26.24 20.0628 26.24C20.6388 26.24 21.0441 26.1707 21.2788 26.032C21.5241 25.8933 21.6468 25.7013 21.6468 25.456C21.6468 25.2533 21.5508 25.104 21.3588 25.008C21.1774 24.9013 20.9321 24.8213 20.6228 24.768C20.3134 24.7147 19.9721 24.6613 19.5988 24.608C19.2361 24.5547 18.8681 24.4853 18.4948 24.4C18.1214 24.304 17.7801 24.1653 17.4708 23.984C17.1614 23.8027 16.9108 23.5573 16.7188 23.248C16.5374 22.9387 16.4468 22.5387 16.4468 22.048C16.4468 21.504 16.6014 21.024 16.9108 20.608C17.2308 20.192 17.6894 19.8667 18.2868 19.632C18.8841 19.3867 19.5988 19.264 20.4308 19.264C21.0174 19.264 21.6148 19.328 22.2228 19.456C22.8308 19.584 23.3374 19.7707 23.7428 20.016L22.9108 21.792C22.4948 21.5467 22.0734 21.3813 21.6468 21.296C21.2308 21.2 20.8254 21.152 20.4308 21.152C19.8761 21.152 19.4708 21.2267 19.2148 21.376C18.9588 21.5253 18.8308 21.7173 18.8308 21.952C18.8308 22.1653 18.9214 22.3253 19.1028 22.432C19.2948 22.5387 19.5454 22.624 19.8548 22.688C20.1641 22.752 20.5001 22.8107 20.8628 22.864C21.2361 22.9067 21.6094 22.976 21.9828 23.072C22.3561 23.168 22.6921 23.3067 22.9908 23.488C23.3001 23.6587 23.5508 23.8987 23.7428 24.208C23.9348 24.5067 24.0308 24.9013 24.0308 25.392C24.0308 25.9253 23.8708 26.4 23.5508 26.816C23.2308 27.2213 22.7668 27.5413 22.1588 27.776C21.5614 28.0107 20.8308 28.128 19.9668 28.128ZM28.7708 28.128C27.7574 28.128 26.9681 27.872 26.4028 27.36C25.8374 26.8373 25.5548 26.064 25.5548 25.04V17.488H28.0508V25.008C28.0508 25.3707 28.1468 25.6533 28.3388 25.856C28.5308 26.048 28.7921 26.144 29.1228 26.144C29.5174 26.144 29.8534 26.0373 30.1308 25.824L30.8028 27.584C30.5468 27.7653 30.2374 27.904 29.8748 28C29.5228 28.0853 29.1548 28.128 28.7708 28.128ZM24.2268 21.504V19.584H30.1948V21.504H24.2268Z" fill="#EA8C00"/>
</svg>
