<svg width="28" height="40" viewBox="0 0 28 40" fill="none" xmlns="http://www.w3.org/2000/svg">
<path d="M0 1.81819C0 0.814032 0.814029 0 1.81818 0H26.1818C27.186 0 28 0.814029 28 1.81818V35.9392C28 37.5099 26.1425 38.3416 24.9709 37.2955L15.2109 28.5812C14.5211 27.9653 13.4789 27.9653 12.7891 28.5812L3.02912 37.2955C1.85747 38.3416 0 37.5099 0 35.9392V1.81819Z" fill="#B2CDFF"/>
<path d="M4.97772 16.7468V15.5273L8.67003 10.5594H10.5721L6.95814 15.5273L6.07422 15.2699H12.2393V16.7468H4.97772ZM9.1959 18.3916V16.7468L9.25185 15.2699V13.8042H10.9637V18.3916H9.1959ZM15.4102 18.4811C14.7016 18.4811 14.1496 18.3021 13.7543 17.944C13.359 17.5785 13.1613 17.0378 13.1613 16.3217V11.0405H14.9067V16.2993C14.9067 16.5529 14.9739 16.7506 15.1081 16.8923C15.2424 17.0266 15.4252 17.0937 15.6564 17.0937C15.9324 17.0937 16.1674 17.0191 16.3613 16.8699L16.8312 18.1007C16.6522 18.2275 16.4359 18.3245 16.1823 18.3916C15.9361 18.4513 15.6788 18.4811 15.4102 18.4811ZM12.2326 13.8489V12.5063H16.4061V13.8489H12.2326ZM21.246 12.2825C21.7234 12.2825 22.1486 12.3795 22.5215 12.5734C22.9019 12.7599 23.2003 13.0508 23.4166 13.4461C23.633 13.834 23.7411 14.3338 23.7411 14.9454V18.3916H21.9957V15.214C21.9957 14.7291 21.8875 14.3711 21.6712 14.1398C21.4623 13.9086 21.164 13.793 20.7761 13.793C20.5001 13.793 20.2502 13.8527 20.0264 13.972C19.8101 14.0839 19.6385 14.2592 19.5117 14.4979C19.3924 14.7366 19.3327 15.0424 19.3327 15.4154V18.3916H17.5873V10.0895H19.3327V14.0391L18.9411 13.5357C19.1574 13.1329 19.467 12.8233 19.8698 12.607C20.2726 12.3907 20.7313 12.2825 21.246 12.2825Z" fill="#337AFF"/>
</svg>
