<svg width="40" height="58" viewBox="0 0 40 58" fill="none" xmlns="http://www.w3.org/2000/svg">
<path d="M0 2.6C0 1.16406 1.16406 0 2.6 0H37.4C38.8359 0 40 1.16406 40 2.6V51.3892C40 53.6359 37.3426 54.8249 35.6674 53.3277L21.7326 40.8735C20.7459 39.9916 19.2541 39.9916 18.2674 40.8735L4.3326 53.3277C2.65742 54.8249 0 53.6359 0 51.3892V2.6Z" fill="#B2CDFF"/>
<path d="M7.30303 25.648V23.904L12.583 16.8H15.303L10.135 23.904L8.87103 23.536H17.687V25.648H7.30303ZM13.335 28V25.648L13.415 23.536V21.44H15.863V28H13.335ZM22.2215 28.128C21.2082 28.128 20.4189 27.872 19.8535 27.36C19.2882 26.8373 19.0055 26.064 19.0055 25.04V17.488H21.5015V25.008C21.5015 25.3707 21.5975 25.6533 21.7895 25.856C21.9815 26.048 22.2429 26.144 22.5735 26.144C22.9682 26.144 23.3042 26.0373 23.5815 25.824L24.2535 27.584C23.9975 27.7653 23.6882 27.904 23.3255 28C22.9735 28.0853 22.6055 28.128 22.2215 28.128ZM17.6775 21.504V19.584H23.6455V21.504H17.6775ZM30.5667 19.264C31.2493 19.264 31.8573 19.4027 32.3907 19.68C32.9347 19.9467 33.3613 20.3627 33.6707 20.928C33.98 21.4827 34.1347 22.1973 34.1347 23.072V28H31.6387V23.456C31.6387 22.7627 31.484 22.2507 31.1747 21.92C30.876 21.5893 30.4493 21.424 29.8947 21.424C29.5 21.424 29.1427 21.5093 28.8227 21.68C28.5133 21.84 28.268 22.0907 28.0867 22.432C27.916 22.7733 27.8307 23.2107 27.8307 23.744V28H25.3347V16.128H27.8307V21.776L27.2707 21.056C27.58 20.48 28.0227 20.0373 28.5987 19.728C29.1747 19.4187 29.8307 19.264 30.5667 19.264Z" fill="#337AFF"/>
</svg>
