<svg width="40" height="58" viewBox="0 0 40 58" fill="none" xmlns="http://www.w3.org/2000/svg">
<path d="M0 2.6C0 1.16406 1.16406 0 2.6 0H37.4C38.8359 0 40 1.16406 40 2.6V51.3892C40 53.6359 37.3426 54.8249 35.6674 53.3277L21.7326 40.8735C20.7459 39.9916 19.2541 39.9916 18.2674 40.8735L4.3326 53.3277C2.65742 54.8249 0 53.6359 0 51.3892V2.6Z" fill="#B2CDFF"/>
<path d="M12.3637 28.192C11.3397 28.192 10.449 27.9787 9.69171 27.552C8.94504 27.1253 8.36904 26.5013 7.96371 25.68C7.55838 24.8587 7.35571 23.8453 7.35571 22.64C7.35571 21.3493 7.59571 20.256 8.07571 19.36C8.56638 18.464 9.23838 17.7813 10.0917 17.312C10.9557 16.8427 11.9477 16.608 13.0677 16.608C13.665 16.608 14.2357 16.672 14.7797 16.8C15.3237 16.928 15.793 17.12 16.1877 17.376L15.2277 19.28C14.9184 19.0667 14.5877 18.9227 14.2357 18.848C13.8837 18.7627 13.5157 18.72 13.1317 18.72C12.161 18.72 11.393 19.0133 10.8277 19.6C10.2624 20.1867 9.97971 21.056 9.97971 22.208C9.97971 22.4 9.97971 22.6133 9.97971 22.848C9.99038 23.0827 10.0224 23.3173 10.0757 23.552L9.35571 22.88C9.55838 22.464 9.81971 22.1173 10.1397 21.84C10.4597 21.552 10.8384 21.3387 11.2757 21.2C11.7237 21.0507 12.2144 20.976 12.7477 20.976C13.473 20.976 14.1237 21.12 14.6997 21.408C15.2757 21.696 15.7344 22.1013 16.0757 22.624C16.4277 23.1467 16.6037 23.76 16.6037 24.464C16.6037 25.2213 16.4117 25.8827 16.0277 26.448C15.6544 27.0027 15.1477 27.4347 14.5077 27.744C13.8784 28.0427 13.1637 28.192 12.3637 28.192ZM12.2197 26.256C12.5824 26.256 12.9024 26.192 13.1797 26.064C13.4677 25.9253 13.6917 25.728 13.8517 25.472C14.0117 25.216 14.0917 24.9227 14.0917 24.592C14.0917 24.08 13.9157 23.6747 13.5637 23.376C13.2224 23.0667 12.7637 22.912 12.1877 22.912C11.8037 22.912 11.4677 22.9867 11.1797 23.136C10.8917 23.2747 10.6624 23.472 10.4917 23.728C10.3317 23.9733 10.2517 24.2613 10.2517 24.592C10.2517 24.912 10.3317 25.2 10.4917 25.456C10.6517 25.7013 10.8757 25.8987 11.1637 26.048C11.4517 26.1867 11.8037 26.256 12.2197 26.256ZM21.2712 28.128C20.2579 28.128 19.4685 27.872 18.9032 27.36C18.3379 26.8373 18.0552 26.064 18.0552 25.04V17.488H20.5512V25.008C20.5512 25.3707 20.6472 25.6533 20.8392 25.856C21.0312 26.048 21.2925 26.144 21.6232 26.144C22.0179 26.144 22.3539 26.0373 22.6312 25.824L23.3032 27.584C23.0472 27.7653 22.7379 27.904 22.3752 28C22.0232 28.0853 21.6552 28.128 21.2712 28.128ZM16.7272 21.504V19.584H22.6952V21.504H16.7272ZM29.6163 19.264C30.299 19.264 30.907 19.4027 31.4403 19.68C31.9843 19.9467 32.411 20.3627 32.7203 20.928C33.0297 21.4827 33.1843 22.1973 33.1843 23.072V28H30.6883V23.456C30.6883 22.7627 30.5337 22.2507 30.2243 21.92C29.9257 21.5893 29.499 21.424 28.9443 21.424C28.5497 21.424 28.1923 21.5093 27.8723 21.68C27.563 21.84 27.3177 22.0907 27.1363 22.432C26.9657 22.7733 26.8803 23.2107 26.8803 23.744V28H24.3843V16.128H26.8803V21.776L26.3203 21.056C26.6297 20.48 27.0723 20.0373 27.6483 19.728C28.2243 19.4187 28.8803 19.264 29.6163 19.264Z" fill="#337AFF"/>
</svg>
