<svg width="28" height="40" viewBox="0 0 28 40" fill="none" xmlns="http://www.w3.org/2000/svg">
<path d="M0 1.81819C0 0.814032 0.814029 0 1.81818 0H26.1818C27.186 0 28 0.814029 28 1.81818V35.9392C28 37.5099 26.1425 38.3416 24.9709 37.2955L15.2109 28.5812C14.5211 27.9653 13.4789 27.9653 12.7891 28.5812L3.02912 37.2955C1.85747 38.3416 0 37.5099 0 35.9392V1.81819Z" fill="#B2CDFF"/>
<path d="M6.75198 18.3916L9.90722 11.2531L10.3772 12.0364H6.15897L6.96456 11.186V13.3119H5.35337V10.5594H11.6303V11.7343L8.72121 18.3916H6.75198ZM14.9786 18.4811C14.27 18.4811 13.718 18.3021 13.3227 17.944C12.9274 17.5785 12.7297 17.0378 12.7297 16.3217V11.0405H14.4751V16.2993C14.4751 16.5529 14.5423 16.7506 14.6765 16.8923C14.8108 17.0266 14.9936 17.0937 15.2248 17.0937C15.5008 17.0937 15.7358 17.0191 15.9297 16.8699L16.3996 18.1007C16.2206 18.2275 16.0043 18.3245 15.7507 18.3916C15.5045 18.4513 15.2472 18.4811 14.9786 18.4811ZM11.801 13.8489V12.5063H15.9744V13.8489H11.801ZM20.8144 12.2825C21.2918 12.2825 21.717 12.3795 22.0899 12.5734C22.4703 12.7599 22.7687 13.0508 22.985 13.4461C23.2014 13.834 23.3095 14.3338 23.3095 14.9454V18.3916H21.5641V15.214C21.5641 14.7291 21.4559 14.3711 21.2396 14.1398C21.0307 13.9086 20.7324 13.793 20.3445 13.793C20.0685 13.793 19.8186 13.8527 19.5948 13.972C19.3785 14.0839 19.2069 14.2592 19.0801 14.4979C18.9608 14.7366 18.9011 15.0424 18.9011 15.4154V18.3916H17.1557V10.0895H18.9011V14.0391L18.5095 13.5357C18.7258 13.1329 19.0354 12.8233 19.4382 12.607C19.841 12.3907 20.2997 12.2825 20.8144 12.2825Z" fill="#337AFF"/>
</svg>
