<svg width="21" height="20" viewBox="0 0 21 20" fill="none" xmlns="http://www.w3.org/2000/svg">
<path d="M15.1558 10.3254C15.7684 11.5666 16.3645 12.9641 15.8031 14.2292C15.0033 16.0316 13.1388 17.0612 10.9664 17.0612C8.06498 17.0612 5.71289 14.8684 5.71289 12.1633C5.71289 9.71663 8.52 4.55023 10.8905 3.1627C11.3475 2.89518 11.9154 2.78905 12.4063 2.98767C13.9347 3.60603 13.2067 6.37664 15.1558 10.3254Z" fill="#FF570F"/>
<path d="M8.91219 12.0482C8.98541 12.0582 9.05181 12.1083 9.07498 12.1784C9.65363 13.9306 8.92405 15.1698 8.08091 15.472C7.21949 15.7807 6.05577 14.7326 5.48167 13.1308C4.91711 11.5558 5.02765 8.03514 5.66297 7.08844C5.68394 7.05719 5.71617 7.03233 5.75365 7.02895C6.44663 6.96639 4.50146 11.4458 8.91219 12.0482Z" fill="#FF570F"/>
<path d="M9.32006 14.9311C9.36007 14.9243 9.40323 14.9296 9.43968 14.9475C10.58 15.5058 10.9625 16.1762 10.8091 16.4986C10.6531 16.8263 9.91227 17.2104 8.86577 16.7123C7.84697 16.2275 5.56829 14.7581 5.45642 13.7843C5.45066 13.7342 5.46966 13.6783 5.51757 13.6624C5.89337 13.5378 6.38475 15.4263 9.32006 14.9311Z" fill="#FF570F"/>
<path d="M13.071 14.7913C13.0311 14.7901 12.9899 14.8009 12.9566 14.8229C11.8956 15.5217 11.5956 16.2269 11.7844 16.5202C11.9761 16.8181 12.7513 17.0915 13.7259 16.4643C14.6736 15.8545 16.7475 14.1173 16.75 13.1531C16.7501 13.1015 16.7235 13.0467 16.6725 13.0388C16.289 12.9791 16.0163 14.875 13.071 14.7913Z" fill="#FF570F"/>
<path d="M6.49243 5.37364C6.15421 5.82709 6.42818 6.92357 5.89757 6.72742C5.59244 6.61463 5.73145 6.08449 5.89278 5.802C6.04731 5.53143 6.24306 5.31462 6.43481 5.15552C6.75498 4.88988 6.88159 4.9638 6.59003 5.26056C6.55567 5.29553 6.52263 5.33316 6.49243 5.37364Z" fill="#FF570F"/>
<path d="M15.4991 9.9315C14.7763 11.7369 11.5035 14.0219 13.199 14.9743C13.3102 15.0368 13.4242 15.089 13.5386 15.13C14.5136 15.4795 15.6789 14.717 16.1413 13.427C16.4519 12.7651 16.6359 11.7984 16.6784 10.8627C16.7622 9.01824 16.1853 8.21745 15.4991 9.9315Z" fill="#FF570F"/>
<path d="M13.9443 11.4709C14.4496 12.6683 15.0179 14.0036 14.4148 15.1547C13.7768 16.3725 12.5155 17.0608 11.0638 17.0608C8.96826 17.0608 7.26953 15.3486 7.26953 13.2364C7.26953 11.1242 9.44254 5.96997 11.538 5.96997C13.3327 5.96997 12.5403 8.14397 13.9443 11.4709Z" fill="#FFA113"/>
<path d="M12.4987 12.7933C12.8686 14.0265 13.5338 15.5021 12.5576 16.3416C12.1615 16.6822 11.6379 16.8668 11.0638 16.8668C9.82799 16.8668 8.82617 15.8455 8.82617 14.5856C8.82617 13.3257 10.1077 10.2512 11.3435 10.2512C12.264 10.2512 12.0305 11.2321 12.4987 12.7933Z" fill="#FFE166"/>
</svg>
