<svg width="217" height="47" viewBox="0 0 217 47" fill="none" xmlns="http://www.w3.org/2000/svg">
<path d="M191.536 19.048H213.104V27.112H191.536V19.048ZM192.304 37.48H216.688V45.8H182V1H215.856V9.32H192.304V37.48Z" fill="#B2CDFF"/>
<path d="M155.256 46.336C151.8 46.336 148.579 45.7813 145.592 44.672C142.648 43.52 140.088 41.8987 137.912 39.808C135.736 37.7173 134.029 35.264 132.792 32.448C131.597 29.632 131 26.5387 131 23.168C131 19.7973 131.597 16.704 132.792 13.888C134.029 11.072 135.736 8.61866 137.912 6.528C140.131 4.43733 142.712 2.83733 145.656 1.728C148.6 0.575999 151.821 0 155.32 0C159.203 0 162.701 0.682667 165.816 2.048C168.973 3.37067 171.619 5.33333 173.752 7.936L167.096 14.08C165.56 12.3307 163.853 11.0293 161.976 10.176C160.099 9.28 158.051 8.832 155.832 8.832C153.741 8.832 151.821 9.17333 150.072 9.856C148.323 10.5387 146.808 11.52 145.528 12.8C144.248 14.08 143.245 15.5947 142.52 17.344C141.837 19.0933 141.496 21.0347 141.496 23.168C141.496 25.3013 141.837 27.2427 142.52 28.992C143.245 30.7413 144.248 32.256 145.528 33.536C146.808 34.816 148.323 35.7973 150.072 36.48C151.821 37.1627 153.741 37.504 155.832 37.504C158.051 37.504 160.099 37.0773 161.976 36.224C163.853 35.328 165.56 33.984 167.096 32.192L173.752 38.336C171.619 40.9387 168.973 42.9227 165.816 44.288C162.701 45.6533 159.181 46.336 155.256 46.336Z" fill="#337AFF"/>
<path d="M79 45.8L98.968 1H109.208L129.24 45.8H118.36L101.976 6.248H106.072L89.624 45.8H79ZM88.984 36.2L91.736 28.328H114.776L117.592 36.2H88.984Z" fill="#337AFF"/>
<path d="M54.6 21.16H76.104V29.48H54.6V21.16ZM55.368 45.8H45V1H78.856V9.32H55.368V45.8Z" fill="#337AFF"/>
<path d="M18.24 46.336C14.656 46.336 11.2213 45.8667 7.936 44.928C4.65067 43.9467 2.00533 42.688 0 41.152L3.52 33.344C5.44 34.7093 7.70133 35.84 10.304 36.736C12.9493 37.5893 15.616 38.016 18.304 38.016C20.352 38.016 21.9947 37.824 23.232 37.44C24.512 37.0133 25.4507 36.4373 26.048 35.712C26.6453 34.9867 26.944 34.1547 26.944 33.216C26.944 32.0213 26.4747 31.0827 25.536 30.4C24.5973 29.6747 23.36 29.0987 21.824 28.672C20.288 28.2027 18.5813 27.776 16.704 27.392C14.8693 26.9653 13.0133 26.4533 11.136 25.856C9.30134 25.2587 7.616 24.4907 6.08 23.552C4.544 22.6133 3.28533 21.376 2.304 19.84C1.36533 18.304 0.896 16.3413 0.896 13.952C0.896 11.392 1.57867 9.06667 2.944 6.976C4.352 4.84266 6.44267 3.15733 9.216 1.92C12.032 0.639999 15.552 0 19.776 0C22.592 0 25.3653 0.341333 28.096 1.024C30.8267 1.664 33.2373 2.64533 35.328 3.968L32.128 11.84C30.0373 10.6453 27.9467 9.77067 25.856 9.216C23.7653 8.61867 21.7173 8.32 19.712 8.32C17.7067 8.32 16.064 8.55467 14.784 9.024C13.504 9.49333 12.5867 10.112 12.032 10.88C11.4773 11.6053 11.2 12.4587 11.2 13.44C11.2 14.592 11.6693 15.5307 12.608 16.256C13.5467 16.9387 14.784 17.4933 16.32 17.92C17.856 18.3467 19.5413 18.7733 21.376 19.2C23.2533 19.6267 25.1093 20.1173 26.944 20.672C28.8213 21.2267 30.528 21.9733 32.064 22.912C33.6 23.8507 34.8373 25.088 35.776 26.624C36.7573 28.16 37.248 30.1013 37.248 32.448C37.248 34.9653 36.544 37.2693 35.136 39.36C33.728 41.4507 31.616 43.136 28.8 44.416C26.0267 45.696 22.5067 46.336 18.24 46.336Z" fill="#337AFF"/>
</svg>
