<svg width="302" height="82" viewBox="0 0 302 82" fill="none" xmlns="http://www.w3.org/2000/svg">
<path d="M60.3219 66.6484C60.3219 67.388 60.5589 68.1068 61.0328 68.8047C61.512 69.5026 62.1448 70.099 62.9313 70.5938C63.7177 71.0833 64.5563 71.4089 65.4469 71.5703L64.7594 72.8047C64.0146 72.6432 63.301 72.3776 62.6188 72.0078C61.9365 71.638 61.3271 71.1875 60.7906 70.6562C60.2594 70.1198 59.8453 69.5286 59.5484 68.8828C59.2464 69.5234 58.8297 70.112 58.2984 70.6484C57.7724 71.1797 57.1682 71.6302 56.4859 72C55.8036 72.3698 55.0875 72.638 54.3375 72.8047L53.6813 71.5703C54.5615 71.4036 55.3922 71.0755 56.1734 70.5859C56.9547 70.0911 57.5797 69.4974 58.0484 68.8047C58.5224 68.1068 58.7594 67.388 58.7594 66.6484V65.5859H60.3219V66.6484ZM66.025 76.8203H53.2125V75.5859H66.025V76.8203ZM79.7988 71.3828H77.6269V78.6484H76.1425V64.6641H77.6269V70.1641H79.7988V71.3828ZM68.7206 73.8984C70.856 73.8984 72.929 73.6901 74.9394 73.2734L75.1113 74.5234C73.9967 74.7474 72.8899 74.9062 71.7909 75C70.6972 75.0885 69.5696 75.1328 68.4081 75.1328H67.2519V66.0234H68.7206V73.8984ZM91.8225 78.6953H90.3381V64.6641H91.8225V78.6953ZM84.3381 65.7109C85.0308 65.7109 85.6506 65.9141 86.1975 66.3203C86.7444 66.7214 87.1715 67.2943 87.4788 68.0391C87.7913 68.7786 87.9475 69.638 87.9475 70.6172C87.9475 71.6016 87.7913 72.4661 87.4788 73.2109C87.1715 73.9557 86.7444 74.5312 86.1975 74.9375C85.6506 75.3385 85.0308 75.5391 84.3381 75.5391C83.635 75.5391 83.01 75.3385 82.4631 74.9375C81.9163 74.5312 81.4866 73.9583 81.1741 73.2188C80.8668 72.474 80.7131 71.6068 80.7131 70.6172C80.7131 69.6328 80.8668 68.7708 81.1741 68.0312C81.4866 67.2865 81.9163 66.7135 82.4631 66.3125C83.01 65.9115 83.635 65.7109 84.3381 65.7109ZM84.3381 67.0391C83.9058 67.0391 83.523 67.1849 83.1897 67.4766C82.8616 67.7682 82.6064 68.1849 82.4241 68.7266C82.2418 69.263 82.1506 69.8932 82.1506 70.6172C82.1506 71.3464 82.2418 71.9818 82.4241 72.5234C82.6064 73.0651 82.8616 73.4818 83.1897 73.7734C83.523 74.0651 83.9058 74.2109 84.3381 74.2109C84.7652 74.2109 85.1428 74.0651 85.4709 73.7734C85.7991 73.4818 86.0543 73.0651 86.2366 72.5234C86.4189 71.9818 86.51 71.3464 86.51 70.6172C86.51 69.8932 86.4189 69.263 86.2366 68.7266C86.0543 68.1849 85.7991 67.7682 85.4709 67.4766C85.1428 67.1849 84.7652 67.0391 84.3381 67.0391ZM101.862 67.2734H100.331V73.8594C100.94 73.8177 101.586 73.7578 102.268 73.6797L102.362 74.7734C101.081 74.9766 99.7186 75.1146 98.2759 75.1875C96.8384 75.2552 95.3463 75.2891 93.7994 75.2891L93.6431 74.0547L95.4244 74.0312V67.2734H94.065V66.0547H101.862V67.2734ZM105.409 78.6641H103.94V71.1016H101.409V69.8828H103.94V64.6641H105.409V78.6641ZM96.8775 74.0078C97.565 73.9922 98.2421 73.9688 98.9088 73.9375V67.2734H96.8775V74.0078ZM119.183 73.1953H117.776V69.5078H116.229V73.1172H114.839V64.8672H116.229V68.2891H117.776V64.6797H119.183V73.1953ZM119.183 78.6641H117.714V75.0547H109.495V73.8359H119.183V78.6641ZM113.964 67.0859H112.854V71.0859C113.224 71.0599 113.677 71.013 114.214 70.9453L114.276 72.0547C112.62 72.3464 110.302 72.4922 107.323 72.4922L107.167 71.2734C107.406 71.2734 107.854 71.2682 108.511 71.2578V67.0859H107.417V65.8516H113.964V67.0859ZM109.886 71.2344C110.61 71.2135 111.146 71.1953 111.495 71.1797V67.0859H109.886V71.2344ZM132.113 73.0234H127.878V75.7578H133.566V76.9766H120.753V75.7578H126.394V73.0234H122.363V65.7422H131.972V66.9609H123.863V68.7578H131.675V69.9297H123.863V71.8359H132.113V73.0234ZM145.886 78.6953H144.402V64.6641H145.886V78.6953ZM141.605 71.0391H136.574V74.1016C137.803 74.0964 138.931 74.0573 139.957 73.9844C140.988 73.9115 142.058 73.7839 143.168 73.6016L143.308 74.8203C142.141 75.0182 141.009 75.1536 139.91 75.2266C138.816 75.2995 137.595 75.3359 136.246 75.3359H135.058V69.8516H140.089V67.1328H135.043V65.9297H141.605V71.0391ZM158.527 65.8984C158.522 66.5078 158.744 67.0964 159.192 67.6641C159.645 68.2266 160.257 68.7057 161.027 69.1016C161.798 69.4922 162.637 69.7474 163.543 69.8672L162.965 71.0859C162.205 70.9661 161.483 70.7578 160.801 70.4609C160.119 70.1641 159.514 69.7969 158.988 69.3594C158.462 68.9219 158.051 68.4323 157.754 67.8906C157.452 68.4323 157.038 68.9219 156.512 69.3594C155.991 69.7969 155.392 70.1641 154.715 70.4609C154.038 70.7526 153.319 70.9609 152.559 71.0859L151.965 69.8672C152.871 69.7474 153.707 69.4922 154.473 69.1016C155.238 68.7109 155.845 68.2344 156.293 67.6719C156.746 67.1042 156.975 66.513 156.981 65.8984V65.1328H158.527V65.8984ZM164.121 73.6797H158.434V78.6641H156.981V73.6797H151.356V72.4609H164.121V73.6797ZM177.676 76.9922H164.864V75.7422H168.364V73.2734H166.426V68.8203H174.645V66.8672H166.395V65.6484H176.114V70.0234H167.895V72.0547H176.442V73.2734H174.317V75.7422H177.676V76.9922ZM172.864 75.7422V73.2734H169.801V75.7422H172.864ZM182.653 67.3516C182.653 67.8672 182.76 68.3724 182.973 68.8672C183.192 69.3568 183.513 69.7995 183.934 70.1953C184.356 70.5859 184.861 70.8932 185.45 71.1172L184.669 72.2578C184.033 72.013 183.484 71.6667 183.02 71.2188C182.562 70.7708 182.203 70.25 181.942 69.6562C181.677 70.3281 181.304 70.9271 180.825 71.4531C180.346 71.9792 179.778 72.3828 179.122 72.6641L178.309 71.5078C178.919 71.2422 179.442 70.8854 179.88 70.4375C180.317 69.9844 180.648 69.4896 180.872 68.9531C181.101 68.4167 181.216 67.8828 181.216 67.3516V65.5391H182.653V67.3516ZM190.309 73.2891H188.903V69.5391H187.263V72.8516H185.888V64.9297H187.263V68.3203H188.903V64.6797H190.309V73.2891ZM185.622 73.5547C186.591 73.5547 187.432 73.6562 188.145 73.8594C188.859 74.0625 189.408 74.3568 189.794 74.7422C190.184 75.1224 190.382 75.5755 190.388 76.1016C190.382 76.6276 190.184 77.0807 189.794 77.4609C189.408 77.8464 188.859 78.138 188.145 78.3359C187.432 78.5391 186.591 78.638 185.622 78.6328C184.653 78.638 183.812 78.5391 183.098 78.3359C182.385 78.138 181.835 77.8464 181.45 77.4609C181.07 77.0807 180.882 76.6276 180.888 76.1016C180.882 75.5755 181.07 75.1224 181.45 74.7422C181.835 74.3568 182.385 74.0625 183.098 73.8594C183.812 73.6562 184.653 73.5547 185.622 73.5547ZM185.622 74.6953C184.945 74.6953 184.359 74.7526 183.864 74.8672C183.374 74.9766 182.999 75.138 182.739 75.3516C182.479 75.5599 182.351 75.8099 182.356 76.1016C182.351 76.3932 182.479 76.6458 182.739 76.8594C182.999 77.0677 183.377 77.2266 183.872 77.3359C184.367 77.4453 184.95 77.4974 185.622 77.4922C186.294 77.4974 186.874 77.4453 187.364 77.3359C187.859 77.2266 188.236 77.0677 188.497 76.8594C188.763 76.651 188.898 76.3984 188.903 76.1016C188.898 75.6589 188.604 75.3151 188.02 75.0703C187.442 74.8203 186.643 74.6953 185.622 74.6953ZM202.607 66.0859C202.602 67.5651 202.409 68.9219 202.029 70.1562C201.649 71.3854 200.992 72.5339 200.06 73.6016C199.133 74.6641 197.872 75.6016 196.279 76.4141L195.451 75.2891C196.654 74.6693 197.649 73.9844 198.435 73.2344C199.221 72.4844 199.831 71.6562 200.263 70.75L195.732 71.1797L195.497 69.8984L200.724 69.5703C200.938 68.862 201.073 68.1016 201.13 67.2891H196.216V66.0859H202.607ZM207.122 78.6641H205.654V71.4297H202.576V70.2109H205.654V64.6641H207.122V78.6641ZM221.771 73.8828H218.631V78.7422H217.146V73.8828H213.631V78.7422H212.146V73.8828H208.959V72.6641H221.771V73.8828ZM220.162 70.9141H210.568V65.3984H220.162V70.9141ZM212.021 69.7266H218.677V66.5859H212.021V69.7266ZM234.108 78.6641H232.623V64.6641H234.108V78.6641ZM224.811 73.8203C227.102 73.8047 229.248 73.5911 231.248 73.1797L231.451 74.4297C230.264 74.6693 229.102 74.8411 227.967 74.9453C226.831 75.0495 225.68 75.1016 224.514 75.1016H223.342V66.0234H224.811V73.8203ZM243.772 67.1172H238.319V69.8203H243.241V71.0078H238.319V74.1484C239.59 74.1432 240.704 74.1094 241.663 74.0469C242.621 73.9844 243.605 73.8724 244.616 73.7109L244.772 74.9141C243.72 75.0859 242.681 75.2031 241.655 75.2656C240.634 75.3229 239.413 75.3516 237.991 75.3516H236.85V65.8984H243.772V67.1172ZM247.631 78.6641H246.131V64.6641H247.631V78.6641Z" fill="#333333"/>
<path d="M234.536 19.048H256.104V27.112H234.536V19.048ZM235.304 37.48H259.688V45.8H225V1H258.856V9.32H235.304V37.48Z" fill="#B2CDFF"/>
<path d="M198.256 46.336C194.8 46.336 191.579 45.7813 188.592 44.672C185.648 43.52 183.088 41.8987 180.912 39.808C178.736 37.7173 177.029 35.264 175.792 32.448C174.597 29.632 174 26.5387 174 23.168C174 19.7973 174.597 16.704 175.792 13.888C177.029 11.072 178.736 8.61866 180.912 6.528C183.131 4.43733 185.712 2.83733 188.656 1.728C191.6 0.575999 194.821 0 198.32 0C202.203 0 205.701 0.682667 208.816 2.048C211.973 3.37067 214.619 5.33333 216.752 7.936L210.096 14.08C208.56 12.3307 206.853 11.0293 204.976 10.176C203.099 9.28 201.051 8.832 198.832 8.832C196.741 8.832 194.821 9.17333 193.072 9.856C191.323 10.5387 189.808 11.52 188.528 12.8C187.248 14.08 186.245 15.5947 185.52 17.344C184.837 19.0933 184.496 21.0347 184.496 23.168C184.496 25.3013 184.837 27.2427 185.52 28.992C186.245 30.7413 187.248 32.256 188.528 33.536C189.808 34.816 191.323 35.7973 193.072 36.48C194.821 37.1627 196.741 37.504 198.832 37.504C201.051 37.504 203.099 37.0773 204.976 36.224C206.853 35.328 208.56 33.984 210.096 32.192L216.752 38.336C214.619 40.9387 211.973 42.9227 208.816 44.288C205.701 45.6533 202.181 46.336 198.256 46.336Z" fill="#337AFF"/>
<path d="M122 45.8L141.968 1H152.208L172.24 45.8H161.36L144.976 6.248H149.072L132.624 45.8H122ZM131.984 36.2L134.736 28.328H157.776L160.592 36.2H131.984Z" fill="#337AFF"/>
<path d="M97.6 21.16H119.104V29.48H97.6V21.16ZM98.368 45.8H88V1H121.856V9.32H98.368V45.8Z" fill="#337AFF"/>
<path d="M61.24 46.336C57.656 46.336 54.2213 45.8667 50.936 44.928C47.6507 43.9467 45.0053 42.688 43 41.152L46.52 33.344C48.44 34.7093 50.7013 35.84 53.304 36.736C55.9493 37.5893 58.616 38.016 61.304 38.016C63.352 38.016 64.9947 37.824 66.232 37.44C67.512 37.0133 68.4507 36.4373 69.048 35.712C69.6453 34.9867 69.944 34.1547 69.944 33.216C69.944 32.0213 69.4747 31.0827 68.536 30.4C67.5973 29.6747 66.36 29.0987 64.824 28.672C63.288 28.2027 61.5813 27.776 59.704 27.392C57.8693 26.9653 56.0133 26.4533 54.136 25.856C52.3013 25.2587 50.616 24.4907 49.08 23.552C47.544 22.6133 46.2853 21.376 45.304 19.84C44.3653 18.304 43.896 16.3413 43.896 13.952C43.896 11.392 44.5787 9.06667 45.944 6.976C47.352 4.84266 49.4427 3.15733 52.216 1.92C55.032 0.639999 58.552 0 62.776 0C65.592 0 68.3653 0.341333 71.096 1.024C73.8267 1.664 76.2373 2.64533 78.328 3.968L75.128 11.84C73.0373 10.6453 70.9467 9.77067 68.856 9.216C66.7653 8.61867 64.7173 8.32 62.712 8.32C60.7067 8.32 59.064 8.55467 57.784 9.024C56.504 9.49333 55.5867 10.112 55.032 10.88C54.4773 11.6053 54.2 12.4587 54.2 13.44C54.2 14.592 54.6693 15.5307 55.608 16.256C56.5467 16.9387 57.784 17.4933 59.32 17.92C60.856 18.3467 62.5413 18.7733 64.376 19.2C66.2533 19.6267 68.1093 20.1173 69.944 20.672C71.8213 21.2267 73.528 21.9733 75.064 22.912C76.6 23.8507 77.8373 25.088 78.776 26.624C79.7573 28.16 80.248 30.1013 80.248 32.448C80.248 34.9653 79.544 37.2693 78.136 39.36C76.728 41.4507 74.616 43.136 71.8 44.416C69.0267 45.696 65.5067 46.336 61.24 46.336Z" fill="#337AFF"/>
</svg>
