<svg width="20" height="20" viewBox="0 0 20 20" fill="none" xmlns="http://www.w3.org/2000/svg">
<path d="M12.7576 10.455L12.3531 10.0538C12.2772 9.97859 12.2477 9.86575 12.2688 9.76128C12.4373 8.94638 12.214 8.27356 11.5945 7.73865C10.9751 7.20374 10.3345 7.01568 9.6392 7.15359C9.52963 7.17448 9.42007 7.14941 9.34421 7.07001L8.94388 6.673C9.08294 6.60196 9.24308 6.54763 9.41585 6.50584C9.59284 6.46405 9.78669 6.44316 9.9974 6.44316C10.8276 6.44316 11.5313 6.73151 12.1129 7.31239C12.6944 7.88909 12.9852 8.59116 12.9894 9.41024C12.9894 9.61919 12.9683 9.81979 12.9262 10.0037C12.884 10.1917 12.8293 10.3422 12.7576 10.455ZM15.6485 12.8913C15.5263 12.9916 15.3451 12.9875 15.2271 12.8788L14.97 12.6448C15.5726 12.1851 16.1078 11.6836 16.5714 11.1403C17.0349 10.5971 17.4015 10.0204 17.667 9.40607C16.9633 7.93088 15.9308 6.76494 14.5697 5.90825C13.2085 5.05155 11.7167 4.62112 10.1027 4.6253C9.6097 4.6253 9.11665 4.66709 8.61939 4.75067C8.2022 4.82171 7.83136 4.90529 7.50688 5.00558C7.3931 5.03902 7.27089 5.01394 7.18661 4.92618L6.81998 4.56261C7.27089 4.38291 7.78501 4.24083 8.36655 4.13635C8.94809 4.03188 9.51699 3.97755 10.0648 3.97755C11.8347 3.97755 13.4824 4.47067 15.0079 5.44856C16.4913 6.40137 17.5912 7.67596 18.3076 9.26816C18.3455 9.35592 18.3455 9.45621 18.3076 9.54397C17.9957 10.2043 17.6122 10.8144 17.1613 11.3827C16.7104 11.9511 16.23 12.4233 15.6611 12.8913H15.6485ZM16.4955 17.1497L13.6089 14.308C13.5119 14.2161 13.3729 14.191 13.2507 14.2453C12.9135 14.3874 12.4921 14.517 11.9864 14.634C11.3754 14.7719 10.7096 14.8429 9.99318 14.8429C8.18113 14.8429 6.52078 14.354 5.01215 13.3678C3.54986 12.4191 2.44156 11.1445 1.69567 9.55233C1.65353 9.46457 1.65353 9.36427 1.69567 9.27652C2.01172 8.58698 2.43313 7.93088 2.95989 7.30403C3.4403 6.73151 3.95863 6.23003 4.52331 5.79123C4.67502 5.67004 4.69188 5.45274 4.55702 5.31483L2.51741 3.30473C2.39099 3.17936 2.39099 2.97877 2.51741 2.8534L2.52584 2.84504C2.64805 2.72385 2.85032 2.72385 2.97675 2.84504L16.9506 16.7026C17.0686 16.8196 17.077 17.0118 16.9675 17.1372C16.8453 17.2751 16.6304 17.2835 16.4997 17.1539L16.4955 17.1497ZM5.25656 6.02526C4.72137 6.37211 4.16933 6.86524 3.592 7.49626C3.05681 8.0855 2.65648 8.67474 2.38678 9.26816C2.34885 9.35592 2.34885 9.46039 2.3952 9.54815C3.09474 10.9607 4.11455 12.0806 5.44619 12.9081C6.8242 13.7648 8.36233 14.1952 10.0606 14.1952C10.6506 14.1952 11.2321 14.145 11.8094 14.0364C12.3868 13.9319 12.7871 13.8233 13.0105 13.7104L11.367 12.0806C11.211 12.1517 11.0003 12.2185 10.7349 12.2812C10.4694 12.3439 10.2207 12.3773 9.9974 12.3773C9.16722 12.3773 8.46347 12.0932 7.88193 11.5206C7.30039 10.9481 7.0054 10.246 7.0054 9.41024C7.0054 9.20129 7.03911 8.96309 7.10233 8.69981C7.16554 8.43654 7.23296 8.21923 7.3046 8.05207L5.26078 6.02526H5.25656Z" fill="#333333" stroke="#333333" stroke-width="0.25"/>
</svg>
