<svg width="20" height="20" viewBox="0 0 20 20" fill="none" xmlns="http://www.w3.org/2000/svg">
<mask id="mask0_69_5812" style="mask-type:luminance" maskUnits="userSpaceOnUse" x="1" y="2" width="18" height="16">
<path fill-rule="evenodd" clip-rule="evenodd" d="M1.66699 2.50049H18.3337V17.6388H1.66699V2.50049Z" fill="white"/>
</mask>
<g mask="url(#mask0_69_5812)">
<path fill-rule="evenodd" clip-rule="evenodd" d="M2.91699 12.483V14.1872C2.91699 14.7755 3.14533 15.328 3.56116 15.7438C3.97699 16.1597 4.53033 16.3888 5.11783 16.3888H14.8812C16.0945 16.3888 17.0828 15.4022 17.0837 14.1888V12.4822C16.012 12.2047 15.2178 11.2288 15.217 10.0713C15.217 8.91382 16.0112 7.93799 17.0828 7.65965L17.0837 5.95549C17.0845 4.74049 16.0987 3.75132 14.8845 3.75049H5.12033C3.90616 3.75049 2.91783 4.73799 2.91699 5.95215V7.71632C3.32199 7.81299 3.69783 8.01216 4.01033 8.30382C4.48449 8.74632 4.75783 9.34632 4.78116 9.99465C4.78366 11.2163 3.98949 12.203 2.91699 12.483ZM14.8812 17.6388H5.11866C4.19616 17.6388 3.32949 17.2805 2.67699 16.628C2.02533 15.9755 1.66699 15.1088 1.66699 14.1872V11.9372C1.66699 11.5922 1.94699 11.3122 2.29199 11.3122C2.97866 11.3113 3.53366 10.7547 3.53283 10.0713C3.52116 9.72299 3.38783 9.43299 3.15783 9.21799C2.92866 9.00299 2.63199 8.88549 2.31366 8.90299C2.14116 8.90465 1.97949 8.84549 1.85783 8.72799C1.73616 8.61049 1.66699 8.44715 1.66699 8.27799V5.95299C1.66783 4.04882 3.21699 2.50049 5.12033 2.50049H14.8803C16.7887 2.50132 18.3353 4.05299 18.3337 5.95632V8.20549C18.3337 8.55049 18.0537 8.83049 17.7087 8.83049C17.0245 8.83049 16.467 9.38715 16.467 10.0705C16.4678 10.7555 17.0245 11.3122 17.7087 11.3122C18.0537 11.3122 18.3337 11.5922 18.3337 11.9372V14.1872C18.3328 16.0905 16.7837 17.6388 14.8812 17.6388Z" fill="#337AFF"/>
</g>
<path fill-rule="evenodd" clip-rule="evenodd" d="M8.41992 9.48466L8.84409 9.89799C9.07409 10.1238 9.17826 10.4455 9.12326 10.7597L9.02326 11.3413L9.54742 11.0655C9.82992 10.9147 10.1691 10.9155 10.4541 11.0672L10.9749 11.3405L10.8749 10.758C10.8224 10.4388 10.9274 10.1197 11.1549 9.89799L11.5791 9.48466L10.9916 9.39966C10.6766 9.35382 10.4033 9.15549 10.2624 8.86799L9.99992 8.33716L9.73742 8.86882C9.59659 9.15549 9.32326 9.35382 9.00659 9.39966L8.41992 9.48466ZM11.3487 12.8231C11.1937 12.8231 11.0387 12.7856 10.8953 12.7098L10.0003 12.2406L9.10451 12.7106C8.77451 12.8831 8.38201 12.8556 8.08201 12.6373C7.78118 12.4181 7.63368 12.0548 7.69618 11.6881L7.86701 10.6914L7.14284 9.9856C6.87701 9.72643 6.78201 9.3456 6.89618 8.99226C7.01118 8.6381 7.31118 8.38393 7.67868 8.3306L8.68201 8.18393L9.12951 7.27643C9.29368 6.9431 9.62701 6.7356 10.0003 6.7356C10.372 6.7356 10.7062 6.9431 10.8703 7.27726L11.3187 8.18393L12.3203 8.3306C12.6887 8.38393 12.9895 8.6381 13.1037 8.99226C13.2178 9.3456 13.1237 9.72643 12.857 9.98643L12.132 10.6923L12.3037 11.6881C12.3662 12.0556 12.2178 12.4198 11.9162 12.6381C11.7462 12.7606 11.5478 12.8231 11.3487 12.8231Z" fill="#337AFF"/>
</svg>
