<svg width="20" height="20" viewBox="0 0 20 20" fill="none" xmlns="http://www.w3.org/2000/svg">
<g clip-path="url(#clip0_301_32393)">
<mask id="mask0_301_32393" style="mask-type:luminance" maskUnits="userSpaceOnUse" x="1" y="4" width="18" height="12">
<path fill-rule="evenodd" clip-rule="evenodd" d="M1.66602 4.44458H18.3326V15.6286H1.66602V4.44458Z" fill="white"/>
</mask>
<g mask="url(#mask0_301_32393)">
<path fill-rule="evenodd" clip-rule="evenodd" d="M2.9738 10.0366C4.5238 12.8901 7.13463 14.5866 9.9988 14.5873C12.863 14.5866 15.4738 12.8901 17.0238 10.0366C15.4738 7.18384 12.863 5.48731 9.9988 5.48661C7.13546 5.48731 4.5238 7.18384 2.9738 10.0366ZM10.0008 15.6289H9.99747H9.99664C6.54997 15.6268 3.45497 13.6136 1.71664 10.2421C1.64914 10.1108 1.64914 9.96222 1.71664 9.83097C3.45497 6.46013 6.55081 4.44694 9.99664 4.44486C9.99831 4.44416 9.99831 4.44416 9.99914 4.44486C10.0008 4.44416 10.0008 4.44416 10.0016 4.44486C13.4483 4.44694 16.5433 6.46013 18.2816 9.83097C18.35 9.96222 18.35 10.1108 18.2816 10.2421C16.5441 13.6136 13.4483 15.6268 10.0016 15.6289H10.0008Z" fill="#333333"/>
</g>
<circle cx="10" cy="10" r="3.04167" stroke="#333333" stroke-width="1.08333"/>
</g>
<defs>
<clipPath id="clip0_301_32393">
<rect width="20" height="20" fill="white"/>
</clipPath>
</defs>
</svg>
