<svg width="20" height="20" viewBox="0 0 20 20" fill="none" xmlns="http://www.w3.org/2000/svg">
<mask id="mask0_46_5202" style="mask-type:luminance" maskUnits="userSpaceOnUse" x="2" y="0" width="16" height="16">
<path fill-rule="evenodd" clip-rule="evenodd" d="M2.5 0.833252H17.9141V15.2899H2.5V0.833252Z" fill="white"/>
</mask>
<g mask="url(#mask0_46_5202)">
<path fill-rule="evenodd" clip-rule="evenodd" d="M10.2054 2.08325C7.2929 2.08325 5.2629 4.36492 5.2629 6.41242C5.2629 8.14492 4.78207 8.94575 4.35707 9.65242C4.01624 10.2199 3.74707 10.6683 3.74707 11.6424C3.88624 13.2141 4.92374 14.0399 10.2054 14.0399C15.4579 14.0399 16.5279 13.1774 16.6662 11.5883C16.6637 10.6683 16.3946 10.2199 16.0537 9.65242C15.6287 8.94575 15.1479 8.14492 15.1479 6.41242C15.1479 4.36492 13.1179 2.08325 10.2054 2.08325ZM10.2058 15.2899C6.30918 15.2899 2.78751 15.0149 2.50001 11.6958C2.49751 10.3224 2.91668 9.62408 3.28668 9.00908C3.66084 8.38575 4.01334 7.79825 4.01334 6.41242C4.01334 3.71825 6.50168 0.833252 10.2058 0.833252C13.91 0.833252 16.3983 3.71825 16.3983 6.41242C16.3983 7.79825 16.7508 8.38575 17.125 9.00908C17.495 9.62408 17.9142 10.3224 17.9142 11.6424C17.6233 15.0149 14.1025 15.2899 10.2058 15.2899Z" fill="#4F80FF"/>
</g>
<path fill-rule="evenodd" clip-rule="evenodd" d="M10.1649 18.75H10.1632C9.22903 18.7492 8.34486 18.3375 7.67403 17.59C7.44319 17.3342 7.46403 16.9383 7.72069 16.7083C7.97736 16.4767 8.37236 16.4975 8.60319 16.755C9.03486 17.2358 9.58903 17.5 10.164 17.5H10.1649C10.7424 17.5 11.299 17.2358 11.7315 16.7542C11.9632 16.4983 12.3582 16.4775 12.614 16.7083C12.8707 16.9392 12.8915 17.335 12.6607 17.5908C11.9874 18.3383 11.1015 18.75 10.1649 18.75Z" fill="#4F80FF"/>
</svg>
