<svg width="20" height="20" viewBox="0 0 20 20" fill="none" xmlns="http://www.w3.org/2000/svg">
<path d="M6 6L8.36364 5H12.1818L14.3636 6.57895L15.5 8L16 9.73684L15.5 11L14 13L10.5 14.5L7.27273 14.4737L6 14.5L4.54545 11.3158L4 9.5L6 6Z" fill="#337AFF"/>
<mask id="path-2-inside-1_3425_65991" fill="white">
<path fill-rule="evenodd" clip-rule="evenodd" d="M10.0003 14.9376C13.3508 14.9376 16.0669 12.5786 16.0669 9.66852C16.0669 6.75847 13.3508 4.39941 10.0003 4.39941C6.69916 4.39941 4.01387 6.68938 3.93536 9.5401C3.9341 9.58067 3.93354 9.62135 3.9336 9.66211C3.9336 9.66425 3.93359 9.66638 3.93359 9.66852C3.93359 9.87897 3.9478 10.0865 3.97542 10.2905C3.98958 10.4101 4.00635 10.529 4.02416 10.6467C4.15554 11.5108 4.55747 12.2615 5.13822 12.895C5.38272 13.162 5.46769 13.4568 5.49272 13.7786C5.54067 14.3962 5.47085 15.0012 5.15773 15.5976C5.15759 15.5979 5.15758 15.5982 5.15771 15.5985C5.1579 15.5988 5.15833 15.599 5.15874 15.599C5.18853 15.5924 5.21136 15.5878 5.22983 15.5842C5.25854 15.5784 5.2767 15.5748 5.29409 15.569C5.88996 15.3781 6.41545 15.069 6.84136 14.6021C6.99098 14.438 7.15155 14.4069 7.35643 14.4781C7.97529 14.6924 8.61153 14.8525 9.26113 14.8989C9.50339 14.9245 9.75006 14.9376 10.0003 14.9376Z"/>
</mask>
<path d="M3.93536 9.5401L4.86825 9.56899L4.86834 9.56579L3.93536 9.5401ZM3.9336 9.66211L4.86693 9.66339L4.86693 9.66072L3.9336 9.66211ZM3.97542 10.2905L4.90228 10.1808L4.90136 10.173L4.90031 10.1653L3.97542 10.2905ZM4.02416 10.6467L3.10133 10.7864L3.10143 10.787L4.02416 10.6467ZM5.13822 12.895L5.82647 12.2646L5.82623 12.2644L5.13822 12.895ZM5.49272 13.7786L6.42325 13.7064L6.42324 13.7063L5.49272 13.7786ZM5.15773 15.5976L5.98378 16.0321L5.98411 16.0315L5.15773 15.5976ZM5.15771 15.5985L4.32094 16.0119L4.32122 16.0125L5.15771 15.5985ZM5.15874 15.599L5.35867 16.5106L5.3593 16.5105L5.15874 15.599ZM5.22983 15.5842L5.04716 14.6689L5.04713 14.6689L5.22983 15.5842ZM5.29409 15.569L5.00924 14.6802L5.00066 14.683L5.29409 15.569ZM6.84136 14.6021L7.53087 15.2311L7.53098 15.231L6.84136 14.6021ZM7.35643 14.4781L7.04999 15.3597L7.05109 15.3601L7.35643 14.4781ZM9.26113 14.8989L9.35905 13.9707L9.34339 13.9691L9.32769 13.968L9.26113 14.8989ZM15.1336 9.66852C15.1336 11.9439 12.9632 14.0043 10.0003 14.0043V15.871C13.7384 15.871 17.0003 13.2132 17.0003 9.66852H15.1336ZM10.0003 5.33275C12.9632 5.33275 15.1336 7.39312 15.1336 9.66852H17.0003C17.0003 6.12383 13.7384 3.46608 10.0003 3.46608V5.33275ZM4.86834 9.56579C4.92982 7.33351 7.08326 5.33275 10.0003 5.33275V3.46608C6.31506 3.46608 3.09792 6.04526 3.00238 9.5144L4.86834 9.56579ZM4.86693 9.66072C4.86688 9.62953 4.86732 9.59895 4.86825 9.56899L3.00247 9.51121C3.00089 9.56239 3.00019 9.61318 3.00027 9.6635L4.86693 9.66072ZM4.86693 9.66852C4.86693 9.66681 4.86693 9.6651 4.86693 9.66339L3.00027 9.66083C3.00026 9.66339 3.00026 9.66596 3.00026 9.66852H4.86693ZM4.90031 10.1653C4.87829 10.0026 4.86693 9.8369 4.86693 9.66852H3.00026C3.00026 9.92104 3.01731 10.1704 3.05053 10.4158L4.90031 10.1653ZM4.94699 10.5071C4.93008 10.3953 4.91485 10.287 4.90228 10.1808L3.04857 10.4003C3.0643 10.5331 3.08262 10.6627 3.10133 10.7864L4.94699 10.5071ZM5.82623 12.2644C5.35096 11.7459 5.04634 11.1606 4.94689 10.5065L3.10143 10.787C3.26473 11.8611 3.76398 12.7771 4.45021 13.5257L5.82623 12.2644ZM6.42324 13.7063C6.38783 13.251 6.255 12.7325 5.82647 12.2646L4.44997 13.5255C4.48908 13.5681 4.50919 13.6046 4.52327 13.6424C4.53917 13.685 4.5542 13.7483 4.56219 13.851L6.42324 13.7063ZM5.98411 16.0315C6.39997 15.2393 6.48079 14.4476 6.42325 13.7064L4.56218 13.8509C4.60054 14.3449 4.54173 14.763 4.33134 15.1638L5.98411 16.0315ZM5.99449 15.185C6.12758 15.4544 6.12197 15.7693 5.98378 16.0321L4.33167 15.1632C4.19321 15.4265 4.18759 15.742 4.32094 16.0119L5.99449 15.185ZM4.9588 14.6873C5.36168 14.5989 5.79728 14.7866 5.99421 15.1845L4.32122 16.0125C4.51852 16.4111 4.95498 16.5992 5.35867 16.5106L4.9588 14.6873ZM5.04713 14.6689C5.02787 14.6727 4.99747 14.6788 4.95817 14.6874L5.3593 16.5105C5.3796 16.506 5.39486 16.503 5.41252 16.4994L5.04713 14.6689ZM5.00066 14.683C5.02941 14.6735 5.0514 14.6683 5.05929 14.6665C5.06286 14.6657 5.06428 14.6654 5.06164 14.666C5.05874 14.6666 5.05499 14.6673 5.04716 14.6689L5.41249 16.4994C5.42401 16.4971 5.50429 16.4826 5.58753 16.455L5.00066 14.683ZM6.15186 13.9731C5.8516 14.3022 5.47378 14.5314 5.00925 14.6802L5.57894 16.4578C6.30614 16.2248 6.9793 15.8357 7.53087 15.2311L6.15186 13.9731ZM7.66287 13.5965C7.45175 13.5232 7.17537 13.472 6.86936 13.5422C6.55686 13.6139 6.32123 13.7873 6.15175 13.9732L7.53098 15.231C7.51112 15.2528 7.43058 15.3286 7.28699 15.3616C7.14988 15.393 7.05623 15.3619 7.04999 15.3597L7.66287 13.5965ZM9.32769 13.968C8.78516 13.9292 8.23238 13.7937 7.66176 13.5962L7.05109 15.3601C7.71821 15.5911 8.4379 15.7758 9.19457 15.8299L9.32769 13.968ZM10.0003 14.0043C9.78278 14.0043 9.5688 13.9929 9.35905 13.9707L9.16321 15.8271C9.43798 15.8561 9.71733 15.871 10.0003 15.871V14.0043Z" fill="#337AFF" mask="url(#path-2-inside-1_3425_65991)"/>
<ellipse cx="7.91396" cy="9.73093" rx="0.56875" ry="0.592257" fill="white"/>
<ellipse cx="10.1894" cy="9.73093" rx="0.56875" ry="0.592257" fill="white"/>
<ellipse cx="12.4643" cy="9.73093" rx="0.56875" ry="0.592257" fill="white"/>
</svg>
