<svg width="20" height="20" viewBox="0 0 20 20" fill="none" xmlns="http://www.w3.org/2000/svg">
<ellipse cx="7.03914" cy="10.3284" rx="6.05153" ry="3.97413" transform="rotate(60 7.03914 10.3284)" fill="#D70000"/>
<ellipse cx="7.97761" cy="9.78595" rx="6.05153" ry="3.97413" transform="rotate(60 7.97761 9.78595)" fill="#FD3A3A"/>
<path d="M10.0671 13.5848C9.48781 13.9193 8.70121 13.8898 7.8482 13.4543C6.99988 13.0211 6.14398 12.209 5.50766 11.1069C4.87135 10.0047 4.59602 8.85745 4.64502 7.90619C4.6943 6.94967 5.06207 6.25372 5.64141 5.91924C6.22075 5.58475 7.00734 5.61424 7.86035 6.04982C8.70867 6.48301 9.56458 7.29509 10.2009 8.39722C10.8372 9.49935 11.1125 10.6466 11.0635 11.5979C11.0142 12.5544 10.6465 13.2504 10.0671 13.5848Z" fill="#FD3A3A" stroke="white" stroke-width="0.903213"/>
<path d="M9.16333 12.0214C9.01795 12.1053 8.71695 12.1155 8.25663 11.8195C7.81838 11.5376 7.34332 11.0367 6.96019 10.3731C6.57706 9.70952 6.3808 9.04764 6.35585 8.52719C6.32964 7.98053 6.48896 7.72495 6.63434 7.64101C6.77972 7.55708 7.08072 7.5469 7.54103 7.84292C7.97928 8.12476 8.45435 8.62566 8.83748 9.28926C9.22061 9.95286 9.41687 10.6147 9.44182 11.1352C9.46803 11.6818 9.30871 11.9374 9.16333 12.0214Z" fill="#FD3A3A" stroke="white" stroke-width="0.903213"/>
<path d="M9.74902 8.83252L8.34066 9.64473" stroke="#FFCD4D" stroke-width="0.361285" stroke-linecap="round"/>
<ellipse cx="10.454" cy="8.42614" rx="1.08386" ry="1.17418" transform="rotate(60.0279 10.454 8.42614)" fill="#FFCD4D"/>
<path d="M14.5471 4.97801L15.573 6.75699L12.1845 9.13856C11.4806 9.63329 10.5038 9.41741 10.074 8.67209C9.63554 7.91178 9.95983 6.93918 10.7669 6.59416L14.5471 4.97801Z" fill="#52D6E0"/>
<ellipse cx="15.1308" cy="5.82647" rx="1.02681" ry="1.06235" transform="rotate(60.0279 15.1308 5.82647)" fill="#52D6E0"/>
<ellipse cx="15.5975" cy="4.57975" rx="0.905907" ry="1.60276" transform="rotate(30.0279 15.5975 4.57975)" fill="#52D6E0"/>
<ellipse cx="0.905908" cy="1.60276" rx="0.905908" ry="1.60276" transform="matrix(0.000486251 -1 -1 -0.00048608 18.0117 6.89404)" fill="#52D6E0"/>
<path d="M12.1143 6.42627C12.1804 6.54103 12.8036 7.62164 13.107 8.1476" stroke="#A9ECF1" stroke-width="0.361285" stroke-linecap="round"/>
<path d="M12.9873 6.13062C13.0415 6.22451 13.5513 7.10865 13.7995 7.53898" stroke="#A9ECF1" stroke-width="0.361285" stroke-linecap="round"/>
</svg>
