<svg width="21" height="20" viewBox="0 0 21 20" fill="none" xmlns="http://www.w3.org/2000/svg">
<path d="M11.7846 11.922C12.495 13.1524 15.8493 16.6587 17.0798 15.9483C18.3102 15.2379 16.9508 10.5799 16.2404 9.34944C15.53 8.11903 13.9566 7.69746 12.7262 8.40784C11.4957 9.11822 11.0742 10.6915 11.7846 11.922Z" fill="#575757"/>
<path d="M8.52305 11.922C7.81266 13.1524 4.45829 16.6587 3.22785 15.9483C1.99741 15.2379 3.35683 10.5799 4.06723 9.34944C4.77763 8.11903 6.35099 7.69746 7.58143 8.40784C8.81187 9.11822 9.23345 10.6915 8.52305 11.922Z" fill="#575757"/>
<rect x="3.77051" y="5.14282" width="12.665" height="5.93657" rx="2.77949" fill="#212121"/>
<rect x="6.54004" y="10.2878" width="7.12404" height="3.56194" rx="1.78097" fill="#212121"/>
<path d="M8.7298 8.11083C8.7298 9.21067 7.83819 10.1023 6.73831 10.1023C5.63844 10.1023 4.74682 9.21067 4.74682 8.11083C4.74682 7.01098 5.63844 6.11938 6.73831 6.11938C7.83819 6.11938 8.7298 7.01098 8.7298 8.11083Z" fill="#505050" stroke="#959595" stroke-width="0.370598"/>
<path d="M15.4583 8.11083C15.4583 9.21067 14.5667 10.1023 13.4668 10.1023C12.367 10.1023 11.4753 9.21067 11.4753 8.11083C11.4753 7.01098 12.367 6.11938 13.4668 6.11938C14.5667 6.11938 15.4583 7.01098 15.4583 8.11083Z" fill="#505050" stroke="#959595" stroke-width="0.370598"/>
<path d="M9.52168 12.0693C9.52168 12.732 8.98446 13.2692 8.32175 13.2692C7.65905 13.2692 7.12182 12.732 7.12182 12.0693C7.12182 11.4066 7.65905 10.8694 8.32175 10.8694C8.98446 10.8694 9.52168 11.4066 9.52168 12.0693Z" fill="#9F9F9F" stroke="#BFBFBF" stroke-width="0.370598"/>
<ellipse cx="10.1031" cy="9.89188" rx="0.79156" ry="0.791543" fill="#535353"/>
<ellipse cx="13.4918" cy="7.16659" rx="0.494725" ry="0.494714" fill="#FD3A3A"/>
<ellipse cx="14.5551" cy="8.07943" rx="0.494714" ry="0.494725" transform="rotate(90 14.5551 8.07943)" fill="#FD3A3A"/>
<ellipse cx="13.4918" cy="9.14095" rx="0.494725" ry="0.494714" fill="#BFBFBF"/>
<ellipse cx="12.4281" cy="8.07943" rx="0.494714" ry="0.494725" transform="rotate(90 12.4281 8.07943)" fill="#BFBFBF"/>
<path d="M13.0832 12.0693C13.0832 12.732 12.546 13.2692 11.8833 13.2692C11.2206 13.2692 10.6833 12.732 10.6833 12.0693C10.6833 11.4066 11.2206 10.8694 11.8833 10.8694C12.546 10.8694 13.0832 11.4066 13.0832 12.0693Z" fill="#9F9F9F" stroke="#BFBFBF" stroke-width="0.370598"/>
<path d="M10.4059 9.89357C10.4059 10.061 10.2702 10.1967 10.1028 10.1967C9.9354 10.1967 9.79968 10.061 9.79968 9.89357C9.79968 9.72617 9.9354 9.59045 10.1028 9.59045C10.2702 9.59045 10.4059 9.72617 10.4059 9.89357Z" fill="#535353" stroke="#FD3A3A" stroke-width="0.185299"/>
<rect x="6.31543" y="6.82373" width="0.759345" height="2.58172" rx="0.142206" fill="#BFBFBF"/>
<rect x="7.98535" y="7.73535" width="0.759329" height="2.58177" rx="0.142206" transform="rotate(90 7.98535 7.73535)" fill="#BFBFBF"/>
<path d="M7.07454 7.73535L6.23926 8.57061" stroke="#505050" stroke-width="0.142206" stroke-linecap="round"/>
<path d="M6.31511 7.73535L7.15039 8.57061" stroke="#505050" stroke-width="0.142206" stroke-linecap="round"/>
</svg>
