<svg width="21" height="20" viewBox="0 0 21 20" fill="none" xmlns="http://www.w3.org/2000/svg">
<rect x="3.1543" y="15.0447" width="14.2685" height="2.37808" rx="1.0582" fill="#ABABAB"/>
<rect x="3.68262" y="2.85718" width="13.2116" height="8.8077" rx="1.0582" fill="#BEBEBE"/>
<path d="M3.53577 12.5495C3.62081 12.0393 4.06228 11.6653 4.57957 11.6653H15.9983C16.5156 11.6653 16.957 12.0393 17.0421 12.5495L17.5151 15.3874C17.6226 16.0325 17.1252 16.6196 16.4713 16.6196H4.10659C3.45268 16.6196 2.95528 16.0325 3.06278 15.3874L3.53577 12.5495Z" fill="#BEBEBE"/>
<path d="M4.01841 12.3005C4.04508 12.0947 4.22034 11.9407 4.42784 11.9407H5.41486C5.62236 11.9407 5.79762 12.0947 5.82429 12.3005C5.85632 12.5475 5.66395 12.7664 5.41486 12.7664H4.42784C4.17875 12.7664 3.98639 12.5475 4.01841 12.3005Z" fill="#444444"/>
<path d="M3.77299 13.3799C3.80923 13.1842 3.97993 13.0422 4.17895 13.0422H5.93869C6.13771 13.0422 6.30841 13.1842 6.34465 13.3799C6.39165 13.6337 6.19682 13.868 5.93869 13.868H4.17895C3.92082 13.868 3.72599 13.6337 3.77299 13.3799Z" fill="#444444"/>
<path d="M13.0739 14.5252C13.0898 14.3096 13.2694 14.1428 13.4856 14.1428H13.6974C13.9136 14.1428 14.0932 14.3096 14.1091 14.5252C14.1269 14.7646 13.9374 14.9685 13.6974 14.9685H13.4856C13.2456 14.9685 13.0561 14.7646 13.0739 14.5252Z" fill="#444444"/>
<path d="M6.74378 13.4246C6.75975 13.209 6.93933 13.0422 7.15551 13.0422H7.36733C7.58351 13.0422 7.76309 13.209 7.77906 13.4246C7.79679 13.664 7.60736 13.868 7.36733 13.868H7.15551C6.91548 13.868 6.72605 13.664 6.74378 13.4246Z" fill="#444444"/>
<path d="M3.71546 14.5252C3.73143 14.3096 3.91101 14.1428 4.12719 14.1428H4.33901C4.55519 14.1428 4.73477 14.3096 4.75074 14.5252C4.76847 14.7646 4.57904 14.9685 4.33901 14.9685H4.12719C3.88716 14.9685 3.69773 14.7646 3.71546 14.5252Z" fill="#444444"/>
<path d="M6.193 12.323C6.20897 12.1074 6.38855 11.9407 6.60473 11.9407H6.81654C7.03273 11.9407 7.21231 12.1074 7.22828 12.323C7.24601 12.5624 7.05658 12.7664 6.81654 12.7664H6.60473C6.3647 12.7664 6.17527 12.5624 6.193 12.323Z" fill="#444444"/>
<path d="M10.8717 13.4246C10.8877 13.209 11.0673 13.0422 11.2834 13.0422H11.4953C11.7114 13.0422 11.891 13.209 11.907 13.4246C11.9247 13.664 11.7353 13.868 11.4953 13.868H11.2834C11.0434 13.868 10.854 13.664 10.8717 13.4246Z" fill="#444444"/>
<path d="M10.3209 12.323C10.3369 12.1074 10.5165 11.9407 10.7327 11.9407H10.9445C11.1607 11.9407 11.3402 12.1074 11.3562 12.323C11.3739 12.5624 11.1845 12.7664 10.9445 12.7664H10.7327C10.4926 12.7664 10.3032 12.5624 10.3209 12.323Z" fill="#444444"/>
<path d="M13.0739 12.323C13.0898 12.1074 13.2694 11.9407 13.4856 11.9407H13.6974C13.9136 11.9407 14.0932 12.1074 14.1091 12.323C14.1269 12.5624 13.9374 12.7664 13.6974 12.7664H13.4856C13.2456 12.7664 13.0561 12.5624 13.0739 12.323Z" fill="#444444"/>
<path d="M14.4498 14.5252C14.4658 14.3096 14.6454 14.1428 14.8616 14.1428H15.0734C15.2896 14.1428 15.4691 14.3096 15.4851 14.5252C15.5028 14.7646 15.3134 14.9685 15.0734 14.9685H14.8616C14.6215 14.9685 14.4321 14.7646 14.4498 14.5252Z" fill="#444444"/>
<path d="M8.11878 13.4246C8.13475 13.209 8.31433 13.0422 8.53051 13.0422H8.74233C8.95851 13.0422 9.13809 13.209 9.15406 13.4246C9.17179 13.664 8.98236 13.868 8.74233 13.868H8.53051C8.29048 13.868 8.10105 13.664 8.11878 13.4246Z" fill="#444444"/>
<path d="M5.09144 14.5252C5.10741 14.3096 5.28698 14.1428 5.50317 14.1428H5.71498C5.93117 14.1428 6.11075 14.3096 6.12672 14.5252C6.14445 14.7646 5.95501 14.9685 5.71498 14.9685H5.50317C5.26314 14.9685 5.0737 14.7646 5.09144 14.5252Z" fill="#444444"/>
<path d="M7.56897 12.323C7.58494 12.1074 7.76452 11.9407 7.98071 11.9407H8.19252C8.40871 11.9407 8.58828 12.1074 8.60425 12.323C8.62199 12.5624 8.43255 12.7664 8.19252 12.7664H7.98071C7.74068 12.7664 7.55124 12.5624 7.56897 12.323Z" fill="#444444"/>
<path d="M12.2477 13.4246C12.2637 13.209 12.4432 13.0422 12.6594 13.0422H12.8712C13.0874 13.0422 13.267 13.209 13.283 13.4246C13.3007 13.664 13.1113 13.868 12.8712 13.868H12.6594C12.4194 13.868 12.23 13.664 12.2477 13.4246Z" fill="#444444"/>
<path d="M11.6969 12.323C11.7129 12.1074 11.8925 11.9407 12.1086 11.9407H12.3205C12.5366 11.9407 12.7162 12.1074 12.7322 12.323C12.7499 12.5624 12.5605 12.7664 12.3205 12.7664H12.1086C11.8686 12.7664 11.6792 12.5624 11.6969 12.323Z" fill="#444444"/>
<path d="M14.4498 12.323C14.4658 12.1074 14.6454 11.9407 14.8616 11.9407H15.0734C15.2896 11.9407 15.4691 12.1074 15.4851 12.323C15.5028 12.5624 15.3134 12.7664 15.0734 12.7664H14.8616C14.6215 12.7664 14.4321 12.5624 14.4498 12.323Z" fill="#444444"/>
<path d="M15.8258 14.5252C15.8418 14.3096 16.0214 14.1428 16.2375 14.1428H16.4494C16.6655 14.1428 16.8451 14.3096 16.8611 14.5252C16.8788 14.7646 16.6894 14.9685 16.4494 14.9685H16.2375C15.9975 14.9685 15.8081 14.7646 15.8258 14.5252Z" fill="#444444"/>
<path d="M9.49573 13.4246C9.5117 13.209 9.69128 13.0422 9.90747 13.0422H10.1193C10.3355 13.0422 10.515 13.209 10.531 13.4246C10.5487 13.664 10.3593 13.868 10.1193 13.868H9.90746C9.66743 13.868 9.478 13.664 9.49573 13.4246Z" fill="#444444"/>
<path d="M6.46741 14.5252C6.48338 14.3096 6.66296 14.1428 6.87914 14.1428H7.09096C7.30714 14.1428 7.48672 14.3096 7.50269 14.5252C7.52042 14.7646 7.33099 14.9685 7.09096 14.9685H6.87914C6.63911 14.9685 6.44968 14.7646 6.46741 14.5252Z" fill="#444444"/>
<path d="M8.94495 12.323C8.96092 12.1074 9.1405 11.9407 9.35668 11.9407H9.5685C9.78468 11.9407 9.96426 12.1074 9.98023 12.323C9.99796 12.5624 9.80853 12.7664 9.5685 12.7664H9.35668C9.11665 12.7664 8.92722 12.5624 8.94495 12.323Z" fill="#444444"/>
<path d="M13.6927 13.3727C13.7319 13.1804 13.901 13.0422 14.0972 13.0422H16.114C16.3103 13.0422 16.4794 13.1804 16.5186 13.3727C16.5707 13.6286 16.3751 13.868 16.114 13.868H14.0972C13.8361 13.868 13.6406 13.6286 13.6927 13.3727Z" fill="#444444"/>
<path d="M8.00403 14.4187C8.06218 14.2534 8.21829 14.1428 8.39348 14.1428H12.4572C12.6324 14.1428 12.7885 14.2534 12.8466 14.4187C12.9411 14.6872 12.7419 14.9685 12.4572 14.9685H8.39349C8.1088 14.9685 7.90954 14.6872 8.00403 14.4187Z" fill="#444444"/>
<path d="M7.99288 15.6532C8.05665 15.4115 8.27521 15.2432 8.52514 15.2432H12.3255C12.5755 15.2432 12.794 15.4115 12.8578 15.6532C12.9499 16.0023 12.6866 16.3441 12.3255 16.3441H8.52514C8.16405 16.3441 7.90074 16.0023 7.99288 15.6532Z" fill="#969696"/>
<rect x="4.50879" y="3.68311" width="11.5601" height="7.15626" rx="0.793651" fill="#2B2B2B"/>
<path d="M5.05957 11.6653H15.5187" stroke="#A0A0A0" stroke-width="0.428571" stroke-linecap="round"/>
</svg>
