<svg width="74" height="74" viewBox="0 0 74 74" fill="none" xmlns="http://www.w3.org/2000/svg">
<path fill-rule="evenodd" clip-rule="evenodd" d="M52.0916 14.7742C58.2919 14.7742 63.3182 19.8005 63.3182 26.0007V41.7177C63.3182 47.9179 58.2919 52.9442 52.0916 52.9442H26.723C24.4776 55.4556 21.0538 57.9582 15.9982 59.7351C15.6227 59.8671 15.3068 59.2217 15.6092 58.963C17.3373 57.485 19.0692 55.3336 19.5813 52.7291C14.4335 51.7071 10.553 47.1656 10.553 41.7177V26.0007C10.553 19.8005 15.5793 14.7742 21.7796 14.7742H52.0916Z" fill="#337AFF"/>
<ellipse cx="3.92932" cy="3.92927" rx="3.92932" ry="3.92927" transform="matrix(-1 0 0 1 52.0911 30.4883)" fill="white"/>
<ellipse cx="3.92932" cy="3.92927" rx="3.92932" ry="3.92927" transform="matrix(-1 0 0 1 40.8641 30.4883)" fill="white"/>
<ellipse cx="3.92932" cy="3.92927" rx="3.92932" ry="3.92927" transform="matrix(-1 0 0 1 29.6392 30.4883)" fill="white"/>
</svg>
