<svg width="21" height="20" viewBox="0 0 21 20" fill="none" xmlns="http://www.w3.org/2000/svg">
<path fill-rule="evenodd" clip-rule="evenodd" d="M16.5 13.4361C17.0653 13.8698 17.9029 13.7066 17.9785 12.9981C18.2249 10.6893 16.37 7.82372 13.249 6.0218C9.47764 3.8444 5.28562 4.04467 3.88586 6.46913C2.4861 8.89358 4.40867 12.6241 8.18004 14.8015C9.68125 15.6683 11.2491 16.1582 12.681 16.2812C13.5367 16.3546 13.9256 15.3893 13.4502 14.6741C12.496 13.2384 12.0963 12.1235 12.4956 11.7243C12.9882 11.2317 14.5703 11.9553 16.5 13.4361ZM12.851 10.0127C13.4924 10.383 14.1999 10.3582 14.4314 9.95736C14.6628 9.55649 14.3305 8.93134 13.6891 8.56104C13.0477 8.19073 12.3401 8.21551 12.1087 8.61637C11.8773 9.01724 12.2096 9.64239 12.851 10.0127Z" fill="#D5A05D"/>
<path fill-rule="evenodd" clip-rule="evenodd" d="M16.876 12.6858C17.4412 13.1196 18.2789 12.9563 18.3545 12.2478C18.6008 9.93905 16.746 7.07347 13.625 5.27156C9.85361 3.09415 5.66159 3.29443 4.26184 5.71888C2.86208 8.14334 4.78465 11.8739 8.55601 14.0513C10.0572 14.918 11.6251 15.408 13.057 15.5309C13.9127 15.6044 14.3016 14.6391 13.8262 13.9238C12.872 12.4882 12.4723 11.3733 12.8715 10.974C13.3641 10.4814 14.9462 11.2051 16.876 12.6858ZM13.227 9.2627C13.8683 9.633 14.5759 9.60822 14.8073 9.20736C15.0388 8.80649 14.7064 8.18134 14.0651 7.81104C13.4237 7.44073 12.7161 7.46551 12.4847 7.86637C12.2532 8.26724 12.5856 8.89239 13.227 9.2627Z" fill="#E1BB8B"/>
<path d="M9.85778 6.4225C9.6784 6.7332 9.11794 6.49426 8.65497 6.40039C8.326 6.33369 7.9431 6.37672 7.652 6.20961C6.91356 5.78569 7.0855 5.23982 7.30559 4.85861C7.53317 4.46443 8.31571 4.18302 8.79979 4.88303C8.94567 5.09397 9.10576 5.30036 9.32124 5.43944C9.8228 5.76318 10.0728 6.05006 9.85778 6.4225Z" fill="#4ED62C"/>
<path d="M11.1142 5.60477C11.0512 5.86256 11.4311 6.02995 11.7438 6.21267C12.0336 6.38201 12.2917 6.67821 12.6224 6.73542C13.2134 6.83764 13.4021 6.44664 13.4823 6.11812C13.5665 5.7736 13.2914 5.20249 12.6689 5.28374C12.4146 5.31693 12.1568 5.35968 11.904 5.31644C11.4717 5.24249 11.1924 5.28452 11.1142 5.60477Z" fill="#FFE560"/>
<path d="M15.3222 9.89196C15.211 10.1329 15.5518 10.37 15.8236 10.6093C16.0756 10.8311 16.272 11.1713 16.5857 11.2908C17.1461 11.5045 17.4062 11.1569 17.548 10.8499C17.6967 10.5279 17.5362 9.91464 16.9096 9.875C16.6537 9.85881 16.3925 9.85134 16.1527 9.76043C15.7425 9.60495 15.4604 9.59265 15.3222 9.89196Z" fill="#FA5C34"/>
<path d="M8.83332 9.40209C9.07958 9.00338 8.70646 8.71183 8.47305 8.36157C8.28691 8.08225 8.17062 7.72962 7.91125 7.51655C7.06379 6.82037 6.73036 6.94755 5.83701 7.31881C5.61561 7.41081 5.4109 7.56795 5.37205 7.80454C5.28093 8.35958 5.58277 9.10391 6.55215 9.15095C6.80831 9.16338 7.06543 9.21015 7.28806 9.33747C8.01567 9.75361 8.5275 9.89725 8.83332 9.40209Z" fill="#3DD3F3"/>
<path d="M8.11619 10.9595C8.32966 10.6051 8.70304 10.7602 9.07284 10.811C9.40539 10.8567 9.7737 10.8014 10.0807 10.937C10.9558 11.3236 11.0016 11.6491 11.0713 12.498C11.0909 12.7369 11.0447 12.9928 10.848 13.1299C10.4349 13.4181 9.73385 13.4694 9.29583 12.7434C9.16335 12.5238 9.00478 12.3156 8.79032 12.1749C8.16343 11.7639 7.84465 11.4104 8.11619 10.9595Z" fill="#AF4FCA"/>
</svg>
