<svg width="20" height="20" viewBox="0 0 20 20" fill="none" xmlns="http://www.w3.org/2000/svg">
<circle cx="10" cy="10" r="10" fill="#337AFF"/>
<path d="M9.99956 5.45459C10.1502 5.45459 10.2948 5.51445 10.4013 5.62101C10.5079 5.72756 10.5677 5.87208 10.5677 6.02277V9.43186H13.9768C14.1275 9.43186 14.272 9.49172 14.3786 9.59828C14.4851 9.70483 14.545 9.84935 14.545 10C14.545 10.1507 14.4851 10.2953 14.3786 10.4018C14.272 10.5084 14.1275 10.5682 13.9768 10.5682H10.5677V13.9773C10.5677 14.128 10.5079 14.2725 10.4013 14.3791C10.2948 14.4856 10.1502 14.5455 9.99956 14.5455C9.84887 14.5455 9.70435 14.4856 9.59779 14.3791C9.49124 14.2725 9.43137 14.128 9.43137 13.9773V10.5682H6.02228C5.87159 10.5682 5.72707 10.5084 5.62052 10.4018C5.51396 10.2953 5.4541 10.1507 5.4541 10C5.4541 9.84935 5.51396 9.70483 5.62052 9.59828C5.72707 9.49172 5.87159 9.43186 6.02228 9.43186H9.43137V6.02277C9.43137 5.87208 9.49124 5.72756 9.59779 5.62101C9.70435 5.51445 9.84887 5.45459 9.99956 5.45459Z" fill="white"/>
</svg>
