<svg width="20" height="20" viewBox="0 0 20 20" fill="none" xmlns="http://www.w3.org/2000/svg">
<path fill-rule="evenodd" clip-rule="evenodd" d="M14.7607 7.65073C14.7359 7.90498 14.5097 8.09099 14.2555 8.06619L10.1122 7.66208C9.85798 7.63728 9.67197 7.41107 9.69677 7.15682C9.72157 6.90257 9.94778 6.71656 10.202 6.74136L13.0034 7.01459C12.4112 6.58443 11.7289 6.28403 11.001 6.13995C9.84624 5.9114 8.64798 6.09031 7.61037 6.64619C6.57275 7.20207 5.75999 8.10053 5.31055 9.18849C4.86111 10.2765 4.80281 11.4866 5.14558 12.6127C5.48836 13.7388 6.21099 14.7113 7.19037 15.3643C8.16974 16.0174 9.34525 16.3106 10.5166 16.1941C11.688 16.0777 12.7827 15.5586 13.6143 14.7255C14.4458 13.8923 14.9628 12.7966 15.0771 11.625C15.1019 11.3708 15.3281 11.1848 15.5823 11.2096C15.8366 11.2344 16.0226 11.4606 15.9978 11.7148C15.8627 13.0994 15.2518 14.3944 14.269 15.379C13.2863 16.3636 11.9925 16.977 10.6082 17.1147C9.22382 17.2524 7.83458 16.9058 6.67714 16.134C5.5197 15.3622 4.66568 14.213 4.26058 12.8821C3.85549 11.5512 3.92439 10.1211 4.45554 8.83529C4.98669 7.54952 5.94724 6.4877 7.17351 5.83074C8.39978 5.17379 9.8159 4.96236 11.1806 5.23246C12.2053 5.43528 13.1534 5.90018 13.9363 6.57414L14.2441 3.41768C14.2689 3.16343 14.4951 2.97742 14.7494 3.00222C15.0036 3.02702 15.1896 3.25323 15.1648 3.50748L14.7607 7.65073Z" fill="#337AFF"/>
<path fill-rule="evenodd" clip-rule="evenodd" d="M14.145 3.40788C14.1751 3.09866 14.4503 2.87244 14.7595 2.9026C15.0687 2.93276 15.2949 3.20788 15.2648 3.5171L14.8607 7.66034C14.8305 7.96956 14.5554 8.19578 14.2462 8.16562L10.1029 7.76152C9.79369 7.73136 9.56747 7.45624 9.59763 7.14702C9.62779 6.83781 9.90291 6.61158 10.2121 6.64174L12.6168 6.87628C12.1175 6.57078 11.5647 6.35329 10.9819 6.23796C9.84991 6.0139 8.6752 6.18929 7.65798 6.73424C6.64076 7.2792 5.84397 8.16001 5.40336 9.22658C4.96276 10.2932 4.9056 11.4795 5.24164 12.5835C5.57768 13.6875 6.28611 14.6408 7.24623 15.281C8.20636 15.9212 9.35877 16.2087 10.5071 16.0945C11.6554 15.9803 12.7286 15.4715 13.5439 14.6547C14.3591 13.838 14.8659 12.7638 14.9779 11.6152C15.0081 11.306 15.2832 11.0798 15.5924 11.11C15.9016 11.1401 16.1279 11.4152 16.0977 11.7244C15.9604 13.1321 15.3393 14.4485 14.3402 15.4495C13.3411 16.4505 12.0258 17.0742 10.6184 17.2141C9.21109 17.3541 7.79874 17.0017 6.62206 16.2171C5.44537 15.4325 4.57714 14.2641 4.16531 12.9111C3.75347 11.5581 3.82352 10.1042 4.36351 8.79702C4.90349 7.48986 5.88001 6.41038 7.12668 5.74251C8.37334 5.07463 9.81301 4.85968 11.2004 5.13428C12.1791 5.32798 13.089 5.75683 13.8555 6.37614L14.145 3.40788ZM14.7401 3.10165C14.5408 3.08222 14.3635 3.22801 14.344 3.42729L14.0175 6.77558L13.8714 6.64983C13.1016 5.98708 12.1692 5.52991 11.1616 5.33047C9.81957 5.06486 8.427 5.27277 7.22112 5.9188C6.01525 6.56483 5.07068 7.60899 4.54835 8.87338C4.02603 10.1378 3.95828 11.5441 4.35664 12.8529C4.755 14.1616 5.59482 15.2917 6.73301 16.0507C7.8712 16.8097 9.23734 17.1505 10.5986 17.0151C11.96 16.8797 13.2322 16.2765 14.1986 15.3082C15.1651 14.34 15.7658 13.0666 15.8986 11.705C15.9181 11.5058 15.7723 11.3284 15.573 11.309C15.3737 11.2896 15.1964 11.4354 15.177 11.6346C15.0605 12.8292 14.5333 13.9465 13.6854 14.796C12.8375 15.6455 11.7213 16.1748 10.5269 16.2936C9.33251 16.4123 8.1339 16.1133 7.13528 15.4474C6.13666 14.7815 5.39982 13.79 5.05031 12.6417C4.7008 11.4935 4.76024 10.2596 5.21851 9.15022C5.67679 8.04088 6.50553 7.12476 7.56354 6.55795C8.62154 5.99114 9.84335 5.80872 11.0208 6.04176C11.763 6.18868 12.4587 6.49498 13.0626 6.93359L13.3601 7.14972L10.1927 6.8408C9.99343 6.82136 9.81612 6.96716 9.79669 7.16644C9.77725 7.36572 9.92304 7.54303 10.1223 7.56246L14.2656 7.96657C14.4649 7.98601 14.6422 7.84021 14.6616 7.64093L15.0657 3.49768C15.0851 3.2984 14.9393 3.12109 14.7401 3.10165Z" fill="#337AFF"/>
</svg>
