<svg width="36" height="36" viewBox="0 0 36 36" fill="none" xmlns="http://www.w3.org/2000/svg">
<mask id="mask0_2620_15135" style="mask-type:luminance" maskUnits="userSpaceOnUse" x="3" y="4" width="30" height="30">
<path fill-rule="evenodd" clip-rule="evenodd" d="M3 4.50049H32.2485V33.749H3V4.50049Z" fill="white"/>
</mask>
<g mask="url(#mask0_2620_15135)">
<path fill-rule="evenodd" clip-rule="evenodd" d="M16.2073 22.2268L21.6928 31.1263C21.9328 31.5163 22.3078 31.5118 22.4593 31.4908C22.6108 31.4698 22.9753 31.3768 23.1073 30.9343L29.9668 7.76678C30.0868 7.35728 29.8663 7.07828 29.7673 6.97928C29.6713 6.88028 29.3968 6.66878 28.9993 6.78128L5.8153 13.5703C5.3758 13.6993 5.2798 14.0683 5.2588 14.2198C5.2378 14.3743 5.2318 14.7568 5.6203 15.0013L14.6218 20.6308L22.5748 12.5938C23.0113 12.1528 23.7238 12.1483 24.1663 12.5848C24.6088 13.0213 24.6118 13.7353 24.1753 14.1763L16.2073 22.2268ZM22.3423 33.7498C21.2983 33.7498 20.3413 33.2188 19.7773 32.3068L13.9618 22.8703L4.4278 16.9078C3.4003 16.2643 2.8633 15.1183 3.0298 13.9138C3.1948 12.7093 4.0213 11.7523 5.1823 11.4118L28.3663 4.62278C29.4328 4.31078 30.5758 4.60628 31.3618 5.38928C32.1478 6.17978 32.4403 7.33478 32.1223 8.40578L25.2628 31.5718C24.9193 32.7373 23.9593 33.5608 22.7578 33.7213C22.6168 33.7393 22.4803 33.7498 22.3423 33.7498Z" fill="#337AFF"/>
</g>
</svg>
