<svg width="21" height="20" viewBox="0 0 21 20" fill="none" xmlns="http://www.w3.org/2000/svg">
<g clip-path="url(#clip0_41_5279)">
<path d="M6.34942 9.08882C6.62836 8.80987 7.08062 8.80987 7.35957 9.08882L11.3029 13.0322C11.5819 13.3111 11.5819 13.7634 11.3029 14.0423L8.4673 16.878C8.38749 16.9578 8.28996 17.018 8.17856 17.0362C7.71606 17.1115 6.35084 17.1616 4.79052 15.6012C3.2302 14.0409 3.28024 12.6757 3.3556 12.2132C3.37375 12.1018 3.43396 12.0043 3.51377 11.9245L6.34942 9.08882Z" fill="#CACACA"/>
<path d="M16.6238 14.7757C15.3319 16.0676 11.27 15.2011 8.23027 12.1614C5.19054 9.12163 4.32402 5.05977 5.61591 3.76788C6.9078 2.47599 10.4193 3.8929 13.459 6.93264C16.4987 9.97237 17.9156 13.4838 16.6238 14.7757Z" fill="#D9D9D9"/>
<ellipse cx="11.2568" cy="9.13376" rx="6.61617" ry="2.7243" transform="rotate(45 11.2568 9.13376)" fill="#6A6A6A"/>
<path d="M4.12426 10.2129C4.59907 9.73809 5.45385 9.95227 5.7396 10.5599C6.08622 11.297 6.62169 12.2038 7.40469 12.9868C8.1877 13.7698 9.09449 14.3053 9.83157 14.6519C10.4392 14.9376 10.6534 15.7924 10.1786 16.2672C10.0003 16.4455 9.75216 16.5362 9.50733 16.4758C8.87037 16.3187 7.52871 15.8305 6.04484 14.3466C4.56097 12.8628 4.07282 11.5211 3.91564 10.8841C3.85523 10.6393 3.94595 10.3912 4.12426 10.2129Z" fill="#8D8D8D"/>
<mask id="mask0_41_5279" style="mask-type:alpha" maskUnits="userSpaceOnUse" x="6" y="4" width="11" height="11">
<ellipse cx="11.2568" cy="9.13376" rx="6.61617" ry="2.7243" transform="rotate(45 11.2568 9.13376)" fill="#9C9C9C"/>
</mask>
<g mask="url(#mask0_41_5279)">
<circle cx="10.4316" cy="9.9586" r="2.33512" transform="rotate(45 10.4316 9.9586)" fill="#C6C6C6"/>
</g>
</g>
<defs>
<clipPath id="clip0_41_5279">
<rect width="20" height="20" fill="white" transform="translate(0.428711)"/>
</clipPath>
</defs>
</svg>
