<svg width="60" height="60" viewBox="0 0 60 60" fill="none" xmlns="http://www.w3.org/2000/svg">
<circle cx="30" cy="30" r="30" fill="#F5F8FF"/>
<path d="M22.9065 36.8107C22.9065 40.5721 19.8573 43.6213 16.0958 43.6213C12.3344 43.6213 9.28516 40.5721 9.28516 36.8107C9.28516 33.0492 12.3344 30 16.0958 30C19.8573 30 22.9065 33.0492 22.9065 36.8107Z" fill="#FF9C27"/>
<path d="M50.7151 36.8107C50.7151 40.5721 47.6658 43.6213 43.9044 43.6213C40.143 43.6213 37.0938 40.5721 37.0938 36.8107C37.0938 33.0492 40.143 30 43.9044 30C47.6658 30 50.7151 33.0492 50.7151 36.8107Z" fill="#FF9C27"/>
<path d="M47.1422 32.86C47.1422 41.5388 39.467 48.5743 29.9993 48.5743C20.5316 48.5743 12.8564 41.5388 12.8564 32.86C12.8564 24.1813 20.5316 17.1458 29.9993 17.1458C39.467 17.1458 47.1422 24.1813 47.1422 32.86Z" fill="#FFBA68"/>
<mask id="mask0_41_5378" style="mask-type:alpha" maskUnits="userSpaceOnUse" x="12" y="17" width="36" height="32">
<path d="M47.1422 32.8572C47.1422 41.536 39.467 48.5715 29.9993 48.5715C20.5316 48.5715 12.8564 41.536 12.8564 32.8572C12.8564 24.1785 20.5316 17.1429 29.9993 17.1429C39.467 17.1429 47.1422 24.1785 47.1422 32.8572Z" fill="#FFAB49"/>
</mask>
<g mask="url(#mask0_41_5378)">
<path d="M24.0813 40.9303C24.0813 44.6 21.0856 47.5749 17.3902 47.5749C13.6949 47.5749 10.6992 44.6 10.6992 40.9303C10.6992 37.2606 13.6949 34.2858 17.3902 34.2858C21.0856 34.2858 24.0813 37.2606 24.0813 40.9303Z" fill="#FF9A24"/>
<path d="M49.0236 40.9303C49.0236 44.6 46.028 47.5749 42.3326 47.5749C38.6373 47.5749 35.6416 44.6 35.6416 40.9303C35.6416 37.2606 38.6373 34.2858 42.3326 34.2858C46.028 34.2858 49.0236 37.2606 49.0236 40.9303Z" fill="#FF9A24"/>
</g>
<path d="M30.7137 37.8572C30.7137 38.2517 30.3939 38.5715 29.9994 38.5715C29.605 38.5715 29.2852 38.2517 29.2852 37.8572C29.2852 37.4627 29.605 37.1429 29.9994 37.1429C30.3939 37.1429 30.7137 37.4627 30.7137 37.8572Z" fill="black"/>
<path d="M26.4284 35.0691C26.4284 35.8199 25.7888 36.4286 24.9999 36.4286C24.2109 36.4286 23.5713 35.8199 23.5713 35.0691C23.5713 34.3182 24.2109 33.7096 24.9999 33.7096C25.7888 33.7096 26.4284 34.3182 26.4284 35.0691Z" fill="black"/>
<path fill-rule="evenodd" clip-rule="evenodd" d="M25.7304 33.1261C25.8703 33.3742 25.7723 33.6832 25.5116 33.8163C25.3699 33.8887 25.1552 34.0368 25.0024 34.2217C24.8506 34.4054 24.8088 34.5604 24.8427 34.6954C24.9115 34.9693 24.734 35.2444 24.4463 35.3098C24.1585 35.3753 23.8695 35.2064 23.8007 34.9325C23.6621 34.3808 23.8966 33.9104 24.1602 33.5914C24.4228 33.2736 24.7627 33.0416 25.0051 32.9179C25.2658 32.7847 25.5905 32.8779 25.7304 33.1261Z" fill="black"/>
<path d="M36.4284 35.0691C36.4284 35.8199 35.7888 36.4286 34.9999 36.4286C34.2109 36.4286 33.5713 35.8199 33.5713 35.0691C33.5713 34.3182 34.2109 33.7096 34.9999 33.7096C35.7888 33.7096 36.4284 34.3182 36.4284 35.0691Z" fill="black"/>
<path fill-rule="evenodd" clip-rule="evenodd" d="M35.7304 33.1261C35.8703 33.3742 35.7723 33.6832 35.5116 33.8163C35.3699 33.8887 35.1552 34.0368 35.0024 34.2217C34.8506 34.4054 34.8088 34.5604 34.8427 34.6954C34.9115 34.9693 34.734 35.2444 34.4463 35.3098C34.1585 35.3753 33.8695 35.2064 33.8007 34.9325C33.6621 34.3808 33.8966 33.9104 34.1602 33.5914C34.4228 33.2736 34.7627 33.0416 35.0051 32.9179C35.2658 32.7847 35.5905 32.8779 35.7304 33.1261Z" fill="black"/>
<path fill-rule="evenodd" clip-rule="evenodd" d="M26.0679 40.2038C28.6283 41.0014 31.3708 41.0014 33.9313 40.2038C34.2062 40.1181 34.3515 39.8491 34.2559 39.6028C34.1603 39.3566 33.8599 39.2264 33.585 39.3121C31.2501 40.0395 28.7491 40.0395 26.4142 39.3121C26.1393 39.2264 25.8389 39.3566 25.7433 39.6028C25.6476 39.8491 25.793 40.1181 26.0679 40.2038Z" fill="#A75A00"/>
<path fill-rule="evenodd" clip-rule="evenodd" d="M24.3451 31.2359C23.8322 31.3125 23.4173 31.5788 23.2066 31.7856C23.0095 31.9789 22.6929 31.9759 22.4995 31.7788C22.3061 31.5816 22.3092 31.2651 22.5063 31.0717C22.845 30.7394 23.4466 30.3589 24.1975 30.2469C24.9709 30.1314 25.8705 30.3067 26.7497 31.0459C26.961 31.2237 26.9883 31.5391 26.8106 31.7504C26.6328 31.9618 26.3174 31.989 26.1061 31.8113C25.4468 31.2569 24.8354 31.1627 24.3451 31.2359Z" fill="#905A09"/>
<path fill-rule="evenodd" clip-rule="evenodd" d="M35.059 31.2359C34.5461 31.3125 34.1312 31.5788 33.9205 31.7856C33.7233 31.9789 33.4068 31.9759 33.2134 31.7788C33.02 31.5816 33.023 31.2651 33.2202 31.0717C33.5589 30.7394 34.1605 30.3589 34.9113 30.2469C35.6847 30.1314 36.5844 30.3067 37.4635 31.0459C37.6749 31.2237 37.7022 31.5391 37.5244 31.7504C37.3467 31.9618 37.0313 31.989 36.82 31.8113C36.1607 31.2569 35.5493 31.1627 35.059 31.2359Z" fill="#905A09"/>
<path d="M23.1359 13.2801C28.2894 15.331 31.8074 9.39531 41.0613 16.4128C43.5748 16.106 41.0613 7.17957 44.7463 12.2909C47.6943 16.3799 45.1028 17.4745 43.5394 17.1447C49.7379 21.2667 53.256 34.622 45.7514 33.3956C36.6484 31.9079 40.0555 20.0402 37.7102 23.0081C35.3648 25.9759 16.6058 34.9325 12.7486 33.3956C10.0335 32.3137 10.0335 28.5214 12.7486 27.4599C12.4138 27.0751 10.5696 27.3673 10.0335 24.7292C9.49738 22.0911 15.5413 17.512 18.1101 16.4128C18.1101 13.6099 17.6859 11.1112 23.1359 13.2801Z" fill="black"/>
</svg>
