<svg width="106" height="72" viewBox="0 0 106 72" fill="none" xmlns="http://www.w3.org/2000/svg">
<path d="M86 36C86 55.8823 69.8823 72 50 72C30.1177 72 14 55.8823 14 36C14 16.1177 30.1177 0 50 0C69.8823 0 86 16.1177 86 36Z" fill="#669BFF"/>
<path d="M46.2168 40.7827C46.2168 38.6936 47.9103 37.0001 49.9994 37.0001C52.0885 37.0001 53.782 38.6937 53.782 40.7827V58.6021C53.782 60.6912 52.0885 62.3847 49.9994 62.3847C47.9103 62.3847 46.2168 60.6912 46.2168 58.6021V40.7827Z" fill="#FFD25E"/>
<path d="M58.8017 57.3077C60.9046 57.3077 62.6094 59.0125 62.6094 61.1154C62.6094 63.2184 60.9046 64.9231 58.8017 64.9231L41.1997 64.9231C39.0967 64.9231 37.392 63.2184 37.392 61.1154C37.392 59.0125 39.0967 57.3077 41.1997 57.3077L58.8017 57.3077Z" fill="#FFD25E"/>
<path d="M55.027 49.6921C56.4289 49.6921 57.5654 50.8286 57.5654 52.2306C57.5654 53.6326 56.4289 54.7691 55.027 54.7691L44.9735 54.7691C43.5715 54.7691 42.435 53.6326 42.435 52.2306C42.435 50.8286 43.5715 49.6921 44.9735 49.6921L55.027 49.6921Z" fill="#ED9E27"/>
<path d="M67.6269 62.3846C69.7298 62.3846 71.4346 64.0894 71.4346 66.1923C71.4346 68.2953 69.7298 70 67.6269 70L32.3727 70C30.2698 70 28.565 68.2953 28.565 66.1923C28.565 64.0894 30.2698 62.3846 32.3727 62.3846L67.6269 62.3846Z" fill="#ED9E27"/>
<path fill-rule="evenodd" clip-rule="evenodd" d="M21 20.4998C21 14.892 25.5161 10.3459 31.087 10.3459V15.4229C28.3015 15.4229 26.0435 17.6959 26.0435 20.4998V22.4036C26.0435 25.2075 28.3015 27.4806 31.087 27.4806V32.5575C25.5161 32.5575 21 28.0115 21 22.4036V20.4998Z" fill="#ED9E27"/>
<path fill-rule="evenodd" clip-rule="evenodd" d="M79 20.4998C79 14.892 74.4839 10.3459 68.913 10.3459V15.4229C71.6985 15.4229 73.9565 17.6959 73.9565 20.4998V22.4036C73.9565 25.2075 71.6985 27.4806 68.913 27.4806V32.5575C74.4839 32.5575 79 28.0115 79 22.4036V20.4998Z" fill="#ED9E27"/>
<path d="M29.8262 7.92308C29.8262 5.75643 31.5826 4 33.7492 4H66.2509C68.4176 4 70.174 5.75642 70.174 7.92307V26.9799C70.174 38.1217 61.1418 47.1538 50.0001 47.1538C38.8583 47.1538 29.8262 38.1217 29.8262 26.9799V7.92308Z" fill="#FFD25E"/>
<path d="M38.7997 20.9798L40.7554 30.376C40.8315 30.7419 41.1557 31.0042 41.5315 31.0042H58.4471C58.8329 31.0042 59.1626 30.7282 59.2282 30.3503L60.8613 20.9349C60.9653 20.3352 60.3752 19.8497 59.802 20.0634L55.2938 21.7438C54.9729 21.8635 54.6109 21.7644 54.3967 21.4983L50.5949 16.7746C50.2856 16.3902 49.7014 16.3788 49.3771 16.7508L45.2099 21.5303C44.9929 21.7793 44.643 21.8677 44.3327 21.752L39.854 20.0826C39.2698 19.8648 38.6732 20.3724 38.7997 20.9798Z" fill="#FFBB37"/>
<path d="M40.0936 31.7918C40.0936 31.3567 40.4484 31.0039 40.8862 31.0039H59.1147C59.5525 31.0039 59.9073 31.3567 59.9073 31.7918V34.943C59.9073 35.3781 59.5525 35.7308 59.1147 35.7308H40.8862C40.4484 35.7308 40.0936 35.3781 40.0936 34.943V31.7918Z" fill="#ED9E27"/>
<path d="M40.0936 18.7925C40.0936 19.8802 39.2065 20.762 38.1122 20.762C37.0179 20.762 36.1309 19.8802 36.1309 18.7925C36.1309 17.7047 37.0179 16.8229 38.1122 16.8229C39.2065 16.8229 40.0936 17.7047 40.0936 18.7925Z" fill="#ED9E27"/>
<path d="M51.9818 14.8542C51.9818 15.9419 51.0947 16.8237 50.0004 16.8237C48.9062 16.8237 48.0191 15.9419 48.0191 14.8542C48.0191 13.7664 48.9062 12.8846 50.0004 12.8846C51.0947 12.8846 51.9818 13.7664 51.9818 14.8542Z" fill="#ED9E27"/>
<path d="M63.87 18.7925C63.87 19.8802 62.9829 20.762 61.8886 20.762C60.7943 20.762 59.9073 19.8802 59.9073 18.7925C59.9073 17.7047 60.7943 16.8229 61.8886 16.8229C62.9829 16.8229 63.87 17.7047 63.87 18.7925Z" fill="#ED9E27"/>
<path d="M93.0831 20.2903C93.2263 19.9032 93.7737 19.9032 93.9169 20.2903L97.0311 28.7062C97.0761 28.8279 97.1721 28.9239 97.2938 28.9689L105.71 32.0831C106.097 32.2263 106.097 32.7737 105.71 32.9169L97.2938 36.0311C97.1721 36.0761 97.0761 36.1721 97.0311 36.2938L93.9169 44.7097C93.7737 45.0968 93.2263 45.0968 93.0831 44.7097L89.9689 36.2938C89.9239 36.1721 89.8279 36.0761 89.7062 36.0311L81.2903 32.9169C80.9032 32.7737 80.9032 32.2263 81.2903 32.0831L89.7062 28.9689C89.8279 28.9239 89.9239 28.8279 89.9689 28.7062L93.0831 20.2903Z" fill="#FFED4A"/>
<path d="M8.21649 10.1974C8.31388 9.93421 8.68612 9.9342 8.7835 10.1974L10.9012 15.9202C10.9318 16.003 10.997 16.0682 11.0798 16.0988L16.8026 18.2165C17.0658 18.3139 17.0658 18.6861 16.8026 18.7835L11.0798 20.9012C10.997 20.9318 10.9318 20.997 10.9012 21.0798L8.78351 26.8026C8.68612 27.0658 8.31388 27.0658 8.21649 26.8026L6.09884 21.0798C6.06823 20.997 6.00299 20.9318 5.92025 20.9012L0.197387 18.7835C-0.0657948 18.6861 -0.0657959 18.3139 0.197386 18.2165L5.92025 16.0988C6.00299 16.0682 6.06823 16.003 6.09884 15.9202L8.21649 10.1974Z" fill="#FFED4A"/>
<path d="M80.7665 40.1626C80.8467 39.9458 81.1533 39.9458 81.2335 40.1626L82.9774 44.8755C83.0026 44.9436 83.0564 44.9974 83.1245 45.0226L87.8374 46.7665C88.0542 46.8467 88.0542 47.1533 87.8374 47.2335L83.1245 48.9774C83.0564 49.0026 83.0026 49.0564 82.9774 49.1245L81.2335 53.8374C81.1533 54.0542 80.8467 54.0542 80.7665 53.8374L79.0226 49.1245C78.9974 49.0564 78.9436 49.0026 78.8755 48.9774L74.1626 47.2335C73.9458 47.1533 73.9458 46.8467 74.1626 46.7665L78.8755 45.0226C78.9436 44.9974 78.9974 44.9436 79.0226 44.8755L80.7665 40.1626Z" fill="#FFED4A"/>
</svg>
