<svg width="186" height="201" viewBox="0 0 186 201" fill="none" xmlns="http://www.w3.org/2000/svg">
<path d="M170.058 85.0288C170.058 131.989 131.989 170.058 85.0288 170.058C38.0687 170.058 0 131.989 0 85.0288C0 38.0687 38.0687 0 85.0288 0C131.989 0 170.058 38.0687 170.058 85.0288Z" fill="#F5F8FF"/>
<path d="M34.9307 166.329C34.9307 151.009 47.3498 138.59 62.6697 138.59H105.203C120.523 138.59 132.942 151.009 132.942 166.329V186.671H34.9307V166.329Z" fill="#4C8BFF"/>
<path d="M69.1416 130.268C69.1416 125.162 73.2813 121.022 78.3879 121.022H91.3328C96.4394 121.022 100.579 125.162 100.579 130.268V139.515C100.579 144.621 96.4394 148.761 91.3328 148.761H78.3879C73.2813 148.761 69.1416 144.621 69.1416 139.515V130.268Z" fill="#FFAB48"/>
<path d="M68.263 104.646L64.5765 97.7871C64.1153 96.929 62.8847 96.929 62.4235 97.7871L58.737 104.645C58.2682 105.455 58 106.395 58 107.398C58 110.435 60.4624 112.898 63.5 112.898C66.5376 112.898 69 110.435 69 107.398C69 106.395 68.7317 105.455 68.263 104.646Z" fill="white"/>
<path d="M63.1251 104.101C63.1251 114.905 54.3666 123.664 43.5625 123.664C32.7585 123.664 24 114.905 24 104.101C24 93.297 32.7585 84.5386 43.5625 84.5386C54.3666 84.5386 63.1251 93.297 63.1251 104.101Z" fill="#FF9C27"/>
<path d="M143 104.101C143 114.905 134.242 123.664 123.438 123.664C112.633 123.664 103.875 114.905 103.875 104.101C103.875 93.297 112.633 84.5386 123.438 84.5386C134.242 84.5386 143 93.297 143 104.101Z" fill="#FF9C27"/>
<path d="M132.739 92.7533C132.739 117.682 110.693 137.89 83.4989 137.89C56.3043 137.89 34.2588 117.682 34.2588 92.7533C34.2588 67.825 56.3043 47.6166 83.4989 47.6166C110.693 47.6166 132.739 67.825 132.739 92.7533Z" fill="#FFBA68"/>
<mask id="mask0_306_34779" style="mask-type:alpha" maskUnits="userSpaceOnUse" x="34" y="47" width="99" height="91">
<path d="M132.739 92.7452C132.739 117.673 110.693 137.882 83.4989 137.882C56.3043 137.882 34.2588 117.673 34.2588 92.7452C34.2588 67.8168 56.3043 47.6084 83.4989 47.6084C110.693 47.6084 132.739 67.8168 132.739 92.7452Z" fill="#FFAB49"/>
</mask>
<g mask="url(#mask0_306_34779)">
<path d="M66.4983 115.934C66.4983 126.475 57.8937 135.019 47.2794 135.019C36.6651 135.019 28.0605 126.475 28.0605 115.934C28.0605 105.393 36.6651 96.8485 47.2794 96.8485C57.8937 96.8485 66.4983 105.393 66.4983 115.934Z" fill="#FF9A24"/>
<path d="M138.144 115.934C138.144 126.475 129.539 135.019 118.925 135.019C108.311 135.019 99.7061 126.475 99.7061 115.934C99.7061 105.393 108.311 96.8485 118.925 96.8485C129.539 96.8485 138.144 105.393 138.144 115.934Z" fill="#FF9A24"/>
</g>
<path d="M85.5496 107.107C85.5496 108.24 84.6311 109.159 83.498 109.159C82.3649 109.159 81.4463 108.24 81.4463 107.107C81.4463 105.974 82.3649 105.055 83.498 105.055C84.6311 105.055 85.5496 105.974 85.5496 107.107Z" fill="black"/>
<path d="M73.2399 99.0985C73.2399 101.255 71.4028 103.003 69.1365 103.003C66.8703 103.003 65.0332 101.255 65.0332 99.0985C65.0332 96.9418 66.8703 95.1935 69.1365 95.1935C71.4028 95.1935 73.2399 96.9418 73.2399 99.0985Z" fill="black"/>
<path fill-rule="evenodd" clip-rule="evenodd" d="M71.2349 93.5174C71.6367 94.2301 71.3553 95.1178 70.6065 95.5001C70.1995 95.708 69.5826 96.1334 69.1438 96.6645C68.7078 97.1921 68.5878 97.6372 68.6852 98.0252C68.8828 98.8118 68.373 99.6019 67.5464 99.7899C66.7199 99.978 65.8897 99.4928 65.6921 98.7062C65.294 97.1215 65.9675 95.7704 66.7247 94.854C67.4791 93.9411 68.4552 93.2749 69.1515 92.9194C69.9003 92.537 70.8331 92.8048 71.2349 93.5174Z" fill="black"/>
<path fill-rule="evenodd" clip-rule="evenodd" d="M101.471 95.6208C101.506 96.4382 100.853 97.102 100.012 97.1035C99.5552 97.1043 98.8126 97.204 98.1807 97.4784C97.553 97.7511 97.2442 98.0936 97.1553 98.4836C96.9749 99.2743 96.1624 99.7475 95.3403 99.5406C94.5183 99.3336 93.9982 98.5248 94.1785 97.7341C94.5418 96.141 95.7545 95.2419 96.8449 94.7682C97.9311 94.2964 99.1031 94.1449 99.8848 94.1436C100.726 94.1421 101.436 94.8035 101.471 95.6208Z" fill="black"/>
<path fill-rule="evenodd" clip-rule="evenodd" d="M101.352 101.227C100.804 101.834 99.8724 101.848 99.2726 101.259C98.9465 100.939 98.3477 100.488 97.705 100.24C97.0665 99.9937 96.6062 100.021 96.2691 100.236C95.5855 100.673 94.6747 100.439 94.2345 99.7148C93.7944 98.9903 93.9918 98.0492 94.6753 97.6127C96.0524 96.7332 97.5472 96.9442 98.6562 97.3723C99.7611 97.7988 100.702 98.5137 101.26 99.0615C101.86 99.6507 101.901 100.62 101.352 101.227Z" fill="black"/>
<path fill-rule="evenodd" clip-rule="evenodd" d="M72.2054 113.847C79.5598 116.138 87.4372 116.138 94.7916 113.847C95.5813 113.601 95.9987 112.828 95.7241 112.121C95.4494 111.414 94.5866 111.04 93.797 111.286C87.0903 113.375 79.9067 113.375 73.2 111.286C72.4104 111.04 71.5476 111.414 71.2729 112.121C70.9983 112.828 71.4157 113.601 72.2054 113.847Z" fill="#A75A00"/>
<path fill-rule="evenodd" clip-rule="evenodd" d="M67.257 88.0885C65.7838 88.3084 64.5922 89.0735 63.9868 89.6673C63.4206 90.2228 62.5113 90.214 61.9559 89.6478C61.4004 89.0816 61.4091 88.1723 61.9753 87.6169C62.9482 86.6625 64.6763 85.5696 66.8329 85.2477C69.0544 84.916 71.6384 85.4194 74.1637 87.5429C74.7708 88.0533 74.8491 88.9593 74.3387 89.5664C73.8282 90.1735 72.9222 90.2518 72.3152 89.7413C70.4215 88.149 68.6654 87.8783 67.257 88.0885Z" fill="#905A09"/>
<path fill-rule="evenodd" clip-rule="evenodd" d="M98.0324 88.0885C96.5592 88.3084 95.3676 89.0735 94.7622 89.6673C94.196 90.2228 93.2867 90.214 92.7313 89.6478C92.1758 89.0816 92.1845 88.1723 92.7507 87.6169C93.7236 86.6625 95.4517 85.5696 97.6083 85.2477C99.8298 84.916 102.414 85.4194 104.939 87.5429C105.546 88.0533 105.625 88.9593 105.114 89.5664C104.604 90.1735 103.698 90.2518 103.091 89.7413C101.197 88.149 99.4408 87.8783 98.0324 88.0885Z" fill="#905A09"/>
<path d="M63.7825 36.5132C78.585 42.4041 88.6901 25.3548 115.27 45.5115C122.49 44.6303 115.27 18.9905 125.855 33.6718C134.323 45.4169 126.879 48.5609 122.388 47.6137C140.193 59.4535 150.298 97.8145 128.742 94.2917C102.595 90.0185 112.381 55.9307 105.645 64.4553C98.908 72.98 45.0258 98.7062 33.9467 94.2917C26.1479 91.1842 26.1479 80.2915 33.9467 77.2423C32.9849 76.1373 27.6877 76.9764 26.1479 69.3989C24.6081 61.8214 41.9684 48.6688 49.3467 45.5115C49.3467 37.4604 48.1284 30.2834 63.7825 36.5132Z" fill="black"/>
<path d="M130.306 137.879C132.085 136.087 134.979 136.076 136.771 137.854L156.534 157.466C158.326 159.245 158.337 162.139 156.559 163.931L137.384 183.253C130.189 190.503 118.481 190.548 111.231 183.353C103.982 176.159 103.937 164.451 111.131 157.201L130.306 137.879Z" fill="#337AFF"/>
<path fill-rule="evenodd" clip-rule="evenodd" d="M158.909 106.326C161.299 108.017 161.866 111.324 160.176 113.714L156.937 118.294C158.707 116.887 161.259 116.749 163.198 118.121C165.298 119.606 165.969 122.36 164.907 124.608C166.161 124.445 167.477 124.735 168.591 125.523C170.508 126.878 171.234 129.29 170.539 131.41C171.611 131.391 172.698 131.701 173.64 132.367C175.994 134.032 176.552 137.289 174.887 139.643L165.783 152.516C165.417 153.032 164.975 153.463 164.483 153.802C158.467 161.795 147.144 163.604 138.921 157.788C131.788 152.743 129.288 143.586 132.364 135.807L129.941 122.626C129.337 119.338 131.555 116.57 134.895 116.442C137.94 116.326 140.867 118.445 141.818 121.312L151.521 107.593C153.212 105.203 156.519 104.636 158.909 106.326Z" fill="#FFBA68"/>
<path d="M156.421 119.737L149.28 129.833C148.929 130.329 148.648 130.887 148.64 131.495C148.618 132.995 149.324 135.056 152.288 135.586" stroke="#FF9C27" stroke-width="1.5" stroke-linecap="round"/>
<path d="M168.87 133.498L162.935 141.888C162.512 142.486 162.189 143.164 162.151 143.895C162.058 145.676 162.685 147.608 165.549 147.88" stroke="#FF9C27" stroke-width="1.5" stroke-linecap="round"/>
<path d="M142.202 127.56L143.692 133.488C146.332 135.356 150.784 140.552 147.475 146.401" stroke="#FF9C27" stroke-width="1.5" stroke-linecap="round"/>
<path d="M163.577 125.646L155.927 136.462C155.551 136.994 155.264 137.595 155.236 138.245C155.163 139.942 155.769 142.141 158.614 142.016" stroke="#FF9C27" stroke-width="1.5" stroke-linecap="round"/>
</svg>
