<svg width="255" height="270" viewBox="0 0 255 270" fill="none" xmlns="http://www.w3.org/2000/svg">
<path d="M218.23 157.199C218.23 204.159 180.162 242.228 133.202 242.228C86.2415 242.228 48.1729 204.159 48.1729 157.199C48.1729 110.239 86.2415 72.1705 133.202 72.1705C180.162 72.1705 218.23 110.239 218.23 157.199Z" fill="#F5F8FF"/>
<path d="M83.1035 238.5C83.1035 223.18 95.5227 210.761 110.843 210.761H153.376C168.696 210.761 181.115 223.18 181.115 238.5V258.842H83.1035V238.5Z" fill="#4C8BFF"/>
<path d="M117.314 202.439C117.314 197.332 121.454 193.193 126.561 193.193H139.506C144.612 193.193 148.752 197.332 148.752 202.439V211.685C148.752 216.792 144.612 220.932 139.506 220.932H126.561C121.454 220.932 117.314 216.792 117.314 211.685V202.439Z" fill="#FFAB48"/>
<path d="M58.6006 224.29C57.324 222.079 58.0816 219.251 60.2928 217.975L84.3155 204.105C86.5267 202.828 89.3542 203.586 90.6309 205.797L107.737 235.425C112.843 244.27 109.813 255.58 100.968 260.687C92.1229 265.793 80.813 262.763 75.7064 253.918L58.6006 224.29Z" fill="#337AFF"/>
<path fill-rule="evenodd" clip-rule="evenodd" d="M51.4293 169.708C49.0339 171.091 48.2132 174.154 49.5962 176.549L51.3693 179.62C49.8155 178.474 47.6682 178.285 45.8891 179.312C43.4938 180.695 42.6731 183.758 44.056 186.154L47.7792 192.602C47.3074 192.711 46.8435 192.891 46.4023 193.146C44.007 194.529 43.1863 197.592 44.5692 199.987L52.1333 213.089C52.4368 213.614 52.8212 214.064 53.2616 214.431C58.3046 222.599 68.9633 225.326 77.3321 220.494C84.5918 216.303 87.7871 207.775 85.5352 200.072L89.0117 187.691C89.8787 184.604 88.0037 181.763 84.8236 181.347C81.9245 180.968 78.9417 182.735 77.7803 185.389L69.7189 171.426C68.3146 168.994 65.2044 168.161 62.772 169.565C60.7645 170.724 59.8462 173.045 60.3761 175.188L58.2704 171.541C56.8875 169.146 53.8246 168.325 51.4293 169.708Z" fill="#FFBA68"/>
<path fill-rule="evenodd" clip-rule="evenodd" d="M50.5143 194.046C50.846 193.855 51.2702 193.968 51.4617 194.3L56.4113 202.873C56.7859 203.522 57.087 204.304 57.0582 205.158C57.0266 206.096 56.8031 207.153 56.1248 207.987C55.4233 208.85 54.3226 209.369 52.7676 209.374C52.3846 209.375 52.0733 209.065 52.0723 208.682C52.0713 208.299 52.381 207.988 52.764 207.987C53.9903 207.983 54.6603 207.59 55.0486 207.112C55.4602 206.606 55.6457 205.894 55.6721 205.111C55.6889 204.611 55.5128 204.091 55.2102 203.567L50.2605 194.993C50.069 194.662 50.1827 194.238 50.5143 194.046Z" fill="#FF9C27"/>
<path fill-rule="evenodd" clip-rule="evenodd" d="M77.0924 190.671C77.4537 190.798 77.6435 191.194 77.5165 191.555L75.4852 197.33L75.263 197.458C74.001 198.187 72.2514 199.637 71.142 201.58C70.0481 203.496 69.5797 205.874 70.796 208.576C70.9532 208.925 70.7975 209.336 70.4483 209.493C70.099 209.65 69.6885 209.495 69.5313 209.145C68.1009 205.968 68.6654 203.12 69.9376 200.892C71.1298 198.805 72.9456 197.247 74.3455 196.39L76.2081 191.095C76.3352 190.734 76.7311 190.544 77.0924 190.671Z" fill="#FF9C27"/>
<path fill-rule="evenodd" clip-rule="evenodd" d="M62.1816 178.714C62.5133 178.523 62.9374 178.636 63.1289 178.968L69.6014 190.179C69.7929 190.51 69.6792 190.935 69.3475 191.126C69.0158 191.318 68.5917 191.204 68.4002 190.872L61.9278 179.662C61.7363 179.33 61.8499 178.906 62.1816 178.714Z" fill="#FF9C27"/>
<path fill-rule="evenodd" clip-rule="evenodd" d="M54.6367 184.138C54.9684 183.947 55.3925 184.06 55.584 184.392L62.0564 195.603C62.2479 195.934 62.1343 196.358 61.8026 196.55C61.4709 196.741 61.0468 196.628 60.8553 196.296L54.3829 185.086C54.1914 184.754 54.305 184.33 54.6367 184.138Z" fill="#FF9C27"/>
<path fill-rule="evenodd" clip-rule="evenodd" d="M58.7304 201.129C58.753 201.073 58.7935 200.985 58.8579 200.865C59.0111 200.579 59.2647 200.172 59.6184 199.68C60.3242 198.699 61.4024 197.416 62.8086 196.127C65.6279 193.543 69.7048 190.988 74.6945 190.706C75.0769 190.685 75.3694 190.357 75.3477 189.975C75.3261 189.592 74.9986 189.3 74.6162 189.322C69.1925 189.628 64.8255 192.397 61.8715 195.105C60.3911 196.462 59.2503 197.817 58.4925 198.87C58.1144 199.396 57.8251 199.856 57.6351 200.21C57.5415 200.385 57.4627 200.552 57.411 200.698C57.3858 200.769 57.3585 200.859 57.3448 200.955C57.3364 201.014 57.3037 201.243 57.437 201.472C57.6292 201.803 58.0536 201.916 58.3848 201.724C58.6048 201.596 58.7285 201.366 58.7304 201.129Z" fill="#FF9C27"/>
<path d="M207.745 224.29C209.022 222.079 208.264 219.251 206.053 217.975L182.03 204.105C179.819 202.828 176.991 203.586 175.715 205.797L158.609 235.425C153.503 244.27 156.533 255.58 165.378 260.687C174.223 265.793 185.533 262.763 190.639 253.918L207.745 224.29Z" fill="#337AFF"/>
<path fill-rule="evenodd" clip-rule="evenodd" d="M214.916 169.708C217.312 171.091 218.132 174.154 216.75 176.549L214.976 179.62C216.53 178.474 218.678 178.285 220.457 179.312C222.852 180.695 223.673 183.758 222.29 186.154L218.566 192.602C219.038 192.711 219.502 192.891 219.943 193.146C222.339 194.529 223.159 197.592 221.776 199.987L214.212 213.089C213.909 213.614 213.525 214.064 213.084 214.431C208.041 222.599 197.382 225.326 189.014 220.494C181.754 216.303 178.559 207.775 180.81 200.072L177.334 187.691C176.467 184.604 178.342 181.763 181.522 181.347C184.421 180.968 187.404 182.735 188.565 185.389L196.627 171.426C198.031 168.994 201.141 168.161 203.574 169.565C205.581 170.724 206.5 173.045 205.97 175.188L208.075 171.541C209.458 169.146 212.521 168.325 214.916 169.708Z" fill="#FFBA68"/>
<path fill-rule="evenodd" clip-rule="evenodd" d="M215.831 194.046C215.5 193.855 215.076 193.968 214.884 194.3L209.934 202.873C209.56 203.522 209.259 204.304 209.287 205.158C209.319 206.096 209.543 207.153 210.221 207.987C210.922 208.85 212.023 209.369 213.578 209.374C213.961 209.375 214.272 209.065 214.273 208.682C214.274 208.299 213.965 207.988 213.582 207.987C212.355 207.983 211.685 207.59 211.297 207.112C210.886 206.606 210.7 205.894 210.674 205.111C210.657 204.611 210.833 204.091 211.135 203.567L216.085 194.993C216.277 194.662 216.163 194.238 215.831 194.046Z" fill="#FF9C27"/>
<path fill-rule="evenodd" clip-rule="evenodd" d="M189.253 190.671C188.892 190.798 188.702 191.194 188.829 191.555L190.86 197.33L191.083 197.458C192.345 198.187 194.094 199.637 195.204 201.58C196.298 203.496 196.766 205.874 195.55 208.576C195.393 208.925 195.548 209.336 195.897 209.493C196.247 209.65 196.657 209.495 196.814 209.145C198.245 205.968 197.68 203.12 196.408 200.892C195.216 198.805 193.4 197.247 192 196.39L190.138 191.095C190.011 190.734 189.615 190.544 189.253 190.671Z" fill="#FF9C27"/>
<path fill-rule="evenodd" clip-rule="evenodd" d="M204.164 178.714C203.832 178.523 203.408 178.636 203.217 178.968L196.744 190.179C196.553 190.51 196.666 190.935 196.998 191.126C197.33 191.318 197.754 191.204 197.945 190.872L204.418 179.662C204.609 179.33 204.496 178.906 204.164 178.714Z" fill="#FF9C27"/>
<path fill-rule="evenodd" clip-rule="evenodd" d="M211.709 184.138C211.377 183.947 210.953 184.06 210.762 184.392L204.289 195.603C204.098 195.934 204.211 196.358 204.543 196.55C204.875 196.741 205.299 196.628 205.49 196.296L211.963 185.086C212.154 184.754 212.041 184.33 211.709 184.138Z" fill="#FF9C27"/>
<path fill-rule="evenodd" clip-rule="evenodd" d="M207.615 201.129C207.593 201.073 207.552 200.985 207.488 200.865C207.335 200.579 207.081 200.172 206.727 199.68C206.021 198.699 204.943 197.416 203.537 196.127C200.718 193.543 196.641 190.988 191.651 190.706C191.269 190.685 190.976 190.357 190.998 189.975C191.02 189.592 191.347 189.3 191.729 189.322C197.153 189.628 201.52 192.397 204.474 195.105C205.955 196.462 207.095 197.817 207.853 198.87C208.231 199.396 208.521 199.856 208.711 200.21C208.804 200.385 208.883 200.552 208.935 200.698C208.96 200.769 208.987 200.859 209.001 200.955C209.009 201.014 209.042 201.243 208.909 201.472C208.717 201.803 208.292 201.916 207.961 201.724C207.741 201.596 207.617 201.366 207.615 201.129Z" fill="#FF9C27"/>
<path d="M36.2744 70.2577L40.0951 61.7498C40.7136 60.3725 42.5769 60.151 43.5011 61.3449L45.5373 63.9753C45.8419 64.3687 45.9889 64.8616 45.9496 65.3575L45.3442 72.9988C45.2414 74.2959 43.9471 75.1511 42.7137 74.7368L37.4621 72.9729C36.3417 72.5966 35.7902 71.3359 36.2744 70.2577Z" fill="#337AFF"/>
<path d="M251.215 135.931L242.627 132.294C241.237 131.705 239.72 132.81 239.855 134.314L240.152 137.627C240.196 138.123 240.424 138.584 240.79 138.921L246.432 144.11C247.39 144.991 248.92 144.737 249.542 143.594L252.192 138.729C252.757 137.691 252.303 136.392 251.215 135.931Z" fill="#337AFF"/>
<path d="M63.2931 115.754L57.85 113.449C56.4597 112.86 54.9434 113.965 55.0781 115.469L55.2226 117.081C55.267 117.577 55.4945 118.038 55.8607 118.375L59.6424 121.853C60.6001 122.734 62.1305 122.48 62.7528 121.337L64.2696 118.552C64.8348 117.514 64.3814 116.215 63.2931 115.754Z" fill="#FF8484"/>
<path d="M185.215 6.93109L176.627 3.2941C175.237 2.70531 173.72 3.81042 173.855 5.31424L174.152 8.62745C174.196 9.123 174.424 9.5842 174.79 9.92101L180.432 15.1101C181.39 15.9909 182.92 15.7372 183.542 14.5945L186.192 9.72921C186.757 8.69119 186.303 7.39201 185.215 6.93109Z" fill="#FFDA55"/>
<path d="M3.22779 157.482L12.0677 154.51C13.4988 154.028 14.9267 155.246 14.6779 156.735L14.1296 160.016C14.0476 160.507 13.7856 160.949 13.3949 161.257L7.37437 166.002C6.35242 166.807 4.84572 166.438 4.31228 165.251L2.04106 160.198C1.55648 159.12 2.10748 157.859 3.22779 157.482Z" fill="#FFDA55"/>
<path d="M167.173 26.895V23.9321C167.173 23.1887 167.955 22.7052 168.62 23.0376L172.077 24.766C172.865 25.1599 172.795 26.306 171.966 26.6022L168.509 27.8368C167.858 28.0694 167.173 27.5866 167.173 26.895Z" fill="#FF8484"/>
<path d="M18.2734 144.895V141.932C18.2734 141.189 19.0558 140.705 19.7207 141.038L23.1774 142.766C23.9651 143.16 23.8959 144.306 23.0666 144.602L19.6098 145.837C18.9585 146.069 18.2734 145.587 18.2734 144.895Z" fill="#337AFF"/>
<path d="M244.332 75.5224L252.129 76.6528C252.877 76.7612 253.239 77.6275 252.791 78.2357L247.009 86.0825C246.501 86.7727 245.416 86.5449 245.228 85.7084L243.213 76.7312C243.059 76.0474 243.638 75.4219 244.332 75.5224Z" fill="#FF8484"/>
<path d="M191.265 99.6061L197.191 94.4138C197.759 93.916 198.653 94.2037 198.824 94.9395L201.032 104.433C201.226 105.268 200.348 105.944 199.59 105.543L191.457 101.242C190.837 100.915 190.738 100.068 191.265 99.6061Z" fill="#337AFF"/>
<path d="M111.298 176.272C111.298 187.076 102.539 195.834 91.7354 195.834C80.9313 195.834 72.1729 187.076 72.1729 176.272C72.1729 165.468 80.9313 156.709 91.7354 156.709C102.539 156.709 111.298 165.468 111.298 176.272Z" fill="#FF9C27"/>
<path d="M191.173 176.272C191.173 187.076 182.414 195.834 171.61 195.834C160.806 195.834 152.048 187.076 152.048 176.272C152.048 165.468 160.806 156.709 171.61 156.709C182.414 156.709 191.173 165.468 191.173 176.272Z" fill="#FF9C27"/>
<path d="M180.912 164.924C180.912 189.852 158.866 210.061 131.672 210.061C104.477 210.061 82.4316 189.852 82.4316 164.924C82.4316 139.996 104.477 119.787 131.672 119.787C158.866 119.787 180.912 139.996 180.912 164.924Z" fill="#FFBA68"/>
<mask id="mask0_127_39006" style="mask-type:alpha" maskUnits="userSpaceOnUse" x="82" y="119" width="99" height="92">
<path d="M180.912 164.916C180.912 189.844 158.866 210.052 131.672 210.052C104.477 210.052 82.4316 189.844 82.4316 164.916C82.4316 139.987 104.477 119.779 131.672 119.779C158.866 119.779 180.912 139.987 180.912 164.916Z" fill="#FFAB49"/>
</mask>
<g mask="url(#mask0_127_39006)">
<path d="M114.671 188.104C114.671 198.645 106.067 207.19 95.4523 207.19C84.838 207.19 76.2334 198.645 76.2334 188.104C76.2334 177.564 84.838 169.019 95.4523 169.019C106.067 169.019 114.671 177.564 114.671 188.104Z" fill="#FF9A24"/>
<path d="M186.317 188.104C186.317 198.645 177.712 207.19 167.098 207.19C156.483 207.19 147.879 198.645 147.879 188.104C147.879 177.564 156.483 169.019 167.098 169.019C177.712 169.019 186.317 177.564 186.317 188.104Z" fill="#FF9A24"/>
</g>
<path d="M133.722 179.277C133.722 180.41 132.804 181.329 131.671 181.329C130.538 181.329 129.619 180.41 129.619 179.277C129.619 178.144 130.538 177.226 131.671 177.226C132.804 177.226 133.722 178.144 133.722 179.277Z" fill="black"/>
<path d="M121.413 171.269C121.413 173.426 119.576 175.174 117.309 175.174C115.043 175.174 113.206 173.426 113.206 171.269C113.206 169.112 115.043 167.364 117.309 167.364C119.576 167.364 121.413 169.112 121.413 171.269Z" fill="black"/>
<path fill-rule="evenodd" clip-rule="evenodd" d="M119.408 165.688C119.81 166.401 119.528 167.288 118.779 167.671C118.372 167.879 117.755 168.304 117.317 168.835C116.881 169.363 116.761 169.808 116.858 170.196C117.056 170.982 116.546 171.772 115.719 171.96C114.893 172.149 114.063 171.663 113.865 170.877C113.467 169.292 114.14 167.941 114.898 167.025C115.652 166.112 116.628 165.445 117.324 165.09C118.073 164.708 119.006 164.975 119.408 165.688Z" fill="black"/>
<path d="M150.136 171.269C150.136 173.426 148.299 175.174 146.033 175.174C143.767 175.174 141.93 173.426 141.93 171.269C141.93 169.112 143.767 167.364 146.033 167.364C148.299 167.364 150.136 169.112 150.136 171.269Z" fill="black"/>
<path fill-rule="evenodd" clip-rule="evenodd" d="M148.131 165.688C148.533 166.4 148.252 167.288 147.503 167.671C147.096 167.878 146.479 168.304 146.04 168.835C145.604 169.362 145.484 169.808 145.582 170.196C145.779 170.982 145.269 171.772 144.443 171.96C143.616 172.148 142.786 171.663 142.589 170.877C142.19 169.292 142.864 167.941 143.621 167.024C144.376 166.112 145.352 165.445 146.048 165.09C146.797 164.707 147.73 164.975 148.131 165.688Z" fill="black"/>
<path fill-rule="evenodd" clip-rule="evenodd" d="M115.43 160.259C113.957 160.479 112.765 161.244 112.16 161.838C111.593 162.393 110.684 162.384 110.129 161.818C109.573 161.252 109.582 160.343 110.148 159.787C111.121 158.833 112.849 157.74 115.006 157.418C117.227 157.086 119.811 157.59 122.337 159.713C122.944 160.224 123.022 161.13 122.512 161.737C122.001 162.344 121.095 162.422 120.488 161.912C118.594 160.319 116.838 160.049 115.43 160.259Z" fill="#905A09"/>
<path fill-rule="evenodd" clip-rule="evenodd" d="M146.205 160.259C144.732 160.479 143.54 161.244 142.935 161.838C142.369 162.393 141.46 162.384 140.904 161.818C140.349 161.252 140.357 160.343 140.924 159.787C141.896 158.833 143.625 157.74 145.781 157.418C148.003 157.086 150.587 157.59 153.112 159.713C153.719 160.224 153.797 161.13 153.287 161.737C152.776 162.344 151.87 162.422 151.263 161.912C149.37 160.319 147.614 160.049 146.205 160.259Z" fill="#905A09"/>
<path d="M123.541 191.385C122.89 190.819 122.324 190.191 121.853 189.519C120.092 187.006 122.66 184.314 125.728 184.314L137.617 184.314C140.685 184.314 143.254 187.006 141.493 189.519C141.021 190.191 140.456 190.819 139.804 191.385C137.648 193.261 134.723 194.314 131.673 194.314C128.623 194.314 125.698 193.261 123.541 191.385Z" fill="#E16037"/>
<path d="M111.955 108.684C126.758 114.575 136.863 97.5253 163.443 117.682C170.663 116.801 163.443 91.161 174.028 105.842C182.495 117.587 175.052 120.731 170.561 119.784C188.365 131.624 198.471 169.985 176.915 166.462C150.768 162.189 160.554 128.101 153.818 136.626C147.081 145.151 93.1987 170.877 82.1196 166.462C74.3207 163.355 74.3207 152.462 82.1196 149.413C81.1578 148.308 75.8606 149.147 74.3207 141.569C72.7809 133.992 90.1412 120.839 97.5195 117.682C97.5195 109.631 96.3012 102.454 111.955 108.684Z" fill="black"/>
<path d="M128.202 70.3284C129.969 66.3927 135.557 66.3927 137.324 70.3284L159.909 120.623C161.395 123.931 158.974 127.671 155.348 127.671H110.179C106.552 127.671 104.132 123.931 105.617 120.623L128.202 70.3284Z" fill="#FF8484"/>
<path d="M126.043 56.3349C125.64 54.4398 127.897 53.1364 129.337 54.4328L132.322 57.1202C132.966 57.7 133.91 57.7992 134.66 57.3659L138.138 55.3578C139.816 54.3891 141.753 56.1334 140.965 57.9034L139.332 61.5724C138.979 62.3639 139.177 63.2924 139.821 63.8721L142.805 66.5595C144.245 67.8559 143.185 70.2374 141.258 70.0348L137.264 69.615C136.402 69.5245 135.58 69.9991 135.228 70.7906L133.594 74.4596C132.806 76.2296 130.213 75.9571 129.811 74.062L128.976 70.1335C128.795 69.286 128.09 68.6508 127.228 68.5603L123.234 68.1405C121.307 67.9379 120.765 65.3881 122.443 64.4194L125.921 62.4113C126.672 61.978 127.058 61.1109 126.878 60.2634L126.043 56.3349Z" fill="#FFDA55"/>
</svg>
