<svg width="197" height="229" viewBox="0 0 197 229" fill="none" xmlns="http://www.w3.org/2000/svg">
<path d="M196.058 99.8853C196.058 146.845 157.989 184.914 111.029 184.914C64.0687 184.914 26 146.845 26 99.8853C26 52.9251 64.0687 14.8564 111.029 14.8564C157.989 14.8564 196.058 52.9251 196.058 99.8853Z" fill="#F5F8FF"/>
<path d="M60.9307 181.185C60.9307 165.865 73.3498 153.446 88.6697 153.446H131.203C146.523 153.446 158.942 165.865 158.942 181.185V201.527H60.9307V181.185Z" fill="#4C8BFF"/>
<path d="M95.1416 145.125C95.1416 140.018 99.2813 135.878 104.388 135.878H117.333C122.439 135.878 126.579 140.018 126.579 145.125V154.371C126.579 159.478 122.439 163.617 117.333 163.617H104.388C99.2813 163.617 95.1416 159.478 95.1416 154.371V145.125Z" fill="#FFAB48"/>
<path fill-rule="evenodd" clip-rule="evenodd" d="M11.2266 0C5.0263 0 0 5.0263 0 11.2266V26.7734C0 32.9737 5.0263 38 11.2266 38H49.3326C51.5788 40.4927 54.9893 42.9716 60.0077 44.7355C60.3831 44.8674 60.6991 44.222 60.3967 43.9633C58.7287 42.5368 57.0574 40.483 56.4825 38H74.7734C80.9737 38 86 32.9737 86 26.7734V11.2266C86 5.0263 80.9737 0 74.7734 0H11.2266Z" fill="#337AFF"/>
<path d="M23.5083 24.2001C22.4149 24.2001 21.3683 24.0467 20.3683 23.74C19.3683 23.42 18.5749 23.0134 17.9883 22.5201L18.8883 20.5C19.4483 20.9401 20.1416 21.3067 20.9683 21.6C21.7949 21.8934 22.6416 22.04 23.5083 22.04C24.2416 22.04 24.8349 21.96 25.2883 21.8C25.7416 21.64 26.0749 21.4267 26.2883 21.16C26.5016 20.88 26.6083 20.5667 26.6083 20.22C26.6083 19.7934 26.4549 19.4534 26.1483 19.2C25.8416 18.9334 25.4416 18.7267 24.9483 18.58C24.4683 18.42 23.9283 18.2734 23.3283 18.14C22.7416 18.0067 22.1483 17.8534 21.5483 17.68C20.9616 17.4934 20.4216 17.26 19.9283 16.98C19.4483 16.6867 19.0549 16.3 18.7483 15.82C18.4416 15.34 18.2883 14.7267 18.2883 13.98C18.2883 13.22 18.4883 12.5267 18.8883 11.9C19.3016 11.26 19.9216 10.7534 20.7483 10.38C21.5883 9.99338 22.6483 9.80005 23.9283 9.80005C24.7683 9.80005 25.6016 9.90672 26.4283 10.12C27.2549 10.3334 27.9749 10.64 28.5883 11.04L27.7683 13.06C27.1416 12.6867 26.4949 12.4134 25.8283 12.24C25.1616 12.0534 24.5216 11.96 23.9083 11.96C23.1883 11.96 22.6016 12.0467 22.1483 12.22C21.7083 12.3934 21.3816 12.62 21.1683 12.9C20.9683 13.18 20.8683 13.5 20.8683 13.86C20.8683 14.2867 21.0149 14.6334 21.3083 14.9C21.6149 15.1534 22.0083 15.3534 22.4883 15.5C22.9816 15.6467 23.5283 15.7934 24.1283 15.94C24.7283 16.0734 25.3216 16.2267 25.9083 16.4C26.5083 16.5734 27.0483 16.8 27.5283 17.08C28.0216 17.36 28.4149 17.74 28.7083 18.22C29.0149 18.7 29.1683 19.3067 29.1683 20.04C29.1683 20.7867 28.9616 21.4801 28.5483 22.1201C28.1483 22.7467 27.5283 23.2534 26.6883 23.64C25.8483 24.0134 24.7883 24.2001 23.5083 24.2001Z" fill="white"/>
<path d="M35.9064 24.14C34.8131 24.14 33.8397 23.9067 32.9864 23.4401C32.1331 22.9601 31.4597 22.3067 30.9664 21.48C30.4731 20.6534 30.2264 19.7134 30.2264 18.66C30.2264 17.5934 30.4731 16.6534 30.9664 15.84C31.4597 15.0134 32.1331 14.3667 32.9864 13.9C33.8397 13.4334 34.8131 13.2 35.9064 13.2C37.0131 13.2 37.9931 13.4334 38.8464 13.9C39.7131 14.3667 40.3864 15.0067 40.8664 15.82C41.3597 16.6334 41.6064 17.58 41.6064 18.66C41.6064 19.7134 41.3597 20.6534 40.8664 21.48C40.3864 22.3067 39.7131 22.9601 38.8464 23.4401C37.9931 23.9067 37.0131 24.14 35.9064 24.14ZM35.9064 22C36.5197 22 37.0664 21.8667 37.5464 21.6C38.0264 21.3334 38.3997 20.9467 38.6664 20.44C38.9464 19.9334 39.0864 19.34 39.0864 18.66C39.0864 17.9667 38.9464 17.3734 38.6664 16.88C38.3997 16.3734 38.0264 15.9867 37.5464 15.72C37.0664 15.4534 36.5264 15.32 35.9264 15.32C35.3131 15.32 34.7664 15.4534 34.2864 15.72C33.8197 15.9867 33.4464 16.3734 33.1664 16.88C32.8864 17.3734 32.7464 17.9667 32.7464 18.66C32.7464 19.34 32.8864 19.9334 33.1664 20.44C33.4464 20.9467 33.8197 21.3334 34.2864 21.6C34.7664 21.8667 35.3064 22 35.9064 22Z" fill="white"/>
<path d="M43.597 24V13.32H45.977V16.26L45.697 15.4C46.017 14.68 46.517 14.1334 47.197 13.76C47.8904 13.3867 48.7504 13.2 49.777 13.2V15.58C49.6704 15.5534 49.5704 15.54 49.477 15.54C49.3837 15.5267 49.2904 15.52 49.197 15.52C48.2504 15.52 47.497 15.8 46.937 16.36C46.377 16.9067 46.097 17.7267 46.097 18.82V24H43.597Z" fill="white"/>
<path d="M51.4978 24V13.32H53.8778V16.26L53.5978 15.4C53.9178 14.68 54.4178 14.1334 55.0978 13.76C55.7911 13.3867 56.6511 13.2 57.6778 13.2V15.58C57.5711 15.5534 57.4711 15.54 57.3778 15.54C57.2845 15.5267 57.1911 15.52 57.0978 15.52C56.1511 15.52 55.3978 15.8 54.8378 16.36C54.2778 16.9067 53.9978 17.7267 53.9978 18.82V24H51.4978Z" fill="white"/>
<path d="M60.6692 28.0201C60.1492 28.0201 59.6292 27.9334 59.1092 27.76C58.5892 27.5867 58.1559 27.3467 57.8092 27.0401L58.8092 25.2001C59.0626 25.4267 59.3492 25.6067 59.6692 25.74C59.9892 25.8734 60.3159 25.9401 60.6492 25.9401C61.1026 25.9401 61.4692 25.8267 61.7492 25.6C62.0292 25.3734 62.2892 24.9934 62.5292 24.46L63.1492 23.06L63.3492 22.76L67.3892 13.32H69.7892L64.7892 24.8601C64.4559 25.6601 64.0826 26.2934 63.6692 26.76C63.2692 27.2267 62.8159 27.5534 62.3092 27.74C61.8159 27.9267 61.2692 28.0201 60.6692 28.0201ZM62.8692 24.38L58.0492 13.32H60.6492L64.5692 22.54L62.8692 24.38Z" fill="white"/>
<path d="M94.263 119.502L90.5765 112.644C90.1153 111.785 88.8847 111.785 88.4235 112.644L84.737 119.502C84.2682 120.311 84 121.251 84 122.254C84 125.292 86.4624 127.754 89.5 127.754C92.5376 127.754 95 125.292 95 122.254C95 121.251 94.7317 120.311 94.263 119.502Z" fill="white"/>
<path d="M89.1251 118.958C89.1251 129.762 80.3666 138.52 69.5625 138.52C58.7585 138.52 50 129.762 50 118.958C50 108.153 58.7585 99.395 69.5625 99.395C80.3666 99.395 89.1251 108.153 89.1251 118.958Z" fill="#FF9C27"/>
<path d="M169 118.958C169 129.762 160.242 138.52 149.438 138.52C138.633 138.52 129.875 129.762 129.875 118.958C129.875 108.153 138.633 99.395 149.438 99.395C160.242 99.395 169 108.153 169 118.958Z" fill="#FF9C27"/>
<path d="M158.739 107.61C158.739 132.538 136.693 152.747 109.499 152.747C82.3043 152.747 60.2588 132.538 60.2588 107.61C60.2588 82.6814 82.3043 62.473 109.499 62.473C136.693 62.473 158.739 82.6814 158.739 107.61Z" fill="#FFBA68"/>
<mask id="mask0_127_39005" style="mask-type:alpha" maskUnits="userSpaceOnUse" x="60" y="62" width="99" height="91">
<path d="M158.739 107.602C158.739 132.53 136.693 152.738 109.499 152.738C82.3043 152.738 60.2588 132.53 60.2588 107.602C60.2588 82.6733 82.3043 62.4648 109.499 62.4648C136.693 62.4648 158.739 82.6733 158.739 107.602Z" fill="#FFAB49"/>
</mask>
<g mask="url(#mask0_127_39005)">
<path d="M92.4983 130.79C92.4983 141.331 83.8937 149.876 73.2794 149.876C62.6651 149.876 54.0605 141.331 54.0605 130.79C54.0605 120.25 62.6651 111.705 73.2794 111.705C83.8937 111.705 92.4983 120.25 92.4983 130.79Z" fill="#FF9A24"/>
<path d="M164.144 130.79C164.144 141.331 155.539 149.876 144.925 149.876C134.311 149.876 125.706 141.331 125.706 130.79C125.706 120.25 134.311 111.705 144.925 111.705C155.539 111.705 164.144 120.25 164.144 130.79Z" fill="#FF9A24"/>
</g>
<path d="M111.55 121.963C111.55 123.096 110.631 124.015 109.498 124.015C108.365 124.015 107.446 123.096 107.446 121.963C107.446 120.83 108.365 119.912 109.498 119.912C110.631 119.912 111.55 120.83 111.55 121.963Z" fill="black"/>
<path d="M99.2399 113.955C99.2399 116.112 97.4028 117.86 95.1365 117.86C92.8703 117.86 91.0332 116.112 91.0332 113.955C91.0332 111.798 92.8703 110.05 95.1365 110.05C97.4028 110.05 99.2399 111.798 99.2399 113.955Z" fill="black"/>
<path fill-rule="evenodd" clip-rule="evenodd" d="M97.2349 108.374C97.6367 109.087 97.3553 109.974 96.6065 110.357C96.1995 110.564 95.5826 110.99 95.1438 111.521C94.7078 112.049 94.5878 112.494 94.6852 112.882C94.8828 113.668 94.373 114.458 93.5464 114.646C92.7199 114.834 91.8897 114.349 91.6921 113.563C91.294 111.978 91.9675 110.627 92.7247 109.71C93.4791 108.798 94.4552 108.131 95.1515 107.776C95.9003 107.393 96.8331 107.661 97.2349 108.374Z" fill="black"/>
<path d="M127.964 113.955C127.964 116.111 126.126 117.86 123.86 117.86C121.594 117.86 119.757 116.111 119.757 113.955C119.757 111.798 121.594 110.05 123.86 110.05C126.126 110.05 127.964 111.798 127.964 113.955Z" fill="black"/>
<path fill-rule="evenodd" clip-rule="evenodd" d="M125.959 108.374C126.36 109.086 126.079 109.974 125.33 110.356C124.923 110.564 124.306 110.99 123.867 111.521C123.431 112.048 123.311 112.494 123.409 112.882C123.606 113.668 123.097 114.458 122.27 114.646C121.444 114.834 120.613 114.349 120.416 113.563C120.018 111.978 120.691 110.627 121.448 109.71C122.203 108.797 123.179 108.131 123.875 107.776C124.624 107.393 125.557 107.661 125.959 108.374Z" fill="black"/>
<path fill-rule="evenodd" clip-rule="evenodd" d="M98.2054 127.785C105.56 125.494 113.437 125.494 120.792 127.785C121.581 128.031 121.999 128.804 121.724 129.511C121.449 130.218 120.587 130.592 119.797 130.346C113.09 128.257 105.907 128.257 99.2 130.346C98.4104 130.592 97.5476 130.218 97.2729 129.511C96.9983 128.804 97.4157 128.031 98.2054 127.785Z" fill="#A75A00"/>
<path fill-rule="evenodd" clip-rule="evenodd" d="M93.257 102C91.7838 101.78 90.5922 101.015 89.9868 100.422C89.4206 99.8661 88.5113 99.8748 87.9559 100.441C87.4004 101.007 87.4091 101.917 87.9753 102.472C88.9482 103.426 90.6763 104.519 92.8329 104.841C95.0544 105.173 97.6384 104.669 100.164 102.546C100.771 102.036 100.849 101.13 100.339 100.522C99.8282 99.9154 98.9222 99.8371 98.3152 100.348C96.4215 101.94 94.6654 102.211 93.257 102Z" fill="#905A09"/>
<path fill-rule="evenodd" clip-rule="evenodd" d="M124.032 102C122.559 101.78 121.368 101.015 120.762 100.422C120.196 99.8661 119.287 99.8748 118.731 100.441C118.176 101.007 118.185 101.917 118.751 102.472C119.724 103.426 121.452 104.519 123.608 104.841C125.83 105.173 128.414 104.669 130.939 102.546C131.546 102.036 131.625 101.13 131.114 100.522C130.604 99.9154 129.698 99.8371 129.091 100.348C127.197 101.94 125.441 102.211 124.032 102Z" fill="#905A09"/>
<path d="M89.7825 51.3697C104.585 57.2606 114.69 40.2113 141.27 60.3679C148.49 59.4867 141.27 33.8469 151.855 48.5283C160.323 60.2734 152.879 63.4173 148.388 62.4701C166.193 74.3099 176.298 112.671 154.742 109.148C128.595 104.875 138.381 70.7871 131.645 79.3118C124.908 87.8364 71.0258 113.563 59.9467 109.148C52.1479 106.041 52.1479 95.148 59.9467 92.0988C58.9849 90.9937 53.6877 91.8328 52.1479 84.2554C50.6081 76.6779 67.9684 63.5253 75.3467 60.3679C75.3467 52.3169 74.1284 45.1398 89.7825 51.3697Z" fill="black"/>
<path d="M116.756 188.567C114.645 187.18 114.058 184.346 115.444 182.236L130.729 158.964C132.115 156.854 134.949 156.267 137.06 157.653L159.813 172.597C168.349 178.204 170.724 189.669 165.118 198.206C159.511 206.742 148.045 209.117 139.509 203.511L116.756 188.567Z" fill="#337AFF"/>
<g filter="url(#filter0_d_127_39005)">
<path fill-rule="evenodd" clip-rule="evenodd" d="M85.8647 143.057C84.3463 145.369 84.9895 148.474 87.3013 149.992L90.2654 151.939C88.3622 151.613 86.3592 152.409 85.2314 154.127C83.7131 156.438 84.3563 159.543 86.6681 161.062L92.8921 165.15C92.5196 165.459 92.1861 165.828 91.9064 166.254C90.388 168.566 91.0312 171.671 93.343 173.189L105.988 181.494C106.495 181.828 107.041 182.057 107.599 182.187C115.775 187.217 126.522 184.864 131.827 176.787C136.429 169.78 135.451 160.726 129.978 154.856L127.52 142.234C126.907 139.086 123.956 137.391 120.928 138.448C118.167 139.412 116.297 142.331 116.452 145.224L102.976 136.373C100.628 134.832 97.4754 135.485 95.9335 137.832C94.661 139.77 94.8836 142.256 96.32 143.932L92.7999 141.62C90.4881 140.102 87.3831 140.745 85.8647 143.057Z" fill="#FEB35A"/>
</g>
<defs>
<filter id="filter0_d_127_39005" x="84.4092" y="135.538" width="58.3457" height="57.2888" filterUnits="userSpaceOnUse" color-interpolation-filters="sRGB">
<feFlood flood-opacity="0" result="BackgroundImageFix"/>
<feColorMatrix in="SourceAlpha" type="matrix" values="0 0 0 0 0 0 0 0 0 0 0 0 0 0 0 0 0 0 127 0" result="hardAlpha"/>
<feOffset dx="4" dy="4"/>
<feGaussianBlur stdDeviation="2"/>
<feComposite in2="hardAlpha" operator="out"/>
<feColorMatrix type="matrix" values="0 0 0 0 0 0 0 0 0 0 0 0 0 0 0 0 0 0 0.15 0"/>
<feBlend mode="normal" in2="BackgroundImageFix" result="effect1_dropShadow_127_39005"/>
<feBlend mode="normal" in="SourceGraphic" in2="effect1_dropShadow_127_39005" result="shape"/>
</filter>
</defs>
</svg>
