<svg width="189" height="205" viewBox="0 0 189 205" fill="none" xmlns="http://www.w3.org/2000/svg">
<path d="M185.058 85.0288C185.058 131.989 146.989 170.058 100.029 170.058C53.0687 170.058 15 131.989 15 85.0288C15 38.0687 53.0687 0 100.029 0C146.989 0 185.058 38.0687 185.058 85.0288Z" fill="#F5F8FF"/>
<path d="M49.9307 166.329C49.9307 151.009 62.3498 138.59 77.6697 138.59H120.203C135.523 138.59 147.942 151.009 147.942 166.329V186.671H49.9307V166.329Z" fill="#4C8BFF"/>
<path d="M84.1416 130.268C84.1416 125.162 88.2813 121.022 93.3879 121.022H106.333C111.439 121.022 115.579 125.162 115.579 130.268V139.515C115.579 144.621 111.439 148.761 106.333 148.761H93.3879C88.2813 148.761 84.1416 144.621 84.1416 139.515V130.268Z" fill="#FFAB48"/>
<path d="M25.4278 152.302C24.1511 150.09 24.9088 147.263 27.12 145.986L51.1427 132.117C53.3539 130.84 56.1814 131.598 57.458 133.809L74.5637 163.437C79.6703 172.282 76.6399 183.592 67.795 188.698C58.95 193.805 47.6401 190.774 42.5335 181.929L25.4278 152.302Z" fill="#337AFF"/>
<path fill-rule="evenodd" clip-rule="evenodd" d="M18.2564 97.7194C15.8611 99.1024 15.0404 102.165 16.4233 104.561L18.1964 107.632C16.6426 106.485 14.4953 106.297 12.7162 107.324C10.3209 108.707 9.50022 111.77 10.8832 114.165L14.6064 120.614C14.1345 120.723 13.6707 120.903 13.2295 121.158C10.8341 122.541 10.0134 125.604 11.3964 127.999L18.9604 141.1C19.2639 141.626 19.6483 142.076 20.0888 142.443C25.1318 150.611 35.7904 153.338 44.1592 148.506C51.419 144.314 54.6143 135.787 52.3624 128.083L55.8388 115.703C56.7059 112.615 54.8308 109.775 51.6508 109.359C48.7517 108.98 45.7688 110.746 44.6075 113.401L36.5461 99.4381C35.1417 97.0057 32.0315 96.1724 29.5992 97.5767C27.5916 98.7357 26.6733 101.057 27.2033 103.2L25.0975 99.5525C23.7146 97.1572 20.6517 96.3365 18.2564 97.7194Z" fill="#FFBA68"/>
<path fill-rule="evenodd" clip-rule="evenodd" d="M17.3415 122.058C17.6732 121.866 18.0973 121.98 18.2888 122.312L23.2385 130.885C23.613 131.533 23.9142 132.315 23.8854 133.169C23.8538 134.107 23.6302 135.165 22.952 135.999C22.2504 136.862 21.1498 137.381 19.5948 137.385C19.2118 137.386 18.9005 137.076 18.8995 136.693C18.8985 136.31 19.2081 135.999 19.5911 135.998C20.8175 135.995 21.4874 135.602 21.8758 135.124C22.2873 134.618 22.4728 133.906 22.4992 133.123C22.5161 132.623 22.34 132.102 22.0374 131.578L17.0877 123.005C16.8962 122.673 17.0098 122.249 17.3415 122.058Z" fill="#FF9C27"/>
<path fill-rule="evenodd" clip-rule="evenodd" d="M43.9195 118.683C44.2808 118.81 44.4707 119.206 44.3436 119.567L42.3124 125.342L42.0901 125.47C40.8281 126.199 39.0786 127.649 37.9692 129.592C36.8752 131.508 36.4068 133.886 37.6231 136.588C37.7803 136.937 37.6247 137.347 37.2754 137.505C36.9262 137.662 36.5156 137.506 36.3584 137.157C34.928 133.98 35.4925 131.132 36.7648 128.904C37.9569 126.816 39.7727 125.259 41.1726 124.402L43.0352 119.107C43.1623 118.745 43.5582 118.556 43.9195 118.683Z" fill="#FF9C27"/>
<path fill-rule="evenodd" clip-rule="evenodd" d="M29.0088 106.726C29.3405 106.534 29.7646 106.648 29.9561 106.98L36.4285 118.19C36.62 118.522 36.5064 118.946 36.1747 119.138C35.843 119.329 35.4189 119.215 35.2274 118.884L28.7549 107.673C28.5634 107.342 28.6771 106.917 29.0088 106.726Z" fill="#FF9C27"/>
<path fill-rule="evenodd" clip-rule="evenodd" d="M21.4638 112.15C21.7955 111.958 22.2197 112.072 22.4112 112.404L28.8836 123.614C29.0751 123.946 28.9614 124.37 28.6298 124.562C28.2981 124.753 27.8739 124.639 27.6825 124.308L21.21 113.097C21.0185 112.765 21.1322 112.341 21.4638 112.15Z" fill="#FF9C27"/>
<path fill-rule="evenodd" clip-rule="evenodd" d="M25.5575 129.141C25.5802 129.084 25.6206 128.997 25.685 128.877C25.8382 128.59 26.0918 128.184 26.4456 127.692C27.1514 126.711 28.2296 125.428 29.6358 124.139C32.4551 121.554 36.5319 119 41.5217 118.718C41.9041 118.696 42.1965 118.369 42.1749 117.986C42.1533 117.604 41.8258 117.312 41.4434 117.333C36.0197 117.64 31.6526 120.409 28.6986 123.116C27.2182 124.473 26.0775 125.828 25.3197 126.882C24.9416 127.407 24.6522 127.867 24.4622 128.222C24.3686 128.397 24.2898 128.564 24.2381 128.709C24.213 128.781 24.1857 128.87 24.1719 128.967C24.1635 129.025 24.1309 129.254 24.2641 129.484C24.4563 129.815 24.8807 129.928 25.212 129.736C25.432 129.608 25.5556 129.378 25.5575 129.141Z" fill="#FF9C27"/>
<path d="M78.1251 104.101C78.1251 114.905 69.3666 123.664 58.5625 123.664C47.7585 123.664 39 114.905 39 104.101C39 93.297 47.7585 84.5386 58.5625 84.5386C69.3666 84.5386 78.1251 93.297 78.1251 104.101Z" fill="#FF9C27"/>
<path d="M158 104.101C158 114.905 149.242 123.664 138.438 123.664C127.633 123.664 118.875 114.905 118.875 104.101C118.875 93.297 127.633 84.5386 138.438 84.5386C149.242 84.5386 158 93.297 158 104.101Z" fill="#FF9C27"/>
<path d="M147.739 92.7533C147.739 117.682 125.693 137.89 98.4989 137.89C71.3043 137.89 49.2588 117.682 49.2588 92.7533C49.2588 67.825 71.3043 47.6166 98.4989 47.6166C125.693 47.6166 147.739 67.825 147.739 92.7533Z" fill="#FFBA68"/>
<mask id="mask0_127_39004" style="mask-type:alpha" maskUnits="userSpaceOnUse" x="49" y="47" width="99" height="91">
<path d="M147.739 92.7452C147.739 117.673 125.693 137.882 98.4989 137.882C71.3043 137.882 49.2588 117.673 49.2588 92.7452C49.2588 67.8168 71.3043 47.6084 98.4989 47.6084C125.693 47.6084 147.739 67.8168 147.739 92.7452Z" fill="#FFAB49"/>
</mask>
<g mask="url(#mask0_127_39004)">
<path d="M81.4983 115.934C81.4983 126.475 72.8937 135.019 62.2794 135.019C51.6651 135.019 43.0605 126.475 43.0605 115.934C43.0605 105.393 51.6651 96.8485 62.2794 96.8485C72.8937 96.8485 81.4983 105.393 81.4983 115.934Z" fill="#FF9A24"/>
<path d="M153.144 115.934C153.144 126.475 144.539 135.019 133.925 135.019C123.311 135.019 114.706 126.475 114.706 115.934C114.706 105.393 123.311 96.8485 133.925 96.8485C144.539 96.8485 153.144 105.393 153.144 115.934Z" fill="#FF9A24"/>
</g>
<path d="M100.55 107.107C100.55 108.24 99.6311 109.159 98.498 109.159C97.3649 109.159 96.4463 108.24 96.4463 107.107C96.4463 105.974 97.3649 105.055 98.498 105.055C99.6311 105.055 100.55 105.974 100.55 107.107Z" fill="black"/>
<path d="M88.2399 99.0985C88.2399 101.255 86.4028 103.003 84.1365 103.003C81.8703 103.003 80.0332 101.255 80.0332 99.0985C80.0332 96.9418 81.8703 95.1935 84.1365 95.1935C86.4028 95.1935 88.2399 96.9418 88.2399 99.0985Z" fill="black"/>
<path fill-rule="evenodd" clip-rule="evenodd" d="M86.2349 93.5174C86.6367 94.2301 86.3553 95.1178 85.6065 95.5001C85.1995 95.708 84.5826 96.1334 84.1438 96.6645C83.7078 97.1921 83.5878 97.6372 83.6852 98.0252C83.8828 98.8118 83.373 99.6019 82.5464 99.7899C81.7199 99.978 80.8897 99.4928 80.6921 98.7062C80.294 97.1215 80.9675 95.7704 81.7247 94.854C82.4791 93.9411 83.4552 93.2749 84.1515 92.9194C84.9003 92.537 85.8331 92.8048 86.2349 93.5174Z" fill="black"/>
<path d="M116.964 99.0983C116.964 101.255 115.126 103.003 112.86 103.003C110.594 103.003 108.757 101.255 108.757 99.0983C108.757 96.9417 110.594 95.1933 112.86 95.1933C115.126 95.1933 116.964 96.9417 116.964 99.0983Z" fill="black"/>
<path fill-rule="evenodd" clip-rule="evenodd" d="M114.959 93.5173C115.36 94.2299 115.079 95.1176 114.33 95.5C113.923 95.7079 113.306 96.1333 112.867 96.6644C112.431 97.1919 112.311 97.6371 112.409 98.0251C112.606 98.8117 112.097 99.6018 111.27 99.7898C110.444 99.9779 109.613 99.4927 109.416 98.7061C109.018 97.1213 109.691 95.7703 110.448 94.8539C111.203 93.941 112.179 93.2748 112.875 92.9193C113.624 92.5369 114.557 92.8047 114.959 93.5173Z" fill="black"/>
<path fill-rule="evenodd" clip-rule="evenodd" d="M87.2054 113.847C94.5598 116.138 102.437 116.138 109.792 113.847C110.581 113.601 110.999 112.828 110.724 112.121C110.449 111.414 109.587 111.04 108.797 111.286C102.09 113.375 94.9067 113.375 88.2 111.286C87.4104 111.04 86.5476 111.414 86.2729 112.121C85.9983 112.828 86.4157 113.601 87.2054 113.847Z" fill="#A75A00"/>
<path fill-rule="evenodd" clip-rule="evenodd" d="M82.257 88.0883C80.7838 88.3082 79.5922 89.0732 78.9868 89.6671C78.4206 90.2225 77.5113 90.2138 76.9559 89.6476C76.4004 89.0814 76.4091 88.1721 76.9753 87.6166C77.9482 86.6622 79.6763 85.5694 81.8329 85.2474C84.0544 84.9158 86.6384 85.4192 89.1637 87.5426C89.7708 88.0531 89.8491 88.9591 89.3387 89.5661C88.8282 90.1732 87.9222 90.2515 87.3152 89.7411C85.4215 88.1487 83.6654 87.878 82.257 88.0883Z" fill="#905A09"/>
<path fill-rule="evenodd" clip-rule="evenodd" d="M113.032 88.0883C111.559 88.3082 110.368 89.0732 109.762 89.6671C109.196 90.2225 108.287 90.2138 107.731 89.6476C107.176 89.0814 107.185 88.1721 107.751 87.6166C108.724 86.6622 110.452 85.5694 112.608 85.2474C114.83 84.9158 117.414 85.4192 119.939 87.5426C120.546 88.0531 120.625 88.9591 120.114 89.5661C119.604 90.1732 118.698 90.2515 118.091 89.7411C116.197 88.1487 114.441 87.878 113.032 88.0883Z" fill="#905A09"/>
<path d="M78.7825 36.5132C93.585 42.4041 103.69 25.3548 130.27 45.5115C137.49 44.6303 130.27 18.9905 140.855 33.6718C149.323 45.4169 141.879 48.5609 137.388 47.6137C155.193 59.4535 165.298 97.8145 143.742 94.2917C117.595 90.0185 127.381 55.9307 120.645 64.4553C113.908 72.98 60.0258 98.7062 48.9467 94.2917C41.1479 91.1842 41.1479 80.2915 48.9467 77.2423C47.9849 76.1373 42.6877 76.9764 41.1479 69.3989C39.6081 61.8214 56.9684 48.6688 64.3467 45.5115C64.3467 37.4604 63.1284 30.2834 78.7825 36.5132Z" fill="black"/>
<path d="M106.699 196.894C106.699 193.552 109.409 190.843 112.751 190.843H182.247C185.59 190.843 188.299 193.552 188.299 196.894V198.391C188.299 201.733 185.59 204.443 182.247 204.443H112.751C109.409 204.443 106.699 201.733 106.699 198.391V196.894Z" fill="#ABABAB"/>
<path d="M109.722 127.195C109.722 123.853 112.431 121.144 115.773 121.144H179.226C182.568 121.144 185.277 123.853 185.277 127.195V165.462C185.277 168.804 182.568 171.514 179.225 171.514H115.773C112.431 171.514 109.722 168.804 109.722 165.462V127.195Z" fill="#BEBEBE"/>
<path d="M108.88 176.573C109.366 173.655 111.891 171.516 114.849 171.516H180.151C183.11 171.516 185.634 173.655 186.121 176.573L188.826 192.802C189.441 196.491 186.596 199.849 182.856 199.849H112.144C108.404 199.849 105.56 196.491 106.175 192.802L108.88 176.573Z" fill="#BEBEBE"/>
<path d="M111.642 175.15C111.795 173.973 112.797 173.092 113.984 173.092H119.628C120.815 173.092 121.817 173.973 121.97 175.15C122.153 176.563 121.053 177.815 119.628 177.815H113.984C112.559 177.815 111.459 176.563 111.642 175.15Z" fill="#444444"/>
<path d="M110.24 181.323C110.448 180.204 111.424 179.392 112.562 179.392H122.626C123.764 179.392 124.74 180.204 124.947 181.323C125.216 182.775 124.102 184.114 122.626 184.114H112.562C111.086 184.114 109.972 182.775 110.24 181.323Z" fill="#444444"/>
<path d="M163.429 187.872C163.521 186.639 164.548 185.685 165.784 185.685H166.995C168.232 185.685 169.259 186.639 169.35 187.872C169.451 189.241 168.368 190.408 166.995 190.408H165.784C164.411 190.408 163.328 189.241 163.429 187.872Z" fill="#444444"/>
<path d="M127.227 181.579C127.319 180.346 128.346 179.392 129.582 179.392H130.793C132.03 179.392 133.057 180.346 133.148 181.579C133.249 182.948 132.166 184.114 130.793 184.114H129.582C128.209 184.114 127.126 182.948 127.227 181.579Z" fill="#444444"/>
<path d="M109.911 187.872C110.002 186.639 111.029 185.685 112.266 185.685H113.477C114.713 185.685 115.74 186.639 115.832 187.872C115.933 189.241 114.85 190.408 113.477 190.408H112.266C110.893 190.408 109.809 189.241 109.911 187.872Z" fill="#444444"/>
<path d="M124.077 175.279C124.168 174.046 125.195 173.092 126.432 173.092H127.643C128.879 173.092 129.906 174.046 129.998 175.279C130.099 176.648 129.016 177.815 127.643 177.815H126.432C125.059 177.815 123.975 176.648 124.077 175.279Z" fill="#444444"/>
<path d="M150.837 181.579C150.928 180.346 151.955 179.392 153.191 179.392H154.403C155.639 179.392 156.666 180.346 156.757 181.579C156.859 182.948 155.775 184.114 154.403 184.114H153.191C151.819 184.114 150.735 182.948 150.837 181.579Z" fill="#444444"/>
<path d="M147.688 175.279C147.78 174.046 148.807 173.092 150.043 173.092H151.254C152.491 173.092 153.518 174.046 153.609 175.279C153.71 176.648 152.627 177.815 151.254 177.815H150.043C148.67 177.815 147.587 176.648 147.688 175.279Z" fill="#444444"/>
<path d="M163.429 175.279C163.521 174.046 164.548 173.092 165.784 173.092H166.995C168.232 173.092 169.259 174.046 169.35 175.279C169.451 176.648 168.368 177.815 166.995 177.815H165.784C164.411 177.815 163.328 176.648 163.429 175.279Z" fill="#444444"/>
<path d="M171.302 187.872C171.393 186.639 172.42 185.685 173.656 185.685H174.868C176.104 185.685 177.131 186.639 177.222 187.872C177.324 189.241 176.24 190.408 174.868 190.408H173.656C172.283 190.408 171.2 189.241 171.302 187.872Z" fill="#444444"/>
<path d="M135.095 181.579C135.187 180.346 136.214 179.392 137.45 179.392H138.661C139.898 179.392 140.925 180.346 141.016 181.579C141.118 182.948 140.034 184.114 138.661 184.114H137.45C136.077 184.114 134.994 182.948 135.095 181.579Z" fill="#444444"/>
<path d="M117.782 187.872C117.873 186.639 118.9 185.685 120.137 185.685H121.348C122.584 185.685 123.611 186.639 123.703 187.872C123.804 189.241 122.721 190.408 121.348 190.408H120.137C118.764 190.408 117.681 189.241 117.782 187.872Z" fill="#444444"/>
<path d="M131.947 175.279C132.038 174.046 133.065 173.092 134.302 173.092H135.513C136.749 173.092 137.776 174.046 137.868 175.279C137.969 176.648 136.886 177.815 135.513 177.815H134.302C132.929 177.815 131.846 176.648 131.947 175.279Z" fill="#444444"/>
<path d="M158.709 181.579C158.8 180.346 159.827 179.392 161.063 179.392H162.275C163.511 179.392 164.538 180.346 164.629 181.579C164.731 182.948 163.647 184.114 162.275 184.114H161.063C159.691 184.114 158.607 182.948 158.709 181.579Z" fill="#444444"/>
<path d="M155.558 175.279C155.65 174.046 156.677 173.092 157.913 173.092H159.124C160.361 173.092 161.388 174.046 161.479 175.279C161.58 176.648 160.497 177.815 159.124 177.815H157.913C156.54 177.815 155.457 176.648 155.558 175.279Z" fill="#444444"/>
<path d="M171.302 175.279C171.393 174.046 172.42 173.092 173.656 173.092H174.868C176.104 173.092 177.131 174.046 177.222 175.279C177.324 176.648 176.24 177.815 174.868 177.815H173.656C172.283 177.815 171.2 176.648 171.302 175.279Z" fill="#444444"/>
<path d="M179.17 187.872C179.261 186.639 180.288 185.685 181.524 185.685H182.736C183.972 185.685 184.999 186.639 185.09 187.872C185.192 189.241 184.108 190.408 182.736 190.408H181.524C180.152 190.408 179.068 189.241 179.17 187.872Z" fill="#444444"/>
<path d="M142.966 181.579C143.057 180.346 144.084 179.392 145.32 179.392H146.532C147.768 179.392 148.795 180.346 148.886 181.579C148.988 182.948 147.904 184.114 146.532 184.114H145.32C143.948 184.114 142.864 182.948 142.966 181.579Z" fill="#444444"/>
<path d="M125.651 187.872C125.742 186.639 126.769 185.685 128.006 185.685H129.217C130.453 185.685 131.48 186.639 131.572 187.872C131.673 189.241 130.59 190.408 129.217 190.408H128.006C126.633 190.408 125.55 189.241 125.651 187.872Z" fill="#444444"/>
<path d="M139.819 175.279C139.91 174.046 140.937 173.092 142.174 173.092H143.385C144.621 173.092 145.648 174.046 145.74 175.279C145.841 176.648 144.758 177.815 143.385 177.815H142.174C140.801 177.815 139.718 176.648 139.819 175.279Z" fill="#444444"/>
<path d="M166.967 181.282C167.191 180.182 168.159 179.392 169.281 179.392H180.815C181.937 179.392 182.904 180.182 183.128 181.282C183.426 182.745 182.308 184.114 180.815 184.114H169.281C167.787 184.114 166.669 182.745 166.967 181.282Z" fill="#444444"/>
<path d="M134.44 187.263C134.772 186.318 135.665 185.685 136.667 185.685H159.907C160.909 185.685 161.801 186.318 162.134 187.263C162.674 188.799 161.535 190.408 159.907 190.408H136.667C135.039 190.408 133.899 188.799 134.44 187.263Z" fill="#444444"/>
<path d="M134.375 194.324C134.74 192.942 135.99 191.979 137.419 191.979H159.153C160.583 191.979 161.833 192.942 162.197 194.324C162.724 196.32 161.218 198.275 159.153 198.275H137.419C135.354 198.275 133.849 196.32 134.375 194.324Z" fill="#969696"/>
<path d="M114.445 130.406C114.445 127.899 116.477 125.867 118.984 125.867H176.018C178.524 125.867 180.556 127.899 180.556 130.406V162.254C180.556 164.761 178.524 166.793 176.018 166.793H118.984C116.477 166.793 114.445 164.761 114.445 162.254V130.406Z" fill="#2B2B2B"/>
<path fill-rule="evenodd" clip-rule="evenodd" d="M116.368 171.516C116.368 170.839 116.917 170.29 117.594 170.29H177.408C178.085 170.29 178.634 170.839 178.634 171.516C178.634 172.193 178.085 172.741 177.408 172.741H117.594C116.917 172.741 116.368 172.193 116.368 171.516Z" fill="#A0A0A0"/>
<path d="M142.077 146.144L145.985 150.052C146.376 150.442 147.009 150.442 147.4 150.052L155.154 142.297" stroke="white" stroke-width="1.53846" stroke-linecap="round"/>
</svg>
