<svg width="30" height="30" viewBox="0 0 30 30" fill="none" xmlns="http://www.w3.org/2000/svg">
<path d="M22.7549 21.0493C22.7549 21.5239 22.4022 21.9162 21.9446 21.9783L21.8174 21.9868L4.79516 21.9868C4.27739 21.9868 3.85766 21.5671 3.85766 21.0493C3.85766 20.5747 4.21035 20.1825 4.66795 20.1204L4.79516 20.1118L21.8174 20.1118C22.3351 20.1118 22.7549 20.5315 22.7549 21.0493Z" fill="#337AFF"/>
<path d="M10.5764 25.4819C10.9434 25.8472 10.9448 26.4408 10.5795 26.8077C10.2474 27.1413 9.72666 27.1728 9.35902 26.9013L9.25366 26.8108L4.13283 21.7136C3.79813 21.3804 3.76771 20.8576 4.04155 20.49L4.13283 20.3847L9.25366 15.2875C9.62062 14.9222 10.2142 14.9236 10.5795 15.2905C10.9115 15.6241 10.9406 16.145 10.6674 16.5114L10.5764 16.6163L6.12393 21.0486L10.5764 25.4819Z" fill="#337AFF"/>
<path d="M26.1465 8.63892C26.1465 9.11354 25.7938 9.50578 25.3362 9.56786L25.209 9.57642L8.18676 9.57642C7.66899 9.57642 7.24926 9.15668 7.24926 8.63892C7.24926 8.1643 7.60196 7.77205 8.05955 7.70997L8.18676 7.70142L25.209 7.70142C25.7268 7.70142 26.1465 8.12115 26.1465 8.63892Z" fill="#337AFF"/>
<path d="M25.8713 7.97453C26.206 8.30768 26.2365 8.83049 25.9626 9.19812L25.8713 9.30341L20.7505 14.4006C20.3835 14.7659 19.79 14.7645 19.4247 14.3976C19.0926 14.064 19.0636 13.5431 19.3367 13.1767L19.4277 13.0717L23.8816 8.63869L19.4277 4.20619C19.0941 3.87413 19.0627 3.35337 19.3342 2.98573L19.4247 2.88037C19.7567 2.54677 20.2775 2.51531 20.6451 2.78678L20.7505 2.87731L25.8713 7.97453Z" fill="#337AFF"/>
</svg>
