<svg width="30" height="30" viewBox="0 0 30 30" fill="none" xmlns="http://www.w3.org/2000/svg">
<g clip-path="url(#clip0_44_8786)">
<path d="M4.23926 4.23877H25.4639V25.4636H4.23926V4.23877Z" fill="#F0DB4F"/>
<path d="M23.7266 20.4014C23.5711 19.4331 22.9397 18.6198 21.0694 17.8614C20.4197 17.5628 19.6954 17.349 19.4796 16.8567C19.4029 16.5701 19.3928 16.4087 19.4413 16.2353C19.5805 15.6724 20.2524 15.4969 20.7849 15.6583C21.1279 15.7733 21.4526 16.0376 21.6484 16.4592C22.5643 15.8662 22.5625 15.8701 23.202 15.4625C22.9679 15.0995 22.8429 14.932 22.6896 14.7767C22.1388 14.1614 21.3882 13.8445 20.1878 13.8687L19.5625 13.9496C18.9633 14.101 18.3923 14.4155 18.0574 14.8372C17.0527 15.9772 17.3392 17.9725 18.5618 18.7936C19.7663 19.6976 21.5357 19.9033 21.7617 20.7486C21.9816 21.7836 21.0011 22.1186 20.0265 21.9996C19.3083 21.8502 18.9089 21.4852 18.477 20.8214C17.6822 21.2814 17.6822 21.2814 16.865 21.7513C17.0588 22.175 17.2624 22.3668 17.5873 22.7339C19.1247 24.2934 22.9721 24.2167 23.6622 21.8563C23.6901 21.7753 23.876 21.2347 23.7266 20.4014ZM15.7773 13.9937H13.7921L13.784 19.1262C13.784 20.2178 13.8404 21.2185 13.6629 21.5252C13.3725 22.1284 12.6198 22.0536 12.2768 21.9367C11.9277 21.7651 11.7502 21.5211 11.5446 21.1762C11.4881 21.0772 11.4457 21.0006 11.4315 20.9947L9.81738 21.9831C10.0858 22.534 10.4812 23.0121 10.9876 23.3227C11.7441 23.7768 12.7609 23.916 13.8243 23.6718C14.5164 23.4702 15.1135 23.0526 15.4262 22.417C15.8782 21.5837 15.7812 20.575 15.7772 19.4594C15.7873 17.6393 15.7773 15.8195 15.7773 13.9937Z" fill="#323330"/>
</g>
<defs>
<clipPath id="clip0_44_8786">
<rect width="21.7021" height="21.7021" fill="white" transform="translate(4 4)"/>
</clipPath>
</defs>
</svg>
