<svg width="30" height="30" viewBox="0 0 30 30" fill="none" xmlns="http://www.w3.org/2000/svg">
<path fill-rule="evenodd" clip-rule="evenodd" d="M15 26.375C21.2822 26.375 26.375 21.2822 26.375 15C26.375 8.71776 21.2822 3.625 15 3.625C8.71776 3.625 3.625 8.71776 3.625 15C3.625 21.2822 8.71776 26.375 15 26.375ZM28 15C28 22.1797 22.1797 28 15 28C7.8203 28 2 22.1797 2 15C2 7.8203 7.8203 2 15 2C22.1797 2 28 7.8203 28 15Z" fill="#337AFF"/>
<path fill-rule="evenodd" clip-rule="evenodd" d="M15 15.9885C16.8181 15.9885 18.4317 14.4127 18.4317 12.2919C18.4317 10.1711 16.8181 8.59521 15 8.59521C13.182 8.59521 11.5684 10.1711 11.5684 12.2919C11.5684 14.4127 13.182 15.9885 15 15.9885ZM20.0567 12.2919C20.0567 15.2309 17.7928 17.6135 15 17.6135C12.2073 17.6135 9.94336 15.2309 9.94336 12.2919C9.94336 9.3528 12.2073 6.97021 15 6.97021C17.7928 6.97021 20.0567 9.3528 20.0567 12.2919Z" fill="#337AFF"/>
<path fill-rule="evenodd" clip-rule="evenodd" d="M7.63518 23.6652C9.62129 25.3563 12.1911 26.375 15.0001 26.375C17.8092 26.375 20.3792 25.3561 22.3654 23.6648C20.5604 22.379 17.9704 21.519 15.0001 21.519C12.0306 21.519 9.44063 22.3798 7.63518 23.6652ZM24.7521 23.5917C22.3693 26.2937 18.8844 28 15.0001 28C11.1157 28 7.63084 26.2937 5.24805 23.5917C7.3478 21.3635 10.931 19.894 15.0001 19.894C19.0691 19.894 22.6523 21.3615 24.7521 23.5917Z" fill="#337AFF"/>
</svg>
