<svg width="30" height="30" viewBox="0 0 30 30" fill="none" xmlns="http://www.w3.org/2000/svg">
<g clip-path="url(#clip0_44_8785)">
<path d="M9.96779 9.91726L8.56055 8.51001V18.632L8.5775 19.1068C8.5775 19.3272 8.61141 19.5815 8.69619 19.8358L19.8185 23.7524L22.5822 22.5316L9.96779 9.91726Z" fill="#00C4B3"/>
<path d="M22.5825 22.5315L19.8189 23.7522L8.73047 19.8357C8.95088 20.6495 9.40866 21.5481 9.9173 22.0737L13.5287 25.6681L21.5992 25.6851L22.5825 22.5315Z" fill="#22D3C5"/>
<path d="M4.28819 15.0375C3.93214 15.4105 4.11865 16.2073 4.67815 16.8008L7.17051 19.3101L8.73035 19.8696C8.67948 19.6153 8.61166 19.3609 8.61166 19.1405L8.59471 18.6658L8.5608 8.52683M22.5824 22.5315L23.8032 19.7509L19.9036 8.62856C19.6492 8.57769 19.3949 8.52683 19.1745 8.50987L18.6828 8.49292L8.57775 8.50987" fill="#0075C9"/>
<path d="M22.5829 22.5316L25.5839 21.5482V13.2912L22.1251 9.8155C21.6165 9.30685 20.7179 8.83212 19.8871 8.62866L23.8036 19.751" fill="#00A8E1"/>
<path d="M19.3438 7.08569L16.8345 4.59333C16.258 4.01687 15.4781 3.84732 15.0712 4.20337L8.56055 8.50989H18.6486L19.1403 8.52684C19.3607 8.52684 19.6151 8.56075 19.8694 8.64553L19.3438 7.08569Z" fill="#00C4B3"/>
</g>
<defs>
<clipPath id="clip0_44_8785">
<rect width="21.7021" height="21.7021" fill="white" transform="translate(4 4)"/>
</clipPath>
</defs>
</svg>
