<svg width="30" height="30" viewBox="0 0 30 30" fill="none" xmlns="http://www.w3.org/2000/svg">
<g clip-path="url(#clip0_44_8787)">
<path d="M15.1713 17.1598C16.2702 17.1598 17.161 16.269 17.161 15.1701C17.161 14.0712 16.2702 13.1804 15.1713 13.1804C14.0725 13.1804 13.1816 14.0712 13.1816 15.1701C13.1816 16.269 14.0725 17.1598 15.1713 17.1598Z" fill="#61DAFB"/>
<path d="M22.7283 11.8888C22.3444 11.7492 21.9429 11.6096 21.524 11.4874C21.6288 11.0685 21.716 10.6496 21.7858 10.2482C22.1524 7.94433 21.7509 6.32115 20.6339 5.69283C20.3023 5.50084 19.9358 5.41357 19.5169 5.41357C18.2952 5.41357 16.7418 6.32115 15.171 7.8396C13.6002 6.32115 12.0468 5.41357 10.8251 5.41357C10.4062 5.41357 10.0397 5.50084 9.70805 5.69283C8.59103 6.33861 8.1896 7.96178 8.55612 10.2482C8.62594 10.6496 8.7132 11.0685 8.81792 11.4874C8.39904 11.6096 7.99761 11.7317 7.61363 11.8888C5.43195 12.7266 4.24512 13.8785 4.24512 15.1701C4.24512 16.4616 5.44941 17.6135 7.61363 18.4513C7.99761 18.5909 8.39904 18.7306 8.81792 18.8527C8.7132 19.2716 8.62594 19.6905 8.55612 20.0919C8.1896 22.3958 8.59103 24.019 9.70805 24.6473C10.0397 24.8393 10.4062 24.9265 10.8251 24.9265C12.0643 24.9265 13.6176 24.019 15.171 22.5005C16.7418 24.019 18.2952 24.9265 19.5169 24.9265C19.9358 24.9265 20.3023 24.8393 20.6339 24.6473C21.7509 24.0015 22.1524 22.3783 21.7858 20.0919C21.716 19.6905 21.6288 19.2716 21.524 18.8527C21.9429 18.7306 22.3444 18.6084 22.7283 18.4513C24.91 17.6135 26.0968 16.4616 26.0968 15.1701C26.0968 13.8785 24.91 12.7266 22.7283 11.8888ZM20.1452 6.5655C20.8608 6.98439 21.1052 8.27594 20.8084 10.1086C20.7561 10.4751 20.6688 10.8591 20.5641 11.2605C19.6565 11.051 18.6966 10.9114 17.6843 10.8241C17.0909 9.98638 16.48 9.23588 15.8691 8.5552C17.1607 7.28109 18.4697 6.40842 19.5343 6.40842C19.7612 6.40842 19.9707 6.46078 20.1452 6.5655ZM18.1904 16.9154C17.8763 17.4739 17.5097 18.0324 17.1258 18.5909C16.48 18.6433 15.8342 18.6607 15.171 18.6607C14.4903 18.6607 13.8445 18.6433 13.2162 18.5909C12.8322 18.0324 12.4831 17.4739 12.169 16.9154C11.8374 16.3394 11.5232 15.746 11.244 15.1701C11.5232 14.5941 11.8374 14.0007 12.169 13.4247C12.4831 12.8662 12.8497 12.3077 13.2336 11.7492C13.8794 11.6968 14.5252 11.6794 15.1884 11.6794C15.8691 11.6794 16.5149 11.6968 17.1432 11.7492C17.5272 12.3077 17.8763 12.8662 18.1904 13.4247C18.522 14.0007 18.8362 14.5941 19.1155 15.1701C18.8188 15.746 18.522 16.322 18.1904 16.9154ZM19.6391 16.3394C19.9009 16.9503 20.1103 17.5437 20.3023 18.1371C19.7089 18.2768 19.0806 18.3815 18.4173 18.4688C18.6268 18.1371 18.8537 17.7881 19.0456 17.4216C19.2551 17.055 19.4471 16.6885 19.6391 16.3394ZM15.171 21.0693C14.7521 20.6155 14.3507 20.1268 13.9667 19.6207C14.3681 19.6381 14.7696 19.6556 15.171 19.6556C15.5724 19.6556 15.9738 19.6381 16.3753 19.6207C15.9913 20.1268 15.5899 20.6155 15.171 21.0693ZM11.9246 18.4513C11.2614 18.364 10.6331 18.2593 10.0397 18.1197C10.2317 17.5437 10.4411 16.9329 10.7029 16.322C10.8949 16.6711 11.0869 17.0376 11.2963 17.3866C11.5058 17.7706 11.7152 18.1022 11.9246 18.4513ZM10.7029 14.0007C10.4411 13.3898 10.2317 12.7964 10.0397 12.203C10.6331 12.0633 11.2614 11.9586 11.9246 11.8714C11.7152 12.203 11.4883 12.552 11.2963 12.9186C11.0869 13.2851 10.8949 13.6516 10.7029 14.0007ZM15.171 9.27079C15.5899 9.72458 15.9913 10.2133 16.3753 10.7194C15.9738 10.702 15.5724 10.6845 15.171 10.6845C14.7696 10.6845 14.3681 10.702 13.9667 10.7194C14.3507 10.2133 14.7521 9.72458 15.171 9.27079ZM19.0456 12.936L18.4173 11.8888C19.0806 11.9761 19.7089 12.0808 20.3023 12.2204C20.1103 12.7964 19.9009 13.4073 19.6391 14.0181C19.4471 13.6516 19.2551 13.2851 19.0456 12.936ZM9.53351 10.1086C9.23681 8.27594 9.48115 6.98439 10.1967 6.5655C10.3713 6.46078 10.5807 6.40842 10.8076 6.40842C11.8548 6.40842 13.1638 7.26364 14.4728 8.5552C13.862 9.21843 13.2511 9.98638 12.6577 10.8241C11.6454 10.9114 10.6854 11.0685 9.77786 11.2605C9.67314 10.8591 9.60333 10.4751 9.53351 10.1086ZM5.22251 15.1701C5.22251 14.3497 6.21736 13.4771 7.9627 12.8313C8.31177 12.6917 8.69575 12.5695 9.07972 12.4648C9.35898 13.3374 9.70805 14.2625 10.1269 15.1875C9.70805 16.1125 9.34153 17.0201 9.07972 17.8928C6.67115 17.1947 5.22251 16.1475 5.22251 15.1701ZM10.1967 23.7746C9.48115 23.3557 9.23681 22.0642 9.53351 20.2316C9.58588 19.865 9.67314 19.4811 9.77786 19.0796C10.6854 19.2891 11.6454 19.4287 12.6577 19.516C13.2511 20.3537 13.862 21.1042 14.4728 21.7849C13.1813 23.059 11.8723 23.9317 10.8076 23.9317C10.5807 23.9317 10.3713 23.8793 10.1967 23.7746ZM20.8084 20.2316C21.1052 22.0642 20.8608 23.3557 20.1452 23.7746C19.9707 23.8793 19.7612 23.9317 19.5343 23.9317C18.4871 23.9317 17.1781 23.0765 15.8691 21.7849C16.48 21.1217 17.0909 20.3537 17.6843 19.516C18.6966 19.4287 19.6565 19.2716 20.5641 19.0796C20.6688 19.4811 20.7386 19.865 20.8084 20.2316ZM22.3793 17.5088C22.0302 17.6484 21.6462 17.7706 21.2622 17.8753C20.983 17.0027 20.6339 16.0776 20.215 15.1526C20.6339 14.2276 21.0004 13.32 21.2622 12.4473C23.6708 13.1455 25.1195 14.1927 25.1195 15.1701C25.1195 15.9904 24.1072 16.863 22.3793 17.5088Z" fill="#61DAFB"/>
</g>
<defs>
<clipPath id="clip0_44_8787">
<rect width="22.3404" height="22.3404" fill="white" transform="translate(4 4)"/>
</clipPath>
</defs>
</svg>
