<svg width="30" height="30" viewBox="0 0 30 30" fill="none" xmlns="http://www.w3.org/2000/svg">
<g clip-path="url(#clip0_162_31331)">
<g clip-path="url(#clip1_162_31331)">
<path d="M25.2932 7.10749C25.8332 5.61374 24.3857 4.16624 22.8919 4.70749L4.63569 11.31C3.13694 11.8525 2.95569 13.8975 4.33444 14.6962L10.1619 18.07L15.3657 12.8662C15.6014 12.6385 15.9172 12.5126 16.2449 12.5154C16.5727 12.5182 16.8862 12.6497 17.118 12.8815C17.3497 13.1132 17.4812 13.4267 17.484 13.7545C17.4869 14.0822 17.3609 14.398 17.1332 14.6337L11.9294 19.8375L15.3044 25.665C16.1019 27.0437 18.1469 26.8612 18.6894 25.3637L25.2932 7.10749Z" fill="#337AFF"/>
</g>
</g>
<defs>
<clipPath id="clip0_162_31331">
<rect width="30" height="30" fill="white"/>
</clipPath>
<clipPath id="clip1_162_31331">
<rect width="30" height="30" fill="white"/>
</clipPath>
</defs>
</svg>
