<svg width="24" height="26" viewBox="0 0 24 26" fill="none" xmlns="http://www.w3.org/2000/svg">
<path d="M19.7549 19.0493C19.7549 19.5239 19.4022 19.9162 18.9446 19.9783L18.8174 19.9868L1.79516 19.9868C1.27739 19.9868 0.85766 19.5671 0.85766 19.0493C0.85766 18.5747 1.21035 18.1825 1.66795 18.1204L1.79516 18.1118L18.8174 18.1118C19.3351 18.1118 19.7549 18.5315 19.7549 19.0493Z" fill="#337AFF"/>
<path d="M7.57642 23.4819C7.94338 23.8472 7.94475 24.4408 7.57948 24.8077C7.24742 25.1413 6.72666 25.1728 6.35902 24.9013L6.25366 24.8108L1.13283 19.7136C0.798134 19.3804 0.767708 18.8576 1.04155 18.49L1.13283 18.3847L6.25366 13.2875C6.62062 12.9222 7.21421 12.9236 7.57948 13.2905C7.91154 13.6241 7.9406 14.145 7.66743 14.5114L7.57642 14.6163L3.12393 19.0486L7.57642 23.4819Z" fill="#337AFF"/>
<path d="M23.1465 6.63892C23.1465 7.11354 22.7938 7.50578 22.3362 7.56786L22.209 7.57642L5.18676 7.57642C4.66899 7.57642 4.24926 7.15668 4.24926 6.63892C4.24926 6.1643 4.60196 5.77205 5.05955 5.70997L5.18676 5.70142L22.209 5.70142C22.7268 5.70142 23.1465 6.12115 23.1465 6.63892Z" fill="#337AFF"/>
<path d="M22.8713 5.97453C23.206 6.30768 23.2365 6.83049 22.9626 7.19812L22.8713 7.30341L17.7505 12.4006C17.3835 12.7659 16.79 12.7645 16.4247 12.3976C16.0926 12.064 16.0636 11.5431 16.3367 11.1767L16.4277 11.0717L20.8816 6.63869L16.4277 2.20619C16.0941 1.87413 16.0627 1.35337 16.3342 0.985726L16.4247 0.880369C16.7567 0.546767 17.2775 0.515306 17.6451 0.786776L17.7505 0.877305L22.8713 5.97453Z" fill="#337AFF"/>
</svg>
