<svg width="30" height="30" viewBox="0 0 30 30" fill="none" xmlns="http://www.w3.org/2000/svg">
<mask id="mask0_35_3933" style="mask-type:luminance" maskUnits="userSpaceOnUse" x="3" y="2" width="23" height="26">
<path fill-rule="evenodd" clip-rule="evenodd" d="M3.75 2.51465H25.0652V27.3315H3.75V2.51465Z" fill="white"/>
</mask>
<g mask="url(#mask0_35_3933)">
<path fill-rule="evenodd" clip-rule="evenodd" d="M9.46589 4.38965C7.39464 4.38965 5.67464 6.06715 5.62589 8.1359V21.5346C5.58089 23.6609 7.25589 25.4109 9.36214 25.4571H19.4659C21.5521 25.3821 23.2034 23.6609 23.1896 21.5409V10.4246L17.3971 4.38965H9.48089H9.46589ZM9.48134 27.3321H9.32384C6.18384 27.2646 3.68384 24.6546 3.75134 21.5146V8.1134C3.82509 5.01215 6.38509 2.51465 9.46259 2.51465H9.48509H17.7963C18.0513 2.51465 18.2951 2.6184 18.4726 2.80215L24.8051 9.3984C24.9713 9.57215 25.0651 9.8059 25.0651 10.0471V21.5346C25.0851 24.6709 22.6401 27.2196 19.4988 27.3321H9.48134Z" fill="#337AFF"/>
</g>
<path fill-rule="evenodd" clip-rule="evenodd" d="M24.1222 11.2305H20.6797C18.391 11.2242 16.5322 9.35924 16.5322 7.07424V3.43799C16.5322 2.92049 16.9522 2.50049 17.4697 2.50049C17.9872 2.50049 18.4072 2.92049 18.4072 3.43799V7.07424C18.4072 8.32924 19.4272 9.35174 20.6822 9.35549H24.1222C24.6397 9.35549 25.0597 9.77549 25.0597 10.293C25.0597 10.8105 24.6397 11.2305 24.1222 11.2305Z" fill="#337AFF"/>
<path fill-rule="evenodd" clip-rule="evenodd" d="M13.9268 20.8755C13.4093 20.8755 12.9893 20.4555 12.9893 19.938V12.3867C12.9893 11.8692 13.4093 11.4492 13.9268 11.4492C14.4443 11.4492 14.8643 11.8692 14.8643 12.3867V19.938C14.8643 20.4555 14.4443 20.8755 13.9268 20.8755Z" fill="#337AFF"/>
<path fill-rule="evenodd" clip-rule="evenodd" d="M10.9958 16.2683C10.757 16.2683 10.517 16.177 10.3345 15.9945C9.96828 15.6295 9.96578 15.037 10.332 14.6695L13.262 11.7245C13.6145 11.3708 14.2395 11.3708 14.5908 11.7245L17.5233 14.6695C17.8883 15.037 17.887 15.6295 17.5208 15.9945C17.1533 16.3595 16.5595 16.3595 16.1945 15.992L13.927 13.7145L11.6595 15.992C11.477 16.177 11.2358 16.2683 10.9958 16.2683Z" fill="#337AFF"/>
</svg>
