<svg width="30" height="30" viewBox="0 0 30 30" fill="none" xmlns="http://www.w3.org/2000/svg">
<path fill-rule="evenodd" clip-rule="evenodd" d="M20.7212 27.9607H9.69125C5.39 27.9607 2.5 24.9419 2.5 20.4494V10.0569C2.5 5.5644 5.39 2.54565 9.69125 2.54565H14.365C14.8825 2.54565 15.3025 2.96565 15.3025 3.48315C15.3025 4.00065 14.8825 4.42065 14.365 4.42065H9.69125C6.46125 4.42065 4.375 6.63315 4.375 10.0569V20.4494C4.375 23.8732 6.46125 26.0857 9.69125 26.0857H20.7212C23.9512 26.0857 26.0387 23.8732 26.0387 20.4494V15.4144C26.0387 14.8969 26.4587 14.4769 26.9762 14.4769C27.4937 14.4769 27.9137 14.8969 27.9137 15.4144V20.4494C27.9137 24.9419 25.0225 27.9607 20.7212 27.9607Z" fill="#337AFF"/>
<path fill-rule="evenodd" clip-rule="evenodd" d="M11.085 19.2853H14.8062C15.2812 19.2853 15.7262 19.1016 16.0625 18.7653L25.4487 9.37906C25.8337 8.99406 26.0462 8.48156 26.0462 7.93656C26.0462 7.39031 25.8337 6.87656 25.4487 6.49156L23.9275 4.97031C23.1312 4.17656 21.8362 4.17656 21.0387 4.97031L11.6975 14.3116C11.3737 14.6353 11.19 15.0653 11.1787 15.5216L11.085 19.2853ZM14.8058 21.1602H10.1233C9.87083 21.1602 9.62833 21.0577 9.45208 20.8765C9.27583 20.6965 9.17958 20.4527 9.18583 20.199L9.30333 15.4752C9.32708 14.5352 9.70583 13.6515 10.3708 12.9852H10.3721L19.7133 3.64399C21.2408 2.11899 23.7246 2.11899 25.2521 3.64399L26.7733 5.16524C27.5146 5.90524 27.9221 6.88899 27.9208 7.93649C27.9208 8.98399 27.5133 9.9665 26.7733 10.7052L17.3871 20.0915C16.6983 20.7802 15.7808 21.1602 14.8058 21.1602Z" fill="#337AFF"/>
<path fill-rule="evenodd" clip-rule="evenodd" d="M24.6632 12.3957C24.4232 12.3957 24.1832 12.3044 24.0007 12.1207L18.2932 6.41319C17.927 6.04694 17.927 5.45319 18.2932 5.08694C18.6595 4.72069 19.252 4.72069 19.6182 5.08694L25.3257 10.7957C25.692 11.1619 25.692 11.7544 25.3257 12.1207C25.1432 12.3044 24.9032 12.3957 24.6632 12.3957Z" fill="#337AFF"/>
</svg>
