<svg width="22" height="22" viewBox="0 0 22 22" fill="none" xmlns="http://www.w3.org/2000/svg">
<g id="Frame" clip-path="url(#clip0_967_19696)">
<path id="Vector" d="M0.239258 0.23877H21.4639V21.4636H0.239258V0.23877Z" fill="#F0DB4F"/>
<path id="Vector_2" d="M19.7266 16.4014C19.5711 15.4331 18.9397 14.6198 17.0694 13.8614C16.4197 13.5628 15.6954 13.349 15.4796 12.8567C15.4029 12.5701 15.3928 12.4087 15.4413 12.2353C15.5805 11.6724 16.2524 11.4969 16.7849 11.6583C17.1279 11.7733 17.4526 12.0376 17.6484 12.4592C18.5643 11.8662 18.5625 11.8701 19.202 11.4625C18.9679 11.0995 18.8429 10.932 18.6896 10.7767C18.1388 10.1614 17.3882 9.84448 16.1878 9.86873L15.5625 9.9496C14.9633 10.101 14.3923 10.4155 14.0574 10.8372C13.0527 11.9772 13.3392 13.9725 14.5618 14.7936C15.7663 15.6976 17.5357 15.9033 17.7617 16.7486C17.9816 17.7836 17.0011 18.1186 16.0265 17.9996C15.3083 17.8502 14.9089 17.4852 14.477 16.8214C13.6822 17.2814 13.6822 17.2814 12.865 17.7513C13.0588 18.175 13.2624 18.3668 13.5873 18.7339C15.1247 20.2934 18.9721 20.2167 19.6622 17.8563C19.6901 17.7753 19.876 17.2347 19.7266 16.4014ZM11.7773 9.99368H9.79209L9.78396 15.1262C9.78396 16.2178 9.84041 17.2185 9.6629 17.5252C9.37246 18.1284 8.61984 18.0536 8.27684 17.9367C7.92775 17.7651 7.75023 17.5211 7.54457 17.1762C7.48811 17.0772 7.44572 17.0006 7.43148 16.9947L5.81738 17.9831C6.08578 18.534 6.48116 19.0121 6.9876 19.3227C7.74412 19.7768 8.7609 19.916 9.82431 19.6718C10.5164 19.4702 11.1135 19.0526 11.4262 18.417C11.8782 17.5837 11.7812 16.575 11.7772 15.4594C11.7873 13.6393 11.7773 11.8195 11.7773 9.99368Z" fill="#323330"/>
</g>
<defs>
<clipPath id="clip0_967_19696">
<rect width="21.7021" height="21.7021" fill="white"/>
</clipPath>
</defs>
</svg>
