<svg width="50" height="50" viewBox="0 0 50 50" fill="none" xmlns="http://www.w3.org/2000/svg">
<path d="M17.9075 32.5221C17.9075 36.2835 14.8582 39.3328 11.0968 39.3328C7.33537 39.3328 4.28613 36.2835 4.28613 32.5221C4.28613 28.7607 7.33537 25.7114 11.0968 25.7114C14.8582 25.7114 17.9075 28.7607 17.9075 32.5221Z" fill="#FF9C27"/>
<path d="M45.7161 32.5221C45.7161 36.2835 42.6668 39.3328 38.9054 39.3328C35.144 39.3328 32.0947 36.2835 32.0947 32.5221C32.0947 28.7607 35.144 25.7114 38.9054 25.7114C42.6668 25.7114 45.7161 28.7607 45.7161 32.5221Z" fill="#FF9C27"/>
<path d="M42.1431 28.5715C42.1431 37.2502 34.468 44.2857 25.0003 44.2857C15.5325 44.2857 7.85742 37.2502 7.85742 28.5715C7.85742 19.8927 15.5325 12.8572 25.0003 12.8572C34.468 12.8572 42.1431 19.8927 42.1431 28.5715Z" fill="#FFBA68"/>
<mask id="mask0_133_49409" style="mask-type:alpha" maskUnits="userSpaceOnUse" x="7" y="12" width="36" height="33">
<path d="M42.1431 28.5715C42.1431 37.2502 34.468 44.2857 25.0003 44.2857C15.5325 44.2857 7.85742 37.2502 7.85742 28.5715C7.85742 19.8927 15.5325 12.8572 25.0003 12.8572C34.468 12.8572 42.1431 19.8927 42.1431 28.5715Z" fill="#FFAB49"/>
</mask>
<g mask="url(#mask0_133_49409)">
<path d="M19.2863 36.6446C19.2863 40.3142 16.2907 43.2891 12.5953 43.2891C8.89997 43.2891 5.9043 40.3142 5.9043 36.6446C5.9043 32.9749 8.89997 30 12.5953 30C16.2907 30 19.2863 32.9749 19.2863 36.6446Z" fill="#FF9A24"/>
<path d="M44.0969 36.6446C44.0969 40.3142 41.1012 43.2891 37.4059 43.2891C33.7105 43.2891 30.7148 40.3142 30.7148 36.6446C30.7148 32.9749 33.7105 30 37.4059 30C41.1012 30 44.0969 32.9749 44.0969 36.6446Z" fill="#FF9A24"/>
<rect x="19.2861" y="35.7144" width="11.4286" height="3.57143" rx="1.78571" fill="white"/>
<path d="M19.2861 37.5007L30.7147 37.5007" stroke="#FF9A24" stroke-width="0.714286"/>
<path d="M21.9531 35.7144L21.9531 39.2858" stroke="#FF9A24" stroke-width="0.714286"/>
<path d="M25 35.7144L25 39.2858" stroke="#FF9A24" stroke-width="0.714286"/>
<path d="M28.0479 35.7144L28.0479 39.2858" stroke="#FF9A24" stroke-width="0.714286"/>
<path fill-rule="evenodd" clip-rule="evenodd" d="M19.8994 27.0295C20.4152 27.0833 20.8833 26.9289 21.139 26.7813C21.3781 26.6432 21.6839 26.7251 21.822 26.9642C21.9601 27.2034 21.8782 27.5092 21.6391 27.6473C21.2282 27.8845 20.5507 28.1029 19.7956 28.0241C19.0179 27.943 18.1904 27.5489 17.5234 26.6136C17.3631 26.3888 17.4154 26.0766 17.6402 25.9162C17.865 25.7559 18.1773 25.8082 18.3376 26.033C18.8378 26.7343 19.4063 26.9781 19.8994 27.0295Z" fill="#905A09"/>
<path fill-rule="evenodd" clip-rule="evenodd" d="M30.0215 27.0295C29.5057 27.0833 29.0376 26.9289 28.7819 26.7813C28.5428 26.6432 28.237 26.7251 28.0989 26.9642C27.9608 27.2034 28.0427 27.5092 28.2818 27.6473C28.6927 27.8845 29.3702 28.1029 30.1253 28.0241C30.903 27.943 31.7305 27.5489 32.3975 26.6136C32.5578 26.3888 32.5055 26.0766 32.2807 25.9162C32.0559 25.7559 31.7436 25.8082 31.5833 26.033C31.0831 26.7343 30.5146 26.9781 30.0215 27.0295Z" fill="#905A09"/>
</g>
<path d="M25.7147 33.5688C25.7147 33.9633 25.3949 34.2831 25.0004 34.2831C24.6059 34.2831 24.2861 33.9633 24.2861 33.5688C24.2861 33.1743 24.6059 32.8545 25.0004 32.8545C25.3949 32.8545 25.7147 33.1743 25.7147 33.5688Z" fill="black"/>
<path d="M16.7098 30.3708C16.6609 29.7726 16.7453 29.153 16.9495 28.5579C17.2056 27.8117 18.1214 27.6585 18.7666 28.1126L22.2716 30.5789C22.9168 31.033 23.0818 31.9466 22.4659 32.4397C21.9747 32.8329 21.4199 33.1215 20.8404 33.2774C19.8301 33.5493 18.8274 33.3957 18.0527 32.8507C17.2781 32.3056 16.795 31.4135 16.7098 30.3708Z" fill="white"/>
<path d="M20.8661 31.336C20.412 31.9812 19.5209 32.1362 18.8756 31.6822C18.2304 31.2281 18.0754 30.337 18.5294 29.6917C18.9835 29.0465 19.8746 28.8915 20.5199 29.3456C21.1651 29.7996 21.3201 30.6907 20.8661 31.336Z" fill="black"/>
<path d="M33.1589 30.3708C33.2078 29.7726 33.1235 29.153 32.9192 28.5579C32.6631 27.8117 31.7473 27.6585 31.1021 28.1126L27.5972 30.5789C26.9519 31.033 26.7869 31.9466 27.4029 32.4397C27.894 32.8329 28.4488 33.1215 29.0283 33.2774C30.0386 33.5493 31.0414 33.3957 31.816 32.8507C32.5906 32.3056 33.0737 31.4135 33.1589 30.3708Z" fill="white"/>
<path d="M29.0031 31.336C29.4571 31.9812 30.3483 32.1362 30.9935 31.6822C31.6387 31.2281 31.7937 30.337 31.3397 29.6917C30.8857 29.0465 29.9945 28.8915 29.3493 29.3456C28.704 29.7996 28.549 30.6907 29.0031 31.336Z" fill="black"/>
<path d="M21.3589 11.9304C12.2297 2.91636 -1.21783 21.2587 8.21252 28.8316C8.21252 28.8316 10.7687 31.4606 16.6115 28.8316C22.4543 26.2026 24.2801 18.3152 24.2801 18.3152C24.2801 18.3152 29.0291 29.7122 40.8851 27.9967C42.6399 27.7427 44.0668 26.4231 44.4856 24.7002C48.6261 7.6653 26.5687 -0.987286 21.3589 11.9304Z" fill="#FF7777"/>
</svg>
