<svg width="50" height="50" viewBox="0 0 50 50" fill="none" xmlns="http://www.w3.org/2000/svg">
<path d="M17.9075 31.8077C17.9075 35.5692 14.8582 38.6184 11.0968 38.6184C7.33537 38.6184 4.28613 35.5692 4.28613 31.8077C4.28613 28.0463 7.33537 24.9971 11.0968 24.9971C14.8582 24.9971 17.9075 28.0463 17.9075 31.8077Z" fill="#FF9C27"/>
<path d="M45.7161 31.8077C45.7161 35.5692 42.6668 38.6184 38.9054 38.6184C35.144 38.6184 32.0947 35.5692 32.0947 31.8077C32.0947 28.0463 35.144 24.9971 38.9054 24.9971C42.6668 24.9971 45.7161 28.0463 45.7161 31.8077Z" fill="#FF9C27"/>
<path d="M42.1431 27.8571C42.1431 36.5359 34.468 43.5714 25.0003 43.5714C15.5325 43.5714 7.85742 36.5359 7.85742 27.8571C7.85742 19.1783 15.5325 12.1428 25.0003 12.1428C34.468 12.1428 42.1431 19.1783 42.1431 27.8571Z" fill="#FFBA68"/>
<mask id="mask0_133_49410" style="mask-type:alpha" maskUnits="userSpaceOnUse" x="7" y="12" width="36" height="32">
<path d="M42.1431 27.8571C42.1431 36.5359 34.468 43.5714 25.0003 43.5714C15.5325 43.5714 7.85742 36.5359 7.85742 27.8571C7.85742 19.1783 15.5325 12.1428 25.0003 12.1428C34.468 12.1428 42.1431 19.1783 42.1431 27.8571Z" fill="#FFAB49"/>
</mask>
<g mask="url(#mask0_133_49410)">
<path d="M19.2863 35.9302C19.2863 39.5999 16.2907 42.5748 12.5953 42.5748C8.89997 42.5748 5.9043 39.5999 5.9043 35.9302C5.9043 32.2605 8.89997 29.2856 12.5953 29.2856C16.2907 29.2856 19.2863 32.2605 19.2863 35.9302Z" fill="#FF9A24"/>
<path d="M44.0969 35.9302C44.0969 39.5999 41.1012 42.5748 37.4059 42.5748C33.7105 42.5748 30.7148 39.5999 30.7148 35.9302C30.7148 32.2605 33.7105 29.2856 37.4059 29.2856C41.1012 29.2856 44.0969 32.2605 44.0969 35.9302Z" fill="#FF9A24"/>
</g>
<path d="M25.7147 32.8544C25.7147 33.2489 25.3949 33.5687 25.0004 33.5687C24.6059 33.5687 24.2861 33.2489 24.2861 32.8544C24.2861 32.4599 24.6059 32.1401 25.0004 32.1401C25.3949 32.1401 25.7147 32.4599 25.7147 32.8544Z" fill="black"/>
<path fill-rule="evenodd" clip-rule="evenodd" d="M21.0689 35.204C23.6293 36.0017 26.3718 36.0017 28.9322 35.204C29.2072 35.1184 29.3525 34.8493 29.2569 34.6031C29.1613 34.3569 28.8609 34.2267 28.586 34.3123C26.251 35.0397 23.7501 35.0397 21.4152 34.3123C21.1402 34.2267 20.8399 34.3569 20.7442 34.6031C20.6486 34.8493 20.794 35.1184 21.0689 35.204Z" fill="#A75A00"/>
<path fill-rule="evenodd" clip-rule="evenodd" d="M16.1791 26.9187C16.4356 27.452 17.1239 27.6532 17.7164 27.3682L22.0077 25.3041C22.6002 25.0191 22.8725 24.3558 22.616 23.8225C22.3595 23.2893 21.6713 23.088 21.0788 23.373L16.7875 25.4372C16.195 25.7222 15.9226 26.3855 16.1791 26.9187Z" fill="black" stroke="black" stroke-width="0.714286" stroke-linecap="round"/>
<path d="M18.0124 32.0998C17.4619 31.8608 16.9553 31.4942 16.5269 31.0334C15.9896 30.4556 16.2865 29.5759 16.9912 29.221L20.819 27.2937C21.5237 26.9388 22.4072 27.2243 22.5515 27.9999C22.6665 28.6185 22.6594 29.2438 22.5235 29.8283C22.2868 30.8474 21.6785 31.6592 20.8325 32.0852C19.9865 32.5112 18.972 32.5164 18.0124 32.0998Z" fill="white"/>
<path fill-rule="evenodd" clip-rule="evenodd" d="M18.725 30.3274C18.8095 30.503 19.0665 30.5545 19.2992 30.4426L20.9843 29.6321C21.2169 29.5202 21.3371 29.2872 21.2526 29.1116C21.1682 28.936 20.9111 28.8845 20.6785 28.9964L18.9934 29.8069C18.7607 29.9188 18.6406 30.1518 18.725 30.3274Z" fill="black"/>
<path d="M31.763 32.0998C32.3135 31.8608 32.8201 31.4942 33.2485 31.0334C33.7858 30.4556 33.4889 29.5759 32.7842 29.221L28.9564 27.2937C28.2517 26.9388 27.3682 27.2243 27.2239 27.9999C27.1088 28.6185 27.116 29.2438 27.2518 29.8283C27.4886 30.8474 28.0969 31.6592 28.9429 32.0852C29.7889 32.5112 30.8034 32.5164 31.763 32.0998Z" fill="white"/>
<path fill-rule="evenodd" clip-rule="evenodd" d="M31.0504 30.3274C30.9659 30.503 30.7089 30.5545 30.4762 30.4426L28.7911 29.6321C28.5585 29.5202 28.4383 29.2872 28.5228 29.1116C28.6072 28.936 28.8643 28.8845 29.0969 28.9964L30.782 29.8069C31.0146 29.9188 31.1348 30.1518 31.0504 30.3274Z" fill="black"/>
<path fill-rule="evenodd" clip-rule="evenodd" d="M34.0445 26.9187C33.788 27.452 33.0998 27.6532 32.5073 27.3682L28.216 25.3041C27.6235 25.0191 27.3511 24.3558 27.6076 23.8225C27.8641 23.2893 28.5523 23.088 29.1448 23.373L33.4361 25.4372C34.0286 25.7222 34.301 26.3855 34.0445 26.9187Z" fill="black" stroke="black" stroke-width="0.714286" stroke-linecap="round"/>
<path d="M18.3447 10.5342C4.27094 9.27231 5.45793 21.9658 8.01804 25.7141L17.0854 23.3995L18.9687 17.5211C20.2014 24.651 17.9286 24.0109 42.4129 25.7143C49.4919 7.20345 21.9684 3.34986 18.3447 10.5342Z" fill="black"/>
</svg>
