<svg width="50" height="50" viewBox="0 0 50 50" fill="none" xmlns="http://www.w3.org/2000/svg">
<path d="M17.9065 32.5221C17.9065 36.2835 14.8573 39.3328 11.0958 39.3328C7.3344 39.3328 4.28516 36.2835 4.28516 32.5221C4.28516 28.7607 7.3344 25.7114 11.0958 25.7114C14.8573 25.7114 17.9065 28.7607 17.9065 32.5221Z" fill="#65B118"/>
<path d="M45.7151 32.5221C45.7151 36.2835 42.6658 39.3328 38.9044 39.3328C35.143 39.3328 32.0938 36.2835 32.0938 32.5221C32.0938 28.7607 35.143 25.7114 38.9044 25.7114C42.6658 25.7114 45.7151 28.7607 45.7151 32.5221Z" fill="#65B118"/>
<path d="M42.1422 28.5715C42.1422 37.2502 34.467 44.2857 24.9993 44.2857C15.5316 44.2857 7.85645 37.2502 7.85645 28.5715C7.85645 19.8927 15.5316 12.8572 24.9993 12.8572C34.467 12.8572 42.1422 19.8927 42.1422 28.5715Z" fill="#AAD77D"/>
<mask id="mask0_133_49408" style="mask-type:alpha" maskUnits="userSpaceOnUse" x="7" y="12" width="36" height="33">
<path d="M42.1422 28.5715C42.1422 37.2502 34.467 44.2857 24.9993 44.2857C15.5316 44.2857 7.85645 37.2502 7.85645 28.5715C7.85645 19.8927 15.5316 12.8572 24.9993 12.8572C34.467 12.8572 42.1422 19.8927 42.1422 28.5715Z" fill="#FFAB49"/>
</mask>
<g mask="url(#mask0_133_49408)">
<path d="M19.2854 36.6446C19.2854 40.3142 16.2897 43.2891 12.5943 43.2891C8.89899 43.2891 5.90332 40.3142 5.90332 36.6446C5.90332 32.9749 8.89899 30 12.5943 30C16.2897 30 19.2854 32.9749 19.2854 36.6446Z" fill="#79C42E"/>
<path d="M44.0959 36.6446C44.0959 40.3142 41.1002 43.2891 37.4049 43.2891C33.7095 43.2891 30.7139 40.3142 30.7139 36.6446C30.7139 32.9749 33.7095 30 37.4049 30C41.1002 30 44.0959 32.9749 44.0959 36.6446Z" fill="#79C42E"/>
</g>
<path d="M25.7137 33.5688C25.7137 33.9633 25.3939 34.2831 24.9994 34.2831C24.605 34.2831 24.2852 33.9633 24.2852 33.5688C24.2852 33.1743 24.605 32.8545 24.9994 32.8545C25.3939 32.8545 25.7137 33.1743 25.7137 33.5688Z" fill="black"/>
<path d="M28.1883 31.6019C27.8042 31.1409 27.5165 30.5856 27.3411 29.9814C27.1211 29.2237 27.7819 28.5715 28.5709 28.5715L32.8566 28.5715C33.6456 28.5715 34.3063 29.2237 34.0864 29.9814C33.9109 30.5856 33.6233 31.1409 33.2391 31.6019C32.5693 32.4056 31.6609 32.8572 30.7137 32.8572C29.7665 32.8572 28.8581 32.4056 28.1883 31.6019Z" fill="white"/>
<path d="M16.7596 31.6019C16.3754 31.1409 16.0878 30.5856 15.9124 29.9814C15.6924 29.2237 16.3532 28.5715 17.1422 28.5715L21.4279 28.5715C22.2169 28.5715 22.8776 29.2237 22.6576 29.9814C22.4822 30.5856 22.1946 31.1409 21.8104 31.6019C21.1406 32.4056 20.2322 32.8572 19.285 32.8572C18.3378 32.8572 17.4294 32.4056 16.7596 31.6019Z" fill="white"/>
<path fill-rule="evenodd" clip-rule="evenodd" d="M19.5727 37.4011C19.7169 37.6367 20.0247 37.7107 20.2602 37.5665L21.2597 36.9545C21.9344 36.5415 22.7776 36.5172 23.4749 36.8908C24.427 37.4008 25.5712 37.4008 26.5233 36.8908C27.2206 36.5172 28.0638 36.5415 28.7385 36.9545L29.738 37.5665C29.9735 37.7107 30.2813 37.6367 30.4255 37.4011C30.5697 37.1656 30.4957 36.8578 30.2602 36.7136L29.2606 36.1017C28.2831 35.5032 27.0614 35.468 26.0511 36.0093C25.3939 36.3613 24.6043 36.3613 23.9471 36.0093C22.9367 35.468 21.7151 35.5032 20.7375 36.1017L19.738 36.7136C19.5025 36.8578 19.4285 37.1656 19.5727 37.4011Z" fill="#A75A00"/>
<path d="M20.7136 30.0001C20.7136 30.7891 20.074 31.4287 19.285 31.4287C18.496 31.4287 17.8564 30.7891 17.8564 30.0001C17.8564 29.2111 18.496 28.5715 19.285 28.5715C20.074 28.5715 20.7136 29.2111 20.7136 30.0001Z" fill="black"/>
<path d="M32.1423 30.0001C32.1423 30.7891 31.5027 31.4287 30.7137 31.4287C29.9247 31.4287 29.2852 30.7891 29.2852 30.0001C29.2852 29.2111 29.9247 28.5715 30.7137 28.5715C31.5027 28.5715 32.1423 29.2111 32.1423 30.0001Z" fill="black"/>
<path fill-rule="evenodd" clip-rule="evenodd" d="M16.0713 26.4286C16.0713 25.8369 16.551 25.3572 17.1427 25.3572H21.4284C22.0202 25.3572 22.4999 25.8369 22.4999 26.4286C22.4999 27.0203 22.0202 27.5 21.4284 27.5H17.1427C16.551 27.5 16.0713 27.0203 16.0713 26.4286Z" fill="#905A09"/>
<path fill-rule="evenodd" clip-rule="evenodd" d="M27.499 26.4286C27.499 25.8369 27.9787 25.3572 28.5705 25.3572H32.8562C33.4479 25.3572 33.9276 25.8369 33.9276 26.4286C33.9276 27.0203 33.4479 27.5 32.8562 27.5H28.5705C27.9787 27.5 27.499 27.0203 27.499 26.4286Z" fill="#905A09"/>
<path d="M18.1359 8.28009C23.2894 10.331 26.8074 4.39531 36.0613 11.4128C38.5748 11.106 36.0613 2.17957 39.7463 7.29087C42.6943 11.3799 40.1028 12.4745 38.5394 12.1447C44.7379 16.2667 48.256 29.622 40.7514 28.3956C31.6484 26.9079 35.0555 15.0402 32.7102 18.0081C30.3648 20.9759 11.6058 29.9325 7.74862 28.3956C5.03347 27.3137 5.03347 23.5214 7.74862 22.4599C7.41377 22.0751 5.56956 22.3673 5.03347 19.7292C4.49738 17.0911 10.5413 12.512 13.1101 11.4128C13.1101 8.60985 12.6859 6.11118 18.1359 8.28009Z" fill="black"/>
<path fill-rule="evenodd" clip-rule="evenodd" d="M23.2537 31.7487C23.2082 31.7737 23.163 31.7986 23.1178 31.8232C22.6758 32.0634 22.1179 31.9085 21.8718 31.477C21.6256 31.0456 21.7844 30.5011 22.2264 30.2608C22.2637 30.2406 22.3049 30.2176 22.3498 30.1926C22.7525 29.9683 23.4555 29.5769 24.3535 29.4326C25.3965 29.265 26.6299 29.4317 28.0226 30.2846C28.4512 30.547 28.5806 31.0989 28.3118 31.5172C28.0429 31.9355 27.4775 32.0619 27.0489 31.7994C26.0098 31.1631 25.2252 31.1049 24.6511 31.1971C24.0937 31.2867 23.6662 31.5218 23.2537 31.7487Z" fill="black"/>
<path d="M22.3284 30.4724C22.3284 32.5809 20.587 34.3155 18.4074 34.3155C16.2277 34.3155 14.4863 32.5809 14.4863 30.4724C14.4863 28.3639 16.2277 26.6294 18.4074 26.6294C20.587 26.6294 22.3284 28.3639 22.3284 30.4724Z" stroke="black" stroke-width="1.83002"/>
<path d="M35.3489 30.4724C35.3489 32.5809 33.6075 34.3155 31.4279 34.3155C29.2482 34.3155 27.5068 32.5809 27.5068 30.4724C27.5068 28.3639 29.2482 26.6294 31.4279 26.6294C33.6075 26.6294 35.3489 28.3639 35.3489 30.4724Z" stroke="black" stroke-width="1.83002"/>
</svg>
