<svg width="50" height="50" viewBox="0 0 50 50" fill="none" xmlns="http://www.w3.org/2000/svg">
<path d="M17.9065 31.8077C17.9065 35.5692 14.8573 38.6184 11.0958 38.6184C7.3344 38.6184 4.28516 35.5692 4.28516 31.8077C4.28516 28.0463 7.3344 24.9971 11.0958 24.9971C14.8573 24.9971 17.9065 28.0463 17.9065 31.8077Z" fill="#FF9C27"/>
<path d="M45.7151 31.8077C45.7151 35.5692 42.6658 38.6184 38.9044 38.6184C35.143 38.6184 32.0938 35.5692 32.0938 31.8077C32.0938 28.0463 35.143 24.9971 38.9044 24.9971C42.6658 24.9971 45.7151 28.0463 45.7151 31.8077Z" fill="#FF9C27"/>
<path d="M42.1422 27.8571C42.1422 36.5359 34.467 43.5714 24.9993 43.5714C15.5316 43.5714 7.85645 36.5359 7.85645 27.8571C7.85645 19.1783 15.5316 12.1428 24.9993 12.1428C34.467 12.1428 42.1422 19.1783 42.1422 27.8571Z" fill="#FFBA68"/>
<mask id="mask0_133_49407" style="mask-type:alpha" maskUnits="userSpaceOnUse" x="7" y="12" width="36" height="32">
<path d="M42.1422 27.8571C42.1422 36.5359 34.467 43.5714 24.9993 43.5714C15.5316 43.5714 7.85645 36.5359 7.85645 27.8571C7.85645 19.1783 15.5316 12.1428 24.9993 12.1428C34.467 12.1428 42.1422 19.1783 42.1422 27.8571Z" fill="#FFAB49"/>
</mask>
<g mask="url(#mask0_133_49407)">
<path d="M19.2854 35.9302C19.2854 39.5999 16.2897 42.5748 12.5943 42.5748C8.89899 42.5748 5.90332 39.5999 5.90332 35.9302C5.90332 32.2605 8.89899 29.2856 12.5943 29.2856C16.2897 29.2856 19.2854 32.2605 19.2854 35.9302Z" fill="#FF9A24"/>
<path d="M44.0959 35.9302C44.0959 39.5999 41.1002 42.5748 37.4049 42.5748C33.7095 42.5748 30.7139 39.5999 30.7139 35.9302C30.7139 32.2605 33.7095 29.2856 37.4049 29.2856C41.1002 29.2856 44.0959 32.2605 44.0959 35.9302Z" fill="#FF9A24"/>
</g>
<path d="M25.7137 32.8544C25.7137 33.2489 25.3939 33.5687 24.9994 33.5687C24.605 33.5687 24.2852 33.2489 24.2852 32.8544C24.2852 32.4599 24.605 32.1401 24.9994 32.1401C25.3939 32.1401 25.7137 32.4599 25.7137 32.8544Z" fill="black"/>
<path d="M28.1883 30.8876C27.8042 30.4265 27.5165 29.8713 27.3411 29.2671C27.1211 28.5094 27.7819 27.8571 28.5709 27.8571L32.8566 27.8571C33.6456 27.8571 34.3063 28.5094 34.0864 29.2671C33.9109 29.8713 33.6233 30.4265 33.2391 30.8876C32.5693 31.6913 31.6609 32.1428 30.7137 32.1428C29.7665 32.1428 28.8581 31.6913 28.1883 30.8876Z" fill="white"/>
<path d="M16.7596 30.8876C16.3754 30.4265 16.0878 29.8713 15.9124 29.2671C15.6924 28.5094 16.3532 27.8571 17.1422 27.8571L21.4279 27.8571C22.2169 27.8571 22.8776 28.5094 22.6576 29.2671C22.4822 29.8713 22.1946 30.4265 21.8104 30.8876C21.1406 31.6913 20.2322 32.1428 19.285 32.1428C18.3378 32.1428 17.4294 31.6913 16.7596 30.8876Z" fill="white"/>
<path fill-rule="evenodd" clip-rule="evenodd" d="M19.5727 36.6868C19.7169 36.9223 20.0247 36.9963 20.2602 36.8521L21.2597 36.2402C21.9344 35.8271 22.7776 35.8028 23.4749 36.1764C24.427 36.6865 25.5712 36.6865 26.5233 36.1764C27.2206 35.8028 28.0638 35.8271 28.7385 36.2402L29.738 36.8521C29.9735 36.9963 30.2813 36.9223 30.4255 36.6868C30.5697 36.4513 30.4957 36.1435 30.2602 35.9993L29.2606 35.3873C28.2831 34.7888 27.0614 34.7537 26.0511 35.2949C25.3939 35.647 24.6043 35.647 23.9471 35.2949C22.9367 34.7537 21.7151 34.7888 20.7375 35.3873L19.738 35.9993C19.5025 36.1435 19.4285 36.4513 19.5727 36.6868Z" fill="#A75A00"/>
<path d="M20.7136 29.2857C20.7136 30.0747 20.074 30.7143 19.285 30.7143C18.496 30.7143 17.8564 30.0747 17.8564 29.2857C17.8564 28.4968 18.496 27.8572 19.285 27.8572C20.074 27.8572 20.7136 28.4968 20.7136 29.2857Z" fill="black"/>
<path d="M32.1423 29.2857C32.1423 30.0747 31.5027 30.7143 30.7137 30.7143C29.9247 30.7143 29.2852 30.0747 29.2852 29.2857C29.2852 28.4968 29.9247 27.8572 30.7137 27.8572C31.5027 27.8572 32.1423 28.4968 32.1423 29.2857Z" fill="black"/>
<path fill-rule="evenodd" clip-rule="evenodd" d="M16.0713 25.7143C16.0713 25.1225 16.551 24.6428 17.1427 24.6428H21.4284C22.0202 24.6428 22.4999 25.1225 22.4999 25.7143C22.4999 26.306 22.0202 26.7857 21.4284 26.7857H17.1427C16.551 26.7857 16.0713 26.306 16.0713 25.7143Z" fill="#905A09"/>
<path fill-rule="evenodd" clip-rule="evenodd" d="M27.499 25.7143C27.499 25.1225 27.9787 24.6428 28.5705 24.6428H32.8562C33.4479 24.6428 33.9276 25.1225 33.9276 25.7143C33.9276 26.306 33.4479 26.7857 32.8562 26.7857H28.5705C27.9787 26.7857 27.499 26.306 27.499 25.7143Z" fill="#905A09"/>
<path d="M18.3447 10.5342C4.27094 9.27231 5.45793 21.9658 8.01804 25.7141L17.0854 23.3995L18.9687 17.5211C20.2014 24.651 17.9286 24.0109 42.4129 25.7143C49.4919 7.20345 21.9684 3.34986 18.3447 10.5342Z" fill="#6B4D20"/>
</svg>
