<svg width="50" height="50" viewBox="0 0 50 50" fill="none" xmlns="http://www.w3.org/2000/svg">
<path d="M17.9065 33.9537C17.9065 37.7152 14.8573 40.7644 11.0958 40.7644C7.3344 40.7644 4.28516 37.7152 4.28516 33.9537C4.28516 30.1923 7.3344 27.1431 11.0958 27.1431C14.8573 27.1431 17.9065 30.1923 17.9065 33.9537Z" fill="#A66ABB"/>
<path d="M45.7151 33.9537C45.7151 37.7152 42.6658 40.7644 38.9044 40.7644C35.143 40.7644 32.0938 37.7152 32.0938 33.9537C32.0938 30.1923 35.143 27.1431 38.9044 27.1431C42.6658 27.1431 45.7151 30.1923 45.7151 33.9537Z" fill="#A66ABB"/>
<path d="M42.1422 30.0029C42.1422 38.6816 34.467 45.7171 24.9993 45.7171C15.5316 45.7171 7.85645 38.6816 7.85645 30.0029C7.85645 21.3241 15.5316 14.2886 24.9993 14.2886C34.467 14.2886 42.1422 21.3241 42.1422 30.0029Z" fill="#C6AAD0"/>
<mask id="mask0_133_49411" style="mask-type:alpha" maskUnits="userSpaceOnUse" x="7" y="14" width="36" height="32">
<path d="M42.1422 30.0002C42.1422 38.6789 34.467 45.7145 24.9993 45.7145C15.5316 45.7145 7.85645 38.6789 7.85645 30.0002C7.85645 21.3214 15.5316 14.2859 24.9993 14.2859C34.467 14.2859 42.1422 21.3214 42.1422 30.0002Z" fill="#FFAB49"/>
</mask>
<g mask="url(#mask0_133_49411)">
<path d="M19.0813 38.0733C19.0813 41.743 16.0856 44.7178 12.3902 44.7178C8.69489 44.7178 5.69922 41.743 5.69922 38.0733C5.69922 34.4036 8.69489 31.4287 12.3902 31.4287C16.0856 31.4287 19.0813 34.4036 19.0813 38.0733Z" fill="#BF92CF"/>
<path d="M44.0236 38.0733C44.0236 41.743 41.028 44.7178 37.3326 44.7178C33.6373 44.7178 30.6416 41.743 30.6416 38.0733C30.6416 34.4036 33.6373 31.4287 37.3326 31.4287C41.028 31.4287 44.0236 34.4036 44.0236 38.0733Z" fill="#BF92CF"/>
<path fill-rule="evenodd" clip-rule="evenodd" d="M26.8585 39.5474C27.0823 39.1397 27.1294 38.6526 26.9973 38.1928C26.8653 37.7329 26.5621 37.3283 26.1473 37.0708C25.7314 36.8126 25.2362 36.7236 24.7717 36.8328C24.5028 36.8961 24.3467 37.1625 24.4229 37.4279C24.4991 37.6933 24.7788 37.8572 25.0476 37.794C25.2367 37.7495 25.4461 37.7836 25.6307 37.8981C25.8164 38.0134 25.9604 38.2007 26.0239 38.4217C26.0873 38.6428 26.0623 38.8698 25.9621 39.0523C25.8625 39.2337 25.6979 39.3557 25.5088 39.4002C25.24 39.4634 25.0839 39.7298 25.1601 39.9952C25.2363 40.2606 25.516 40.4245 25.7848 40.3613C26.2494 40.2521 26.6341 39.9561 26.8585 39.5474Z" fill="#A75A00"/>
</g>
<path d="M25.7137 35.0002C25.7137 35.3947 25.3939 35.7145 24.9994 35.7145C24.605 35.7145 24.2852 35.3947 24.2852 35.0002C24.2852 34.6057 24.605 34.2859 24.9994 34.2859C25.3939 34.2859 25.7137 34.6057 25.7137 35.0002Z" fill="black"/>
<path d="M22.8569 32.1428C22.8569 33.7207 21.5777 34.9999 19.9997 34.9999C18.4218 34.9999 17.1426 33.7207 17.1426 32.1428C17.1426 30.5648 18.4218 29.2856 19.9997 29.2856C21.5777 29.2856 22.8569 30.5648 22.8569 32.1428Z" fill="white"/>
<path d="M21.4284 32.1429C21.4284 32.9319 20.7888 33.5715 19.9999 33.5715C19.2109 33.5715 18.5713 32.9319 18.5713 32.1429C18.5713 31.3539 19.2109 30.7144 19.9999 30.7144C20.7888 30.7144 21.4284 31.3539 21.4284 32.1429Z" fill="black"/>
<path d="M32.8569 32.143C32.8569 33.721 31.5777 35.0002 29.9997 35.0002C28.4218 35.0002 27.1426 33.721 27.1426 32.143C27.1426 30.5651 28.4218 29.2859 29.9997 29.2859C31.5777 29.2859 32.8569 30.5651 32.8569 32.143Z" fill="white"/>
<path d="M31.4284 32.1429C31.4284 32.9319 30.7888 33.5715 29.9999 33.5715C29.2109 33.5715 28.5713 32.9319 28.5713 32.1429C28.5713 31.3539 29.2109 30.7144 29.9999 30.7144C30.7888 30.7144 31.4284 31.3539 31.4284 32.1429Z" fill="black"/>
<path fill-rule="evenodd" clip-rule="evenodd" d="M21.8031 28.1092C21.7415 28.3783 21.4733 28.5466 21.2041 28.4849L16.9689 27.515C16.6998 27.4534 16.5315 27.1852 16.5932 26.916C16.6548 26.6469 16.923 26.4786 17.1922 26.5403L21.4274 27.5102C21.6965 27.5718 21.8648 27.84 21.8031 28.1092Z" fill="#905A09"/>
<path fill-rule="evenodd" clip-rule="evenodd" d="M27.9351 28.1092C27.9968 28.3783 28.265 28.5466 28.5341 28.4849L32.7693 27.515C33.0385 27.4534 33.2067 27.1852 33.1451 26.916C33.0835 26.6469 32.8153 26.4786 32.5461 26.5403L28.3109 27.5102C28.0417 27.5718 27.8735 27.84 27.9351 28.1092Z" fill="#905A09"/>
<path fill-rule="evenodd" clip-rule="evenodd" d="M27.1544 11.5255C24.9783 10.2571 22.2319 7.95454 20.1981 4.07194C19.2249 2.21396 16.7268 5.84418 17.0395 9.79449C16.1784 8.77788 15.3497 7.58047 14.6143 6.17643C13.3651 3.7916 9.60361 10.4488 12.4987 15.2188C8.76928 17.88 6.42871 21.7152 6.42871 25.9787C6.42871 28.4668 7.22586 30.8091 8.63098 32.8572C8.93544 32.0599 9.32495 31.2931 9.79089 30.5637C9.76934 31.2452 10.2628 31.8066 10.9753 31.8618L12.6048 31.988C13.3914 32.0489 14.1472 31.4697 14.2928 30.6942L15.2692 25.4956C18.0658 23.912 21.4657 22.9834 25.1324 22.9834C28.4539 22.9834 31.5565 23.7454 34.19 25.066L35.2471 30.6942C35.3927 31.4697 36.1485 32.0489 36.9351 31.988L38.5646 31.8618C39.3512 31.8009 39.8709 31.1229 39.7252 30.3475L39.5189 29.249C40.3648 30.2809 41.0471 31.409 41.5358 32.6088C42.8372 30.6205 43.5716 28.3668 43.5716 25.9787C43.5716 18.5138 36.3963 12.3619 27.1544 11.5255Z" fill="#337AFF"/>
</svg>
