<svg width="50" height="66" viewBox="0 0 50 66" fill="none" xmlns="http://www.w3.org/2000/svg">
<rect x="0.5" y="0.5" width="49" height="49" rx="9.5" fill="white" stroke="#E6E6E6"/>
<g clip-path="url(#clip0_44_8892)">
<path d="M25.7485 27.7367C26.8474 27.7367 27.7382 26.8459 27.7382 25.747C27.7382 24.6481 26.8474 23.7573 25.7485 23.7573C24.6496 23.7573 23.7588 24.6481 23.7588 25.747C23.7588 26.8459 24.6496 27.7367 25.7485 27.7367Z" fill="#61DAFB"/>
<path d="M33.3055 22.4657C32.9215 22.3261 32.5201 22.1865 32.1012 22.0643C32.2059 21.6454 32.2932 21.2265 32.363 20.8251C32.7295 18.5212 32.3281 16.8981 31.2111 16.2697C30.8794 16.0777 30.5129 15.9905 30.094 15.9905C28.8723 15.9905 27.3189 16.8981 25.7481 18.4165C24.1773 16.8981 22.624 15.9905 21.4022 15.9905C20.9833 15.9905 20.6168 16.0777 20.2852 16.2697C19.1682 16.9155 18.7667 18.5387 19.1333 20.8251C19.2031 21.2265 19.2904 21.6454 19.3951 22.0643C18.9762 22.1865 18.5748 22.3086 18.1908 22.4657C16.0091 23.3035 14.8223 24.4554 14.8223 25.747C14.8223 27.0385 16.0266 28.1904 18.1908 29.0282C18.5748 29.1678 18.9762 29.3075 19.3951 29.4296C19.2904 29.8485 19.2031 30.2674 19.1333 30.6688C18.7667 32.9727 19.1682 34.5959 20.2852 35.2242C20.6168 35.4162 20.9833 35.5034 21.4022 35.5034C22.6414 35.5034 24.1948 34.5959 25.7481 33.0774C27.3189 34.5959 28.8723 35.5034 30.094 35.5034C30.5129 35.5034 30.8794 35.4162 31.2111 35.2242C32.3281 34.5784 32.7295 32.9552 32.363 30.6688C32.2932 30.2674 32.2059 29.8485 32.1012 29.4296C32.5201 29.3075 32.9215 29.1853 33.3055 29.0282C35.4872 28.1904 36.674 27.0385 36.674 25.747C36.674 24.4554 35.4872 23.3035 33.3055 22.4657ZM30.7224 17.1424C31.438 17.5613 31.6823 18.8528 31.3856 20.6855C31.3332 21.052 31.246 21.436 31.1412 21.8374C30.2337 21.6279 29.2737 21.4883 28.2614 21.4011C27.668 20.5633 27.0571 19.8128 26.4463 19.1321C27.7378 17.858 29.0468 16.9853 30.1115 16.9853C30.3384 16.9853 30.5478 17.0377 30.7224 17.1424ZM28.7676 27.4923C28.4534 28.0508 28.0869 28.6093 27.7029 29.1678C27.0571 29.2202 26.4114 29.2377 25.7481 29.2377C25.0674 29.2377 24.4217 29.2202 23.7933 29.1678C23.4094 28.6093 23.0603 28.0508 22.7461 27.4923C22.4145 26.9163 22.1004 26.3229 21.8211 25.747C22.1004 25.171 22.4145 24.5776 22.7461 24.0016C23.0603 23.4431 23.4268 22.8846 23.8108 22.3261C24.4566 22.2737 25.1024 22.2563 25.7656 22.2563C26.4463 22.2563 27.092 22.2737 27.7204 22.3261C28.1043 22.8846 28.4534 23.4431 28.7676 24.0016C29.0992 24.5776 29.4134 25.171 29.6926 25.747C29.3959 26.3229 29.0992 26.8989 28.7676 27.4923ZM30.2162 26.9163C30.478 27.5272 30.6875 28.1206 30.8794 28.714C30.286 28.8537 29.6577 28.9584 28.9945 29.0457C29.2039 28.714 29.4308 28.365 29.6228 27.9985C29.8322 27.6319 30.0242 27.2654 30.2162 26.9163ZM25.7481 31.6462C25.3292 31.1924 24.9278 30.7037 24.5438 30.1976C24.9453 30.215 25.3467 30.2325 25.7481 30.2325C26.1496 30.2325 26.551 30.215 26.9524 30.1976C26.5684 30.7037 26.167 31.1924 25.7481 31.6462ZM22.5018 29.0282C21.8386 28.9409 21.2102 28.8362 20.6168 28.6966C20.8088 28.1206 21.0182 27.5098 21.28 26.8989C21.472 27.248 21.664 27.6145 21.8735 27.9635C22.0829 28.3475 22.2923 28.6791 22.5018 29.0282ZM21.28 24.5776C21.0182 23.9667 20.8088 23.3733 20.6168 22.7799C21.2102 22.6402 21.8386 22.5355 22.5018 22.4483C22.2923 22.7799 22.0655 23.1289 21.8735 23.4955C21.664 23.862 21.472 24.2285 21.28 24.5776ZM25.7481 19.8477C26.167 20.3015 26.5684 20.7902 26.9524 21.2963C26.551 21.2789 26.1496 21.2614 25.7481 21.2614C25.3467 21.2614 24.9453 21.2789 24.5438 21.2963C24.9278 20.7902 25.3292 20.3015 25.7481 19.8477ZM29.6228 23.5129L28.9945 22.4657C29.6577 22.553 30.286 22.6577 30.8794 22.7973C30.6875 23.3733 30.478 23.9842 30.2162 24.595C30.0242 24.2285 29.8322 23.862 29.6228 23.5129ZM20.1107 20.6855C19.814 18.8528 20.0583 17.5613 20.7739 17.1424C20.9484 17.0377 21.1579 16.9853 21.3848 16.9853C22.432 16.9853 23.741 17.8405 25.05 19.1321C24.4391 19.7953 23.8282 20.5633 23.2348 21.4011C22.2225 21.4883 21.2626 21.6454 20.355 21.8374C20.2503 21.436 20.1805 21.052 20.1107 20.6855ZM15.7997 25.747C15.7997 24.9266 16.7945 24.054 18.5399 23.4082C18.8889 23.2686 19.2729 23.1464 19.6569 23.0417C19.9361 23.9143 20.2852 24.8394 20.7041 25.7644C20.2852 26.6894 19.9187 27.597 19.6569 28.4697C17.2483 27.7716 15.7997 26.7244 15.7997 25.747ZM20.7739 34.3515C20.0583 33.9326 19.814 32.6411 20.1107 30.8085C20.163 30.4419 20.2503 30.058 20.355 29.6565C21.2626 29.866 22.2225 30.0056 23.2348 30.0929C23.8282 30.9306 24.4391 31.6811 25.05 32.3618C23.7584 33.6359 22.4494 34.5086 21.3848 34.5086C21.1579 34.5086 20.9484 34.4562 20.7739 34.3515ZM31.3856 30.8085C31.6823 32.6411 31.438 33.9326 30.7224 34.3515C30.5478 34.4562 30.3384 34.5086 30.1115 34.5086C29.0643 34.5086 27.7553 33.6534 26.4463 32.3618C27.0571 31.6986 27.668 30.9306 28.2614 30.0929C29.2737 30.0056 30.2337 29.8485 31.1412 29.6565C31.246 30.058 31.3158 30.4419 31.3856 30.8085ZM32.9564 28.0857C32.6073 28.2254 32.2234 28.3475 31.8394 28.4522C31.5601 27.5796 31.2111 26.6545 30.7922 25.7295C31.2111 24.8045 31.5776 23.8969 31.8394 23.0242C34.248 23.7224 35.6966 24.7696 35.6966 25.747C35.6966 26.5673 34.6843 27.4399 32.9564 28.0857Z" fill="#61DAFB"/>
</g>
<path d="M11.0601 54.5156H13.9429C14.5874 54.5156 15.1265 54.627 15.5601 54.8496C15.9937 55.0684 16.314 55.375 16.521 55.7695C16.732 56.1602 16.8374 56.6133 16.8374 57.1289C16.8374 57.7031 16.7046 58.1973 16.439 58.6113C16.1773 59.0254 15.7827 59.3242 15.2554 59.5078L17.1655 63H15.9351L14.1597 59.7012C14.1167 59.7051 14.0484 59.707 13.9546 59.707H12.1148V63H11.0601V54.5156ZM13.9077 58.7461C14.5601 58.7461 15.0366 58.6074 15.3374 58.3301C15.6421 58.0527 15.7945 57.6523 15.7945 57.1289C15.7945 56.5977 15.6421 56.1855 15.3374 55.8926C15.0327 55.5996 14.5523 55.4531 13.896 55.4531H12.1148V58.7461H13.9077ZM20.5935 63.1289C19.988 63.1289 19.4607 62.9941 19.0115 62.7246C18.5623 62.4551 18.2166 62.0742 17.9744 61.582C17.7361 61.0898 17.617 60.5195 17.617 59.8711C17.617 59.2227 17.7361 58.6484 17.9744 58.1484C18.2166 57.6445 18.5545 57.2539 18.988 56.9766C19.4255 56.6953 19.9295 56.5547 20.4998 56.5547C20.9802 56.5547 21.4275 56.6621 21.8416 56.877C22.2556 57.0879 22.5916 57.4316 22.8494 57.9082C23.1111 58.3809 23.242 58.9883 23.242 59.7305V60.1523H18.6248C18.6404 60.5938 18.7322 60.9707 18.9002 61.2832C19.0681 61.5957 19.2966 61.834 19.5857 61.998C19.8787 62.1582 20.2146 62.2383 20.5935 62.2383C20.9529 62.2383 21.2556 62.1719 21.5017 62.0391C21.7517 61.9023 21.9412 61.7266 22.0701 61.5117H23.1482C23.0466 61.832 22.8767 62.1152 22.6384 62.3613C22.4041 62.6035 22.1111 62.793 21.7595 62.9297C21.4119 63.0625 21.0232 63.1289 20.5935 63.1289ZM22.2224 59.2969C22.2224 58.9414 22.1502 58.625 22.0056 58.3477C21.865 58.0664 21.6638 57.8457 21.4021 57.6855C21.1404 57.5254 20.8396 57.4453 20.4998 57.4453C20.1443 57.4453 19.8279 57.5293 19.5505 57.6973C19.2771 57.8652 19.0603 58.0918 18.9002 58.377C18.7439 58.6582 18.6541 58.9648 18.6306 59.2969H22.2224ZM24.0098 61.1953C24.0098 60.5352 24.2344 60.0703 24.6836 59.8008C25.1367 59.5312 25.709 59.3711 26.4004 59.3203C26.666 59.3008 26.9629 59.2832 27.291 59.2676C27.623 59.248 27.9004 59.2344 28.123 59.2266V58.7109C28.123 58.3008 28 57.9863 27.7539 57.7676C27.5117 57.5449 27.1543 57.4336 26.6816 57.4336C26.2949 57.4336 25.9785 57.5137 25.7324 57.6738C25.4863 57.8301 25.3262 58.0352 25.252 58.2891H24.1973C24.2402 57.9492 24.373 57.6484 24.5957 57.3867C24.8184 57.125 25.1133 56.9219 25.4805 56.7773C25.8516 56.6289 26.2676 56.5547 26.7285 56.5547C27.3379 56.5547 27.8887 56.7109 28.3809 57.0234C28.873 57.332 29.1191 57.9258 29.1191 58.8047V63H28.123V62.1328H28.0762C27.998 62.2969 27.877 62.457 27.7129 62.6133C27.5527 62.7656 27.3418 62.8945 27.0801 63C26.8223 63.1016 26.5215 63.1523 26.1777 63.1523C25.7715 63.1523 25.4043 63.0742 25.0762 62.918C24.748 62.7617 24.4883 62.5371 24.2969 62.2441C24.1055 61.9473 24.0098 61.5977 24.0098 61.1953ZM25.0176 61.2422C25.0176 61.5664 25.1387 61.8164 25.3809 61.9922C25.627 62.1641 25.9512 62.25 26.3535 62.25C26.7168 62.25 27.0312 62.1777 27.2969 62.0332C27.5664 61.8887 27.7715 61.6973 27.9121 61.459C28.0527 61.2207 28.123 60.9648 28.123 60.6914V60.0527C28.0293 60.0566 27.7715 60.0742 27.3496 60.1055L26.5176 60.1641C26.041 60.1953 25.6719 60.2988 25.4102 60.4746C25.1484 60.6504 25.0176 60.9062 25.0176 61.2422ZM33.0979 63.1289C32.508 63.1289 31.9924 62.9902 31.551 62.7129C31.1135 62.4316 30.7776 62.043 30.5432 61.5469C30.3088 61.0508 30.1916 60.4844 30.1916 59.8477C30.1916 59.207 30.3108 58.6387 30.5491 58.1426C30.7913 57.6426 31.1291 57.2539 31.5627 56.9766C32.0002 56.6953 32.5041 56.5547 33.0745 56.5547C33.5237 56.5547 33.9299 56.6387 34.2932 56.8066C34.6565 56.9707 34.9514 57.2051 35.178 57.5098C35.4084 57.8105 35.551 58.1602 35.6057 58.5586H34.5979C34.551 58.3555 34.4612 58.1699 34.3284 58.002C34.1955 57.834 34.0237 57.6992 33.8127 57.5977C33.6057 57.4961 33.3674 57.4453 33.0979 57.4453C32.7229 57.4453 32.3909 57.543 32.1018 57.7383C31.8166 57.9336 31.594 58.2109 31.4338 58.5703C31.2776 58.9258 31.1995 59.3398 31.1995 59.8125C31.1995 60.3008 31.2756 60.7266 31.428 61.0898C31.5842 61.4531 31.8049 61.7344 32.0901 61.9336C32.3791 62.1289 32.7151 62.2266 33.0979 62.2266C33.4768 62.2266 33.7991 62.1309 34.0647 61.9395C34.3342 61.7441 34.512 61.4727 34.5979 61.125H35.6057C35.551 61.5078 35.4143 61.8516 35.1955 62.1562C34.9768 62.457 34.6877 62.6953 34.3284 62.8711C33.969 63.043 33.5588 63.1289 33.0979 63.1289ZM39.3852 57.4805H38.0493V61.1719C38.0493 61.5469 38.1235 61.7988 38.272 61.9277C38.4204 62.0566 38.6235 62.1211 38.8813 62.1211C39.0766 62.1211 39.2759 62.1133 39.479 62.0977V63.0352C39.2759 63.0664 39.0415 63.082 38.7759 63.082C38.479 63.082 38.1977 63.0215 37.9321 62.9004C37.6665 62.7754 37.4497 62.5879 37.2817 62.3379C37.1138 62.0879 37.0298 61.7852 37.0298 61.4297V57.4805H36.0688V56.6367H37.0298V55.1133H38.0493V56.6367H39.3852V57.4805Z" fill="#999999"/>
<defs>
<clipPath id="clip0_44_8892">
<rect width="22.3404" height="22.3404" fill="white" transform="translate(14.5771 14.5769)"/>
</clipPath>
</defs>
</svg>
