<svg width="66" height="66" viewBox="0 0 66 66" fill="none" xmlns="http://www.w3.org/2000/svg">
<g filter="url(#filter0_d_44_7585)">
<circle cx="33" cy="29" r="25" fill="#337AFF"/>
<path fill-rule="evenodd" clip-rule="evenodd" d="M38.7212 41.9607H27.6912C23.39 41.9607 20.5 38.9419 20.5 34.4494V24.0569C20.5 19.5644 23.39 16.5457 27.6912 16.5457H32.365C32.8825 16.5457 33.3025 16.9657 33.3025 17.4832C33.3025 18.0007 32.8825 18.4207 32.365 18.4207H27.6912C24.4612 18.4207 22.375 20.6332 22.375 24.0569V34.4494C22.375 37.8732 24.4612 40.0857 27.6912 40.0857H38.7212C41.9512 40.0857 44.0387 37.8732 44.0387 34.4494V29.4144C44.0387 28.8969 44.4587 28.4769 44.9762 28.4769C45.4937 28.4769 45.9137 28.8969 45.9137 29.4144V34.4494C45.9137 38.9419 43.0225 41.9607 38.7212 41.9607Z" fill="white"/>
<path fill-rule="evenodd" clip-rule="evenodd" d="M29.085 33.2853H32.8062C33.2812 33.2853 33.7262 33.1016 34.0625 32.7653L43.4487 23.3791C43.8337 22.9941 44.0462 22.4816 44.0462 21.9366C44.0462 21.3903 43.8337 20.8766 43.4487 20.4916L41.9275 18.9703C41.1312 18.1766 39.8362 18.1766 39.0387 18.9703L29.6975 28.3116C29.3737 28.6353 29.19 29.0653 29.1787 29.5216L29.085 33.2853ZM32.8058 35.1602H28.1233C27.8708 35.1602 27.6283 35.0577 27.4521 34.8765C27.2758 34.6965 27.1796 34.4527 27.1858 34.199L27.3033 29.4752C27.3271 28.5352 27.7058 27.6515 28.3708 26.9852H28.3721L37.7133 17.644C39.2408 16.119 41.7246 16.119 43.2521 17.644L44.7733 19.1652C45.5146 19.9052 45.9221 20.889 45.9208 21.9365C45.9208 22.984 45.5133 23.9665 44.7733 24.7052L35.3871 34.0915C34.6983 34.7802 33.7808 35.1602 32.8058 35.1602Z" fill="white"/>
<path fill-rule="evenodd" clip-rule="evenodd" d="M42.6632 26.3957C42.4232 26.3957 42.1832 26.3044 42.0007 26.1207L36.2932 20.4132C35.927 20.0469 35.927 19.4532 36.2932 19.0869C36.6595 18.7207 37.252 18.7207 37.6182 19.0869L43.3257 24.7957C43.692 25.1619 43.692 25.7544 43.3257 26.1207C43.1432 26.3044 42.9032 26.3957 42.6632 26.3957Z" fill="white"/>
</g>
<defs>
<filter id="filter0_d_44_7585" x="0" y="0" width="66" height="66" filterUnits="userSpaceOnUse" color-interpolation-filters="sRGB">
<feFlood flood-opacity="0" result="BackgroundImageFix"/>
<feColorMatrix in="SourceAlpha" type="matrix" values="0 0 0 0 0 0 0 0 0 0 0 0 0 0 0 0 0 0 127 0" result="hardAlpha"/>
<feOffset dy="4"/>
<feGaussianBlur stdDeviation="4"/>
<feComposite in2="hardAlpha" operator="out"/>
<feColorMatrix type="matrix" values="0 0 0 0 0 0 0 0 0 0 0 0 0 0 0 0 0 0 0.25 0"/>
<feBlend mode="normal" in2="BackgroundImageFix" result="effect1_dropShadow_44_7585"/>
<feBlend mode="normal" in="SourceGraphic" in2="effect1_dropShadow_44_7585" result="shape"/>
</filter>
</defs>
</svg>
