<svg width="31" height="31" viewBox="0 0 31 31" fill="none" xmlns="http://www.w3.org/2000/svg">
<g clip-path="url(#clip0_44_8867)">
<path d="M10.5449 10.4942L9.1377 9.08691V19.2089L9.15465 19.6837C9.15465 19.9041 9.18856 20.1584 9.27333 20.4127L20.3957 24.3293L23.1593 23.1085L10.5449 10.4942Z" fill="#00C4B3"/>
<path d="M23.1597 23.1084L20.396 24.3292L9.30762 20.4126C9.52803 21.2264 9.98581 22.125 10.4945 22.6506L14.1058 26.245L22.1763 26.262L23.1597 23.1084Z" fill="#22D3C5"/>
<path d="M4.86534 15.6144C4.50929 15.9874 4.69579 16.7843 5.2553 17.3777L7.74766 19.887L9.3075 20.4465C9.25663 20.1922 9.18881 19.9378 9.18881 19.7174L9.17186 19.2427L9.13795 9.10373M23.1596 23.1084L24.3803 20.3278L20.4807 9.20546C20.2264 9.1546 19.9721 9.10373 19.7516 9.08678L19.26 9.06982L9.1549 9.08678" fill="#0075C9"/>
<path d="M23.16 23.1085L26.161 22.1251V13.8681L22.7023 10.3924C22.1936 9.88376 21.295 9.40902 20.4642 9.20557L24.3808 20.3279" fill="#00A8E1"/>
<path d="M19.9209 7.66259L17.4116 5.17024C16.8352 4.59377 16.0552 4.42423 15.6483 4.78028L9.1377 9.08679H19.2258L19.7175 9.10375C19.9379 9.10375 20.1922 9.13766 20.4465 9.22243L19.9209 7.66259Z" fill="#00C4B3"/>
</g>
<defs>
<clipPath id="clip0_44_8867">
<rect width="21.7021" height="21.7021" fill="white" transform="translate(4.57715 4.5769)"/>
</clipPath>
</defs>
</svg>
