<svg width="23" height="23" viewBox="0 0 23 23" fill="none" xmlns="http://www.w3.org/2000/svg">
<g clip-path="url(#clip0_967_8918)">
<path d="M11.7485 13.7367C12.8474 13.7367 13.7382 12.8459 13.7382 11.747C13.7382 10.6481 12.8474 9.75732 11.7485 9.75732C10.6496 9.75732 9.75879 10.6481 9.75879 11.747C9.75879 12.8459 10.6496 13.7367 11.7485 13.7367Z" fill="#61DAFB"/>
<path d="M19.3055 8.46571C18.9215 8.32608 18.5201 8.18646 18.1012 8.06428C18.2059 7.6454 18.2932 7.22652 18.363 6.82509C18.7295 4.52123 18.3281 2.89806 17.2111 2.26973C16.8794 2.07775 16.5129 1.99048 16.094 1.99048C14.8723 1.99048 13.3189 2.89806 11.7481 4.41651C10.1773 2.89806 8.62396 1.99048 7.40222 1.99048C6.98334 1.99048 6.61681 2.07775 6.2852 2.26973C5.16818 2.91551 4.76675 4.53868 5.13327 6.82509C5.20308 7.22652 5.29035 7.6454 5.39507 8.06428C4.97619 8.18646 4.57476 8.30863 4.19078 8.46571C2.0091 9.30348 0.822266 10.4554 0.822266 11.747C0.822266 13.0385 2.02655 14.1904 4.19078 15.0282C4.57476 15.1678 4.97619 15.3075 5.39507 15.4296C5.29035 15.8485 5.20308 16.2674 5.13327 16.6688C4.76675 18.9727 5.16818 20.5959 6.2852 21.2242C6.61681 21.4162 6.98334 21.5034 7.40222 21.5034C8.64141 21.5034 10.1948 20.5959 11.7481 19.0774C13.3189 20.5959 14.8723 21.5034 16.094 21.5034C16.5129 21.5034 16.8794 21.4162 17.2111 21.2242C18.3281 20.5784 18.7295 18.9552 18.363 16.6688C18.2932 16.2674 18.2059 15.8485 18.1012 15.4296C18.5201 15.3075 18.9215 15.1853 19.3055 15.0282C21.4872 14.1904 22.674 13.0385 22.674 11.747C22.674 10.4554 21.4872 9.30348 19.3055 8.46571ZM16.7224 3.14241C17.438 3.56129 17.6823 4.85285 17.3856 6.68546C17.3332 7.05198 17.246 7.43596 17.1412 7.83739C16.2337 7.62795 15.2737 7.48832 14.2614 7.40105C13.668 6.56328 13.0571 5.81279 12.4463 5.1321C13.7378 3.858 15.0468 2.98533 16.1115 2.98533C16.3384 2.98533 16.5478 3.03769 16.7224 3.14241ZM14.7676 13.4923C14.4534 14.0508 14.0869 14.6093 13.7029 15.1678C13.0571 15.2202 12.4114 15.2377 11.7481 15.2377C11.0674 15.2377 10.4217 15.2202 9.79334 15.1678C9.40937 14.6093 9.0603 14.0508 8.74613 13.4923C8.41452 12.9163 8.10036 12.3229 7.8211 11.747C8.10036 11.171 8.41452 10.5776 8.74613 10.0016C9.0603 9.44311 9.42682 8.88459 9.8108 8.32608C10.4566 8.27372 11.1024 8.25627 11.7656 8.25627C12.4463 8.25627 13.092 8.27372 13.7204 8.32608C14.1043 8.88459 14.4534 9.44311 14.7676 10.0016C15.0992 10.5776 15.4134 11.171 15.6926 11.747C15.3959 12.3229 15.0992 12.8989 14.7676 13.4923ZM16.2162 12.9163C16.478 13.5272 16.6875 14.1206 16.8794 14.714C16.286 14.8537 15.6577 14.9584 14.9945 15.0457C15.2039 14.714 15.4308 14.365 15.6228 13.9985C15.8322 13.6319 16.0242 13.2654 16.2162 12.9163ZM11.7481 17.6462C11.3292 17.1924 10.9278 16.7037 10.5438 16.1976C10.9453 16.215 11.3467 16.2325 11.7481 16.2325C12.1496 16.2325 12.551 16.215 12.9524 16.1976C12.5684 16.7037 12.167 17.1924 11.7481 17.6462ZM8.50179 15.0282C7.83856 14.9409 7.21023 14.8362 6.61681 14.6966C6.8088 14.1206 7.01824 13.5098 7.28005 12.8989C7.47203 13.248 7.66402 13.6145 7.87346 13.9635C8.0829 14.3475 8.29235 14.6791 8.50179 15.0282ZM7.28005 10.5776C7.01824 9.96671 6.8088 9.37329 6.61681 8.77987C7.21023 8.64025 7.83856 8.53552 8.50179 8.44826C8.29235 8.77987 8.06545 9.12894 7.87346 9.49547C7.66402 9.86199 7.47203 10.2285 7.28005 10.5776ZM11.7481 5.84769C12.167 6.30148 12.5684 6.79018 12.9524 7.29633C12.551 7.27888 12.1496 7.26142 11.7481 7.26142C11.3467 7.26142 10.9453 7.27888 10.5438 7.29633C10.9278 6.79018 11.3292 6.30148 11.7481 5.84769ZM15.6228 9.51292L14.9945 8.46571C15.6577 8.55298 16.286 8.6577 16.8794 8.79733C16.6875 9.37329 16.478 9.98416 16.2162 10.595C16.0242 10.2285 15.8322 9.86199 15.6228 9.51292ZM6.11066 6.68546C5.81395 4.85285 6.0583 3.56129 6.77389 3.14241C6.94843 3.03769 7.15787 2.98533 7.38477 2.98533C8.43197 2.98533 9.74098 3.84054 11.05 5.1321C10.4391 5.79533 9.82825 6.56328 9.23483 7.40105C8.22253 7.48832 7.26259 7.6454 6.35501 7.83739C6.25029 7.43596 6.18048 7.05198 6.11066 6.68546ZM1.79966 11.747C1.79966 10.9266 2.79451 10.054 4.53985 9.4082C4.88892 9.26857 5.2729 9.1464 5.65687 9.04168C5.93613 9.91435 6.2852 10.8394 6.70408 11.7644C6.2852 12.6894 5.91868 13.597 5.65687 14.4697C3.2483 13.7716 1.79966 12.7244 1.79966 11.747ZM6.77389 20.3515C6.0583 19.9326 5.81395 18.6411 6.11066 16.8085C6.16302 16.4419 6.25029 16.058 6.35501 15.6565C7.26259 15.866 8.22253 16.0056 9.23483 16.0929C9.82825 16.9306 10.4391 17.6811 11.05 18.3618C9.75844 19.6359 8.44943 20.5086 7.38477 20.5086C7.15787 20.5086 6.94843 20.4562 6.77389 20.3515ZM17.3856 16.8085C17.6823 18.6411 17.438 19.9326 16.7224 20.3515C16.5478 20.4562 16.3384 20.5086 16.1115 20.5086C15.0643 20.5086 13.7553 19.6534 12.4463 18.3618C13.0571 17.6986 13.668 16.9306 14.2614 16.0929C15.2737 16.0056 16.2337 15.8485 17.1412 15.6565C17.246 16.058 17.3158 16.4419 17.3856 16.8085ZM18.9564 14.0857C18.6073 14.2254 18.2234 14.3475 17.8394 14.4522C17.5601 13.5796 17.2111 12.6545 16.7922 11.7295C17.2111 10.8045 17.5776 9.8969 17.8394 9.02422C20.248 9.72236 21.6966 10.7696 21.6966 11.747C21.6966 12.5673 20.6843 13.4399 18.9564 14.0857Z" fill="#61DAFB"/>
</g>
<defs>
<clipPath id="clip0_967_8918">
<rect width="22.3404" height="22.3404" fill="white" transform="translate(0.577148 0.576904)"/>
</clipPath>
</defs>
</svg>
