<svg width="50" height="50" viewBox="0 0 50 50" fill="none" xmlns="http://www.w3.org/2000/svg">
<mask id="mask0_113_30829" style="mask-type:luminance" maskUnits="userSpaceOnUse" x="10" y="11" width="30" height="30">
<path fill-rule="evenodd" clip-rule="evenodd" d="M10 11.5005H39.2485V40.749H10V11.5005Z" fill="white"/>
</mask>
<g mask="url(#mask0_113_30829)">
<path fill-rule="evenodd" clip-rule="evenodd" d="M23.2074 29.2265L28.6929 38.126C28.9329 38.516 29.3079 38.5115 29.4594 38.4905C29.6109 38.4695 29.9754 38.3765 30.1074 37.934L36.9669 14.7665C37.0869 14.357 36.8664 14.078 36.7674 13.979C36.6714 13.88 36.3969 13.6685 35.9994 13.781L12.8154 20.57C12.3759 20.699 12.2799 21.068 12.2589 21.2195C12.2379 21.374 12.2319 21.7565 12.6204 22.001L21.6219 27.6305L29.5749 19.5935C30.0114 19.1525 30.7239 19.148 31.1664 19.5845C31.6089 20.021 31.6119 20.735 31.1754 21.176L23.2074 29.2265ZM29.3424 40.7495C28.2984 40.7495 27.3414 40.2185 26.7774 39.3065L20.9619 29.87L11.4279 23.9075C10.4004 23.264 9.86342 22.118 10.0299 20.9135C10.1949 19.709 11.0214 18.752 12.1824 18.4115L35.3664 11.6225C36.4329 11.3105 37.5759 11.606 38.3619 12.389C39.1479 13.1795 39.4404 14.3345 39.1224 15.4055L32.2629 38.5715C31.9194 39.737 30.9594 40.5605 29.7579 40.721C29.6169 40.739 29.4804 40.7495 29.3424 40.7495Z" fill="#337AFF"/>
</g>
</svg>
