<svg width="50" height="50" viewBox="0 0 50 50" fill="none" xmlns="http://www.w3.org/2000/svg">
<path d="M10.6539 34.9622C10.8747 33.7995 12.0103 32.9302 13.1903 33.0205L18.1224 33.3982C19.3024 33.4886 20.08 34.5044 19.8592 35.667L18.8909 40.7655C18.67 41.9281 17.5344 42.7974 16.3544 42.7071L11.4224 42.3294C10.2423 42.239 9.46477 41.2233 9.68559 40.0606L10.6539 34.9622Z" fill="#925319"/>
<path d="M39.6049 34.9622C39.3841 33.7995 38.2485 32.9302 37.0685 33.0205L32.1364 33.3982C30.9564 33.4886 30.1788 34.5044 30.3996 35.667L31.3679 40.7655C31.5887 41.9281 32.7243 42.7974 33.9044 42.7071L38.8364 42.3294C40.0164 42.239 40.794 41.2233 40.5732 40.0606L39.6049 34.9622Z" fill="#925319"/>
<path d="M17.9084 29.6678C17.9084 33.4293 14.8592 36.4785 11.0978 36.4785C7.33635 36.4785 4.28711 33.4293 4.28711 29.6678C4.28711 25.9064 7.33635 22.8572 11.0978 22.8572C14.8592 22.8572 17.9084 25.9064 17.9084 29.6678Z" fill="#FF9C27"/>
<path d="M45.717 29.6678C45.717 33.4293 42.6678 36.4785 38.9064 36.4785C35.1449 36.4785 32.0957 33.4293 32.0957 29.6678C32.0957 25.9064 35.1449 22.8572 38.9064 22.8572C42.6678 22.8572 45.717 25.9064 45.717 29.6678Z" fill="#FF9C27"/>
<path d="M42.1441 25.717C42.1441 34.3957 34.469 41.4313 25.0013 41.4313C15.5335 41.4313 7.8584 34.3957 7.8584 25.717C7.8584 17.0382 15.5335 10.0027 25.0013 10.0027C34.469 10.0027 42.1441 17.0382 42.1441 25.717Z" fill="#FFBA68"/>
<mask id="mask0_133_49405" style="mask-type:alpha" maskUnits="userSpaceOnUse" x="7" y="10" width="36" height="32">
<path d="M42.1441 25.7143C42.1441 34.393 34.469 41.4286 25.0013 41.4286C15.5335 41.4286 7.8584 34.393 7.8584 25.7143C7.8584 17.0355 15.5335 10 25.0013 10C34.469 10 42.1441 17.0355 42.1441 25.7143Z" fill="#FFAB49"/>
</mask>
<g mask="url(#mask0_133_49405)">
<path d="M19.0832 33.7874C19.0832 37.4571 16.0875 40.4319 12.3922 40.4319C8.69684 40.4319 5.70117 37.4571 5.70117 33.7874C5.70117 30.1177 8.69684 27.1428 12.3922 27.1428C16.0875 27.1428 19.0832 30.1177 19.0832 33.7874Z" fill="#FF9A24"/>
<path d="M44.0256 33.7874C44.0256 37.4571 41.0299 40.4319 37.3346 40.4319C33.6392 40.4319 30.6436 37.4571 30.6436 33.7874C30.6436 30.1177 33.6392 27.1428 37.3346 27.1428C41.0299 27.1428 44.0256 30.1177 44.0256 33.7874Z" fill="#FF9A24"/>
</g>
<path d="M25.7157 30.7143C25.7157 31.1088 25.3959 31.4286 25.0014 31.4286C24.6069 31.4286 24.2871 31.1088 24.2871 30.7143C24.2871 30.3198 24.6069 30 25.0014 30C25.3959 30 25.7157 30.3198 25.7157 30.7143Z" fill="#915700"/>
<path fill-rule="evenodd" clip-rule="evenodd" d="M19.3608 32.3818C19.5049 32.1463 19.8127 32.0723 20.0483 32.2165L21.0478 32.8284C21.7225 33.2415 22.5656 33.2658 23.263 32.8922C24.2151 32.3821 25.3593 32.3821 26.3114 32.8922C27.0087 33.2658 27.8519 33.2415 28.5266 32.8284L29.5261 32.2165C29.7616 32.0723 30.0694 32.1463 30.2136 32.3818C30.3578 32.6173 30.2838 32.9251 30.0483 33.0693L29.0487 33.6813C28.0712 34.2798 26.8495 34.315 25.8392 33.7737C25.182 33.4216 24.3923 33.4216 23.7352 33.7737C22.7248 34.315 21.5032 34.2798 20.5256 33.6813L19.5261 33.0693C19.2906 32.9251 19.2166 32.6173 19.3608 32.3818Z" fill="#A75A00"/>
<path d="M29.2967 31.7104L26.3321 30.6584C25.9612 30.5268 25.6122 30.8556 25.7216 31.2337L26.5953 34.2555C26.6889 34.6212 26.8759 34.972 27.1565 35.2698C28.0064 36.172 29.3938 36.2454 30.2552 35.4339C31.1165 34.6223 31.1258 33.233 30.2758 32.3309C29.9952 32.0331 29.6561 31.8256 29.2967 31.7104Z" fill="white"/>
<path d="M16.4297 27.7129C17.3672 27.903 19.6797 28.055 21.4297 27.1428" stroke="#905A09" stroke-linecap="round"/>
<path d="M33.5732 27.7129C32.6357 27.903 30.3232 28.055 28.5732 27.1428" stroke="#905A09" stroke-linecap="round"/>
<path fill-rule="evenodd" clip-rule="evenodd" d="M41.1721 26.8785C42.2534 25.0282 42.8578 22.962 42.8578 20.7824C42.8578 12.8549 34.8629 6.42847 25.0007 6.42847C15.1385 6.42847 7.14355 12.8549 7.14355 20.7824C7.14355 22.9619 7.74785 25.0279 8.82912 26.8782C11.6808 21.9987 17.8498 18.6203 25.0005 18.6203C32.1513 18.6203 38.3204 21.9988 41.1721 26.8785Z" fill="#925319"/>
<path d="M16.3687 15.6765C16.5895 14.5138 17.7251 13.6445 18.9052 13.7349L23.8372 14.1126C25.0172 14.2029 25.7948 15.2187 25.574 16.3814L24.6057 21.4798C24.3849 22.6425 23.2493 23.5118 22.0693 23.4214L17.1372 23.0438C15.9572 22.9534 15.1796 21.9376 15.4004 20.7749L16.3687 15.6765Z" fill="#925319"/>
<path d="M33.891 15.6765C33.6702 14.5138 32.5346 13.6445 31.3546 13.7349L26.4225 14.1126C25.2425 14.2029 24.4649 15.2187 24.6858 16.3814L25.6541 21.4798C25.8749 22.6425 27.0105 23.5118 28.1905 23.4214L33.1226 23.0438C34.3026 22.9534 35.0802 21.9376 34.8593 20.7749L33.891 15.6765Z" fill="#925319"/>
</svg>
