<svg width="50" height="50" viewBox="0 0 50 50" fill="none" xmlns="http://www.w3.org/2000/svg">
<g clip-path="url(#clip0_133_49406)">
<path d="M7.54543 37.4999C10.0878 36.4829 10.3679 33.6938 10.1471 32.0012C10.1164 31.7657 10.359 31.5732 10.5746 31.6727L19.1741 35.6417C19.2706 35.6863 19.3348 35.7854 19.3395 35.8916C19.9066 48.8224 11.2204 50.3685 7.11685 49.5209C6.83214 49.4621 6.85388 49.0769 7.12909 48.9833C10.0986 47.9726 10.2122 45.1745 7.54543 44.2856C4.33114 43.2142 3.974 38.9285 7.54543 37.4999Z" fill="#925319"/>
<path d="M41.8198 37.4999C39.2774 36.4829 38.9973 33.6938 39.2181 32.0012C39.2489 31.7657 39.0063 31.5732 38.7906 31.6727L30.1911 35.6417C30.0946 35.6863 30.0304 35.7854 30.0258 35.8916C29.4586 48.8224 38.1448 50.3685 42.2484 49.5209C42.5331 49.4621 42.5114 49.0769 42.2361 48.9833C39.2667 47.9726 39.1531 45.1745 41.8198 44.2856C45.0341 43.2142 45.3912 38.9285 41.8198 37.4999Z" fill="#925319"/>
<path d="M17.9055 31.5441C17.9055 35.3055 14.8563 38.3547 11.0948 38.3547C7.33342 38.3547 4.28418 35.3055 4.28418 31.5441C4.28418 27.7826 7.33342 24.7334 11.0948 24.7334C14.8563 24.7334 17.9055 27.7826 17.9055 31.5441Z" fill="#FF9C27"/>
<path d="M45.7141 31.5441C45.7141 35.3055 42.6649 38.3547 38.9034 38.3547C35.142 38.3547 32.0928 35.3055 32.0928 31.5441C32.0928 27.7826 35.142 24.7334 38.9034 24.7334C42.6649 24.7334 45.7141 27.7826 45.7141 31.5441Z" fill="#FF9C27"/>
<path d="M42.1412 27.5934C42.1412 36.2722 34.4661 43.3077 24.9983 43.3077C15.5306 43.3077 7.85547 36.2722 7.85547 27.5934C7.85547 18.9147 15.5306 11.8792 24.9983 11.8792C34.4661 11.8792 42.1412 18.9147 42.1412 27.5934Z" fill="#FFBA68"/>
<mask id="mask0_133_49406" style="mask-type:alpha" maskUnits="userSpaceOnUse" x="7" y="11" width="36" height="33">
<path d="M42.1412 27.5934C42.1412 36.2722 34.4661 43.3077 24.9983 43.3077C15.5306 43.3077 7.85547 36.2722 7.85547 27.5934C7.85547 18.9147 15.5306 11.8792 24.9983 11.8792C34.4661 11.8792 42.1412 18.9147 42.1412 27.5934Z" fill="#FFAB49"/>
</mask>
<g mask="url(#mask0_133_49406)">
<path d="M19.2844 35.6665C19.2844 39.3362 16.2887 42.3111 12.5934 42.3111C8.89802 42.3111 5.90234 39.3362 5.90234 35.6665C5.90234 31.9968 8.89802 29.022 12.5934 29.022C16.2887 29.022 19.2844 31.9968 19.2844 35.6665Z" fill="#FF9A24"/>
<path d="M44.0949 35.6665C44.0949 39.3362 41.0993 42.3111 37.4039 42.3111C33.7086 42.3111 30.7129 39.3362 30.7129 35.6665C30.7129 31.9968 33.7086 29.022 37.4039 29.022C41.0993 29.022 44.0949 31.9968 44.0949 35.6665Z" fill="#FF9A24"/>
<circle cx="19.9983" cy="29.7364" r="2.14286" fill="black"/>
<circle cx="19.5037" cy="29.2417" r="0.989011" fill="white"/>
<circle cx="20.6576" cy="30.7255" r="0.494506" fill="white"/>
<circle cx="29.9983" cy="29.7364" r="2.14286" fill="black"/>
<circle cx="29.5037" cy="29.2417" r="0.989011" fill="white"/>
<circle cx="30.6576" cy="30.7255" r="0.494506" fill="white"/>
</g>
<path d="M25.7128 32.5908C25.7128 32.9852 25.393 33.305 24.9985 33.305C24.604 33.305 24.2842 32.9852 24.2842 32.5908C24.2842 32.1963 24.604 31.8765 24.9985 31.8765C25.393 31.8765 25.7128 32.1963 25.7128 32.5908Z" fill="black"/>
<path d="M23.4835 36.5542C23.3708 36.419 23.272 36.2702 23.1881 36.1111C22.82 35.4133 23.4955 34.7359 24.2845 34.7359L25.713 34.7359C26.502 34.7359 27.1775 35.4133 26.8094 36.1111C26.7255 36.2702 26.6267 36.419 26.514 36.5542C26.1121 37.0365 25.5671 37.3074 24.9987 37.3074C24.4304 37.3074 23.8854 37.0365 23.4835 36.5542Z" fill="#E16037"/>
<path fill-rule="evenodd" clip-rule="evenodd" d="M21.4662 25.13C21.6324 25.2363 21.6809 25.4572 21.5746 25.6233L21.0045 26.5142C20.8982 26.6803 20.6773 26.7288 20.5112 26.6225C20.3451 26.5162 20.2966 26.2953 20.4029 26.1292L20.9729 25.2383C21.0792 25.0722 21.3001 25.0237 21.4662 25.13Z" fill="black"/>
<path fill-rule="evenodd" clip-rule="evenodd" d="M17.6734 25.13C17.5073 25.2363 17.4588 25.4572 17.5651 25.6233L18.1351 26.5142C18.2414 26.6803 18.4623 26.7288 18.6284 26.6225C18.7946 26.5162 18.8431 26.2953 18.7368 26.1292L18.1667 25.2383C18.0604 25.0722 17.8395 25.0237 17.6734 25.13Z" fill="black"/>
<path fill-rule="evenodd" clip-rule="evenodd" d="M19.6413 24.7363C19.8386 24.7363 19.9985 24.8962 19.9985 25.0935V26.0935C19.9985 26.2907 19.8386 26.4506 19.6413 26.4506C19.4441 26.4506 19.2842 26.2907 19.2842 26.0935V25.0935C19.2842 24.8962 19.4441 24.7363 19.6413 24.7363Z" fill="black"/>
<path fill-rule="evenodd" clip-rule="evenodd" d="M21.5694 27.5221C20.0357 26.3648 18.3636 27.0318 17.7139 27.5221C17.5564 27.641 17.3325 27.6096 17.2137 27.4522C17.0949 27.2947 17.1262 27.0708 17.2836 26.952C18.0625 26.3642 20.1046 25.522 21.9996 26.952C22.1571 27.0708 22.1884 27.2947 22.0696 27.4522C21.9507 27.6096 21.7268 27.641 21.5694 27.5221Z" fill="black"/>
<path fill-rule="evenodd" clip-rule="evenodd" d="M32.1801 25.13C32.3463 25.2363 32.3948 25.4572 32.2884 25.6233L31.7184 26.5142C31.6121 26.6803 31.3912 26.7288 31.2251 26.6225C31.0589 26.5162 31.0104 26.2953 31.1167 26.1292L31.6868 25.2383C31.7931 25.0722 32.014 25.0237 32.1801 25.13Z" fill="black"/>
<path fill-rule="evenodd" clip-rule="evenodd" d="M28.3873 25.13C28.2211 25.2363 28.1726 25.4572 28.2789 25.6233L28.849 26.5142C28.9553 26.6803 29.1762 26.7288 29.3423 26.6225C29.5085 26.5162 29.557 26.2953 29.4506 26.1292L28.8806 25.2383C28.7743 25.0722 28.5534 25.0237 28.3873 25.13Z" fill="black"/>
<path fill-rule="evenodd" clip-rule="evenodd" d="M30.3552 24.7363C30.5524 24.7363 30.7123 24.8962 30.7123 25.0935V26.0935C30.7123 26.2907 30.5524 26.4506 30.3552 26.4506C30.1579 26.4506 29.998 26.2907 29.998 26.0935V25.0935C29.998 24.8962 30.1579 24.7363 30.3552 24.7363Z" fill="black"/>
<path fill-rule="evenodd" clip-rule="evenodd" d="M32.2832 27.5221C30.7496 26.3648 29.0775 27.0318 28.4278 27.5221C28.2703 27.641 28.0464 27.6096 27.9276 27.4522C27.8087 27.2947 27.8401 27.0708 27.9975 26.952C28.7763 26.3642 30.8185 25.522 32.7135 26.952C32.8709 27.0708 32.9022 27.2947 32.7834 27.4522C32.6646 27.6096 32.4407 27.641 32.2832 27.5221Z" fill="black"/>
<path fill-rule="evenodd" clip-rule="evenodd" d="M42.8559 21.7619C42.8559 23.9415 42.2515 26.0077 41.1701 27.858C40.6682 26.9991 40.0635 26.1867 39.3688 25.4311L31.264 26.0517L30.154 20.207C30.0047 20.1709 29.8547 20.1363 29.7039 20.1033V26.0687H20.4319V20.0734C20.1296 20.1375 19.8304 20.2078 19.5345 20.2842L18.4391 26.0517L10.609 25.4521C9.92247 26.2017 9.32439 27.0069 8.82717 27.8576C7.7459 26.0074 7.1416 23.9414 7.1416 21.7619C7.1416 13.8344 15.1365 7.40796 24.9987 7.40796C34.861 7.40796 42.8559 13.8344 42.8559 21.7619Z" fill="#925319"/>
<path d="M32.5689 35.2048L31.1326 32.4062C30.9529 32.056 30.4734 32.056 30.2937 32.4062L28.8574 35.2048C28.6748 35.5351 28.5703 35.9187 28.5703 36.3278C28.5703 37.5673 29.5297 38.5721 30.7132 38.5721C31.8966 38.5721 32.856 37.5673 32.856 36.3278C32.856 35.9187 32.7515 35.5351 32.5689 35.2048Z" fill="white"/>
<path d="M21.1402 35.2048L19.7039 32.4062C19.5242 32.056 19.0447 32.056 18.865 32.4062L17.4287 35.2048C17.2461 35.5351 17.1416 35.9187 17.1416 36.3278C17.1416 37.5673 18.101 38.5721 19.2845 38.5721C20.4679 38.5721 21.4273 37.5673 21.4273 36.3278C21.4273 35.9187 21.3228 35.5351 21.1402 35.2048Z" fill="white"/>
<path d="M27.8265 0.255189C23.3709 3.44241 23.6831 7.08971 25.0286 9.5892C25.3678 10.2192 26.366 9.81878 26.4505 9.10826C26.7483 6.60548 27.8342 3.45435 28.8032 1.09939C29.0655 0.461957 28.3871 -0.145839 27.8265 0.255189Z" fill="#925319"/>
<path d="M30.2907 5.22469C27.4109 5.42916 26.1728 6.98929 25.7587 8.59248C25.5805 9.28233 26.629 9.58015 27.1434 9.08714C28.1366 8.13522 29.4373 7.19076 30.6023 6.43414C31.1816 6.05788 30.9798 5.17576 30.2907 5.22469Z" fill="#925319"/>
</g>
<defs>
<clipPath id="clip0_133_49406">
<rect width="50" height="50" fill="white"/>
</clipPath>
</defs>
</svg>
