<svg width="70" height="70" viewBox="0 0 70 70" fill="none" xmlns="http://www.w3.org/2000/svg">
<rect x="10.04" y="52.6562" width="49.9397" height="8.32328" rx="3.7037" fill="#ABABAB"/>
<rect x="11.8896" y="10" width="46.2405" height="30.827" rx="3.7037" fill="#BEBEBE"/>
<path d="M11.3742 43.9229C11.6719 42.1371 13.217 40.8281 15.0275 40.8281H54.993C56.8035 40.8281 58.3486 42.1371 58.6463 43.9229L60.3017 53.8557C60.678 56.1132 58.9371 58.1683 56.6484 58.1683H13.3721C11.0834 58.1683 9.34251 56.1132 9.71876 53.8557L11.3742 43.9229Z" fill="#BEBEBE"/>
<path d="M13.0649 43.052C13.1583 42.3318 13.7717 41.7927 14.4979 41.7927H17.9525C18.6787 41.7927 19.2922 42.3318 19.3855 43.052C19.4976 43.9166 18.8243 44.6828 17.9525 44.6828H14.4979C13.6261 44.6828 12.9528 43.9166 13.0649 43.052Z" fill="#444444"/>
<path d="M12.2069 46.8302C12.3338 46.1453 12.9312 45.6483 13.6278 45.6483H19.7869C20.4835 45.6483 21.0809 46.1453 21.2077 46.8302C21.3722 47.7186 20.6903 48.5383 19.7869 48.5383H13.6278C12.7243 48.5383 12.0424 47.7186 12.2069 46.8302Z" fill="#444444"/>
<path d="M44.7595 50.8381C44.8154 50.0836 45.4439 49.4999 46.2005 49.4999H46.9419C47.6985 49.4999 48.3271 50.0836 48.383 50.8381C48.445 51.676 47.782 52.3899 46.9419 52.3899H46.2005C45.3604 52.3899 44.6974 51.676 44.7595 50.8381Z" fill="#444444"/>
<path d="M22.6032 46.9866C22.6591 46.232 23.2876 45.6483 24.0443 45.6483H24.7856C25.5423 45.6483 26.1708 46.232 26.2267 46.9866C26.2888 47.8244 25.6258 48.5383 24.7856 48.5383H24.0443C23.2042 48.5383 22.5412 47.8244 22.6032 46.9866Z" fill="#444444"/>
<path d="M12.0056 50.8381C12.0615 50.0836 12.69 49.4999 13.4466 49.4999H14.188C14.9446 49.4999 15.5732 50.0836 15.6291 50.8381C15.6911 51.676 15.0281 52.3899 14.188 52.3899H13.4466C12.6065 52.3899 11.9435 51.676 12.0056 50.8381Z" fill="#444444"/>
<path d="M20.6755 43.1311C20.7314 42.3765 21.3599 41.7928 22.1166 41.7928H22.8579C23.6146 41.7928 24.2431 42.3765 24.299 43.1311C24.361 43.9689 23.698 44.6829 22.8579 44.6829H22.1166C21.2764 44.6829 20.6134 43.9689 20.6755 43.1311Z" fill="#444444"/>
<path d="M37.0524 46.9866C37.1083 46.232 37.7369 45.6483 38.4935 45.6483H39.2349C39.9915 45.6483 40.62 46.232 40.6759 46.9866C40.738 47.8244 40.075 48.5383 39.2349 48.5383H38.4935C37.6534 48.5383 36.9904 47.8244 37.0524 46.9866Z" fill="#444444"/>
<path d="M35.1257 43.131C35.1816 42.3764 35.8101 41.7927 36.5668 41.7927H37.3081C38.0647 41.7927 38.6933 42.3764 38.7492 43.131C38.8112 43.9688 38.1482 44.6828 37.3081 44.6828H36.5668C35.7266 44.6828 35.0636 43.9688 35.1257 43.131Z" fill="#444444"/>
<path d="M44.7595 43.1311C44.8154 42.3765 45.4439 41.7928 46.2005 41.7928H46.9419C47.6985 41.7928 48.3271 42.3765 48.383 43.1311C48.445 43.9689 47.782 44.6829 46.9419 44.6829H46.2005C45.3604 44.6829 44.6974 43.9689 44.7595 43.1311Z" fill="#444444"/>
<path d="M49.5769 50.8381C49.6328 50.0836 50.2613 49.4999 51.0179 49.4999H51.7593C52.5159 49.4999 53.1444 50.0836 53.2003 50.8381C53.2624 51.676 52.5994 52.3899 51.7593 52.3899H51.0179C50.1778 52.3899 49.5148 51.676 49.5769 50.8381Z" fill="#444444"/>
<path d="M27.4187 46.9866C27.4746 46.232 28.1031 45.6483 28.8597 45.6483H29.6011C30.3577 45.6483 30.9862 46.232 31.0421 46.9866C31.1042 47.8244 30.4412 48.5383 29.6011 48.5383H28.8597C28.0196 48.5383 27.3566 47.8244 27.4187 46.9866Z" fill="#444444"/>
<path d="M16.823 50.8381C16.8788 50.0836 17.5074 49.4999 18.264 49.4999H19.0054C19.762 49.4999 20.3905 50.0836 20.4464 50.8381C20.5085 51.676 19.8455 52.3899 19.0054 52.3899H18.264C17.4239 52.3899 16.7609 51.676 16.823 50.8381Z" fill="#444444"/>
<path d="M25.4919 43.1311C25.5478 42.3765 26.1763 41.7928 26.933 41.7928H27.6743C28.431 41.7928 29.0595 42.3765 29.1154 43.1311C29.1774 43.9689 28.5144 44.6829 27.6743 44.6829H26.933C26.0929 44.6829 25.4298 43.9689 25.4919 43.1311Z" fill="#444444"/>
<path d="M41.8698 46.9866C41.9257 46.232 42.5542 45.6483 43.3109 45.6483H44.0522C44.8089 45.6483 45.4374 46.232 45.4933 46.9866C45.5554 47.8244 44.8924 48.5383 44.0522 48.5383H43.3109C42.4708 48.5383 41.8078 47.8244 41.8698 46.9866Z" fill="#444444"/>
<path d="M39.9421 43.131C39.998 42.3764 40.6265 41.7927 41.3832 41.7927H42.1245C42.8812 41.7927 43.5097 42.3764 43.5656 43.131C43.6276 43.9688 42.9646 44.6828 42.1245 44.6828H41.3832C40.543 44.6828 39.88 43.9688 39.9421 43.131Z" fill="#444444"/>
<path d="M49.5769 43.1311C49.6328 42.3765 50.2613 41.7928 51.0179 41.7928H51.7593C52.5159 41.7928 53.1444 42.3765 53.2003 43.1311C53.2624 43.9689 52.5994 44.6829 51.7593 44.6829H51.0179C50.1778 44.6829 49.5148 43.9689 49.5769 43.1311Z" fill="#444444"/>
<path d="M54.3923 50.8381C54.4482 50.0836 55.0767 49.4999 55.8334 49.4999H56.5747C57.3313 49.4999 57.9599 50.0836 58.0158 50.8381C58.0778 51.676 57.4148 52.3899 56.5747 52.3899H55.8334C54.9932 52.3899 54.3302 51.676 54.3923 50.8381Z" fill="#444444"/>
<path d="M32.2351 46.9866C32.291 46.232 32.9195 45.6483 33.6761 45.6483H34.4175C35.1741 45.6483 35.8026 46.232 35.8585 46.9866C35.9206 47.8244 35.2576 48.5383 34.4175 48.5383H33.6761C32.836 48.5383 32.173 47.8244 32.2351 46.9866Z" fill="#444444"/>
<path d="M21.6384 50.8381C21.6943 50.0836 22.3228 49.4999 23.0794 49.4999H23.8208C24.5774 49.4999 25.206 50.0836 25.2619 50.8381C25.3239 51.676 24.6609 52.3899 23.8208 52.3899H23.0794C22.2393 52.3899 21.5763 51.676 21.6384 50.8381Z" fill="#444444"/>
<path d="M30.3093 43.131C30.3652 42.3764 30.9937 41.7927 31.7503 41.7927H32.4917C33.2483 41.7927 33.8769 42.3764 33.9328 43.131C33.9948 43.9688 33.3318 44.6828 32.4917 44.6828H31.7503C30.9102 44.6828 30.2472 43.9688 30.3093 43.131Z" fill="#444444"/>
<path d="M46.9244 46.8049C47.0615 46.1318 47.6535 45.6483 48.3403 45.6483H55.399C56.0859 45.6483 56.6778 46.1318 56.8149 46.8049C56.9974 47.7005 56.313 48.5383 55.399 48.5383H48.3403C47.4264 48.5383 46.742 47.7005 46.9244 46.8049Z" fill="#444444"/>
<path d="M27.017 50.4653C27.2205 49.8869 27.767 49.4999 28.3801 49.4999H42.6031C43.2162 49.4999 43.7627 49.8869 43.9662 50.4653C44.2969 51.4052 43.5995 52.3899 42.6031 52.3899H28.3801C27.3837 52.3899 26.6863 51.4052 27.017 50.4653Z" fill="#444444"/>
<path d="M26.978 54.7865C27.2012 53.9407 27.9662 53.3514 28.8409 53.3514H42.1423C43.017 53.3514 43.782 53.9407 44.0052 54.7865C44.3277 56.0085 43.4061 57.2048 42.1423 57.2048H28.8409C27.5771 57.2048 26.6555 56.0085 26.978 54.7865Z" fill="#969696"/>
<rect x="14.7803" y="12.8906" width="40.4604" height="25.0469" rx="2.77778" fill="#2B2B2B"/>
<path d="M16.707 40.8281H53.3141" stroke="#A0A0A0" stroke-width="1.5" stroke-linecap="round"/>
</svg>
