<svg width="70" height="70" viewBox="0 0 70 70" fill="none" xmlns="http://www.w3.org/2000/svg">
<path d="M25.0699 45.531C25.0699 50.797 20.8009 55.066 15.5349 55.066C10.2689 55.066 6 50.797 6 45.531C6 40.265 10.2689 35.9961 15.5349 35.9961C20.8009 35.9961 25.0699 40.265 25.0699 45.531Z" fill="#FF9C27"/>
<path d="M64.0015 45.531C64.0015 50.797 59.7326 55.066 54.4666 55.066C49.2006 55.066 44.9316 50.797 44.9316 45.531C44.9316 40.265 49.2006 35.9961 54.4666 35.9961C59.7326 35.9961 64.0015 40.265 64.0015 45.531Z" fill="#FF9C27"/>
<path d="M59 40C59 52.1503 48.2548 62 35 62C21.7452 62 11 52.1503 11 40C11 27.8497 21.7452 18 35 18C48.2548 18 59 27.8497 59 40Z" fill="#FFBA68"/>
<mask id="mask0_133_49402" style="mask-type:alpha" maskUnits="userSpaceOnUse" x="11" y="18" width="48" height="44">
<path d="M59 40C59 52.1503 48.2548 62 35 62C21.7452 62 11 52.1503 11 40C11 27.8497 21.7452 18 35 18C48.2548 18 59 27.8497 59 40Z" fill="#FFAB49"/>
</mask>
<g mask="url(#mask0_133_49402)">
<path d="M27.0005 51.3024C27.0005 56.4399 22.8065 60.6048 17.6331 60.6048C12.4596 60.6048 8.26563 56.4399 8.26563 51.3024C8.26563 46.1648 12.4596 42 17.6331 42C22.8065 42 27.0005 46.1648 27.0005 51.3024Z" fill="#FF9A24"/>
<path d="M61.7349 51.3024C61.7349 56.4399 57.5409 60.6048 52.3674 60.6048C47.1939 60.6048 43 56.4399 43 51.3024C43 46.1648 47.1939 42 52.3674 42C57.5409 42 61.7349 46.1648 61.7349 51.3024Z" fill="#FF9A24"/>
<rect x="27" y="50" width="16" height="5" rx="2.5" fill="white"/>
<path d="M27 52.501L43 52.501" stroke="#FF9A24"/>
<path d="M30.7334 50L30.7334 55" stroke="#FF9A24"/>
<path d="M35 50L35 55" stroke="#FF9A24"/>
<path d="M39.2666 50L39.2666 55" stroke="#FF9A24"/>
<path fill-rule="evenodd" clip-rule="evenodd" d="M27.8589 37.8414C28.581 37.9167 29.2365 37.7005 29.5944 37.4939C29.9292 37.3005 30.3573 37.4152 30.5506 37.75C30.744 38.0848 30.6293 38.5129 30.2945 38.7062C29.7193 39.0384 28.7707 39.3441 27.7137 39.2339C26.6248 39.1203 25.4664 38.5685 24.5326 37.2592C24.3082 36.9444 24.3813 36.5073 24.6961 36.2828C25.0109 36.0583 25.448 36.1315 25.6725 36.4463C26.3727 37.4281 27.1686 37.7694 27.8589 37.8414Z" fill="#905A09"/>
<path fill-rule="evenodd" clip-rule="evenodd" d="M42.0298 37.8414C41.3076 37.9167 40.6522 37.7005 40.2943 37.4939C39.9595 37.3005 39.5314 37.4152 39.338 37.75C39.1447 38.0848 39.2594 38.5129 39.5942 38.7062C40.1694 39.0384 41.1179 39.3441 42.175 39.2339C43.2639 39.1203 44.4223 38.5685 45.356 37.2592C45.5805 36.9444 45.5073 36.5073 45.1926 36.2828C44.8778 36.0583 44.4407 36.1315 44.2162 36.4463C43.516 37.4281 42.7201 37.7694 42.0298 37.8414Z" fill="#905A09"/>
</g>
<path d="M36 46.9961C36 47.5484 35.5523 47.9961 35 47.9961C34.4477 47.9961 34 47.5484 34 46.9961C34 46.4438 34.4477 45.9961 35 45.9961C35.5523 45.9961 36 46.4438 36 46.9961Z" fill="black"/>
<path d="M23.394 42.519C23.3255 41.6816 23.4436 40.8142 23.7295 39.981C24.0881 38.9363 25.3702 38.7219 26.2735 39.3575L31.1804 42.8104C32.0837 43.4461 32.3147 44.7253 31.4524 45.4155C30.7648 45.966 29.9881 46.37 29.1768 46.5883C27.7624 46.9689 26.3585 46.754 25.274 45.9909C24.1895 45.2277 23.5133 43.9789 23.394 42.519Z" fill="white"/>
<path d="M29.2121 43.8702C28.5764 44.7735 27.3288 44.9905 26.4255 44.3548C25.5222 43.7192 25.3052 42.4716 25.9408 41.5682C26.5765 40.6649 27.8241 40.4479 28.7274 41.0836C29.6308 41.7192 29.8477 42.9668 29.2121 43.8702Z" fill="black"/>
<path d="M46.4221 42.519C46.4905 41.6816 46.3725 40.8142 46.0865 39.981C45.7279 38.9363 44.4459 38.7219 43.5425 39.3575L38.6357 42.8104C37.7323 43.4461 37.5013 44.7253 38.3636 45.4155C39.0513 45.966 39.8279 46.37 40.6393 46.5883C42.0536 46.9689 43.4575 46.754 44.542 45.9909C45.6265 45.2277 46.3028 43.9789 46.4221 42.519Z" fill="white"/>
<path d="M40.6043 43.8702C41.24 44.7735 42.4876 44.9905 43.3909 44.3548C44.2942 43.7192 44.5112 42.4716 43.8756 41.5682C43.2399 40.6649 41.9923 40.4479 41.089 41.0836C40.1856 41.7192 39.9687 42.9668 40.6043 43.8702Z" fill="black"/>
<path d="M29.9024 16.7024C17.1216 4.0828 -1.70496 29.762 11.4975 40.3642C11.4975 40.3642 15.0761 44.0448 23.2561 40.3642C31.4361 36.6836 33.9921 25.6412 33.9921 25.6412C33.9921 25.6412 40.6407 41.5969 57.2392 39.1952C59.6959 38.8397 61.6935 36.9922 62.2798 34.5801C68.0765 10.7313 37.1961 -1.3823 29.9024 16.7024Z" fill="#FF7777"/>
</svg>
