<svg width="70" height="70" viewBox="0 0 70 70" fill="none" xmlns="http://www.w3.org/2000/svg">
<ellipse cx="20.1508" cy="27.5412" rx="7.15082" ry="7.15066" fill="#494949"/>
<ellipse cx="50.8491" cy="27.5412" rx="7.15082" ry="7.15066" fill="#494949"/>
<ellipse cx="35.3232" cy="24.5788" rx="18.1387" ry="16.743" fill="#494949"/>
<path fill-rule="evenodd" clip-rule="evenodd" d="M51.787 23.5576C52.8613 21.7085 53.4609 19.6479 53.4609 17.4756C53.4609 9.48088 45.34 2.99988 35.3223 2.99988C25.3045 2.99988 17.1836 9.48088 17.1836 17.4756C17.1836 19.6479 17.7832 21.7085 18.8575 23.5576C21.7369 18.6014 28.0266 15.1639 35.3223 15.1639C42.618 15.1639 48.9076 18.6014 51.787 23.5576Z" fill="#494949"/>
<rect x="31" y="32.5585" width="9" height="14" fill="#494949"/>
<path d="M17 53.9999C17 48.477 21.4772 43.9999 27 43.9999H44C49.5228 43.9999 54 48.477 54 53.9999V60.9999H17V53.9999Z" fill="#494949"/>
</svg>
