<svg width="70" height="70" viewBox="0 0 70 70" fill="none" xmlns="http://www.w3.org/2000/svg">
<path d="M10.2986 59.2565C14.7892 56.6017 15.6 48.4159 15.4441 44.6549L14.0413 42L28.5422 48.969C29.3216 51.0708 29.6643 56.0707 24.7995 59.2565C18.7185 63.2388 4.68537 62.5751 10.2986 59.2565Z" fill="#6B4D20"/>
<path d="M59.7014 59.2565C55.2108 56.6017 54.4 48.4159 54.5559 44.6549L55.9587 42L41.4578 48.969C40.6784 51.0708 40.3357 56.0707 45.2005 59.2565C51.2815 63.2388 65.3146 62.5751 59.7014 59.2565Z" fill="#6B4D20"/>
<path d="M25.0699 41.5349C25.0699 46.8009 20.8009 51.0699 15.5349 51.0699C10.2689 51.0699 6 46.8009 6 41.5349C6 36.2689 10.2689 32 15.5349 32C20.8009 32 25.0699 36.2689 25.0699 41.5349Z" fill="#FF9C27"/>
<path d="M64.0015 41.5349C64.0015 46.8009 59.7326 51.0699 54.4666 51.0699C49.2006 51.0699 44.9316 46.8009 44.9316 41.5349C44.9316 36.2689 49.2006 32 54.4666 32C59.7326 32 64.0015 36.2689 64.0015 41.5349Z" fill="#FF9C27"/>
<path d="M59 36.0039C59 48.1542 48.2548 58.0039 35 58.0039C21.7452 58.0039 11 48.1542 11 36.0039C11 23.8536 21.7452 14.0039 35 14.0039C48.2548 14.0039 59 23.8536 59 36.0039Z" fill="#FFBA68"/>
<mask id="mask0_35_2890" style="mask-type:alpha" maskUnits="userSpaceOnUse" x="11" y="14" width="48" height="44">
<path d="M59 36C59 48.1503 48.2548 58 35 58C21.7452 58 11 48.1503 11 36C11 23.8497 21.7452 14 35 14C48.2548 14 59 23.8497 59 36Z" fill="#FFAB49"/>
</mask>
<g mask="url(#mask0_35_2890)">
<path d="M26.7144 47.3024C26.7144 52.4399 22.5204 56.6048 17.3469 56.6048C12.1734 56.6048 7.97949 52.4399 7.97949 47.3024C7.97949 42.1648 12.1734 38 17.3469 38C22.5204 38 26.7144 42.1648 26.7144 47.3024Z" fill="#FF9A24"/>
<path d="M61.6343 47.3024C61.6343 52.4399 57.4403 56.6048 52.2668 56.6048C47.0934 56.6048 42.8994 52.4399 42.8994 47.3024C42.8994 42.1648 47.0934 38 52.2668 38C57.4403 38 61.6343 42.1648 61.6343 47.3024Z" fill="#FF9A24"/>
</g>
<path d="M36 43C36 43.5523 35.5523 44 35 44C34.4477 44 34 43.5523 34 43C34 42.4477 34.4477 42 35 42C35.5523 42 36 42.4477 36 43Z" fill="black"/>
<circle cx="28" cy="39" r="3" fill="black"/>
<circle cx="27.3075" cy="38.3077" r="1.38462" fill="white"/>
<circle cx="28.9228" cy="40.3847" r="0.692308" fill="white"/>
<circle cx="42" cy="39" r="3" fill="black"/>
<circle cx="41.3075" cy="38.3077" r="1.38462" fill="white"/>
<circle cx="42.9228" cy="40.3847" r="0.692308" fill="white"/>
<path fill-rule="evenodd" clip-rule="evenodd" d="M29.4957 46.2853C33.0803 47.402 36.9197 47.402 40.5043 46.2853C40.8892 46.1654 41.0927 45.7887 40.9588 45.444C40.825 45.0993 40.4044 44.917 40.0196 45.0369C36.7507 46.0553 33.2493 46.0553 29.9804 45.0369C29.5956 44.917 29.175 45.0993 29.0412 45.444C28.9073 45.7887 29.1108 46.1654 29.4957 46.2853Z" fill="#A75A00"/>
<path fill-rule="evenodd" clip-rule="evenodd" d="M27.8193 32.9971C28.4515 32.6402 28.8607 32.0844 29.0327 31.7086C29.1937 31.3571 29.6091 31.2026 29.9606 31.3636C30.3121 31.5245 30.4666 31.9399 30.3056 32.2914C30.0291 32.8954 29.4329 33.694 28.5073 34.2163C27.5539 34.7544 26.2899 34.9755 24.7704 34.4489C24.4051 34.3223 24.2116 33.9236 24.3382 33.5583C24.4648 33.193 24.8635 32.9995 25.2288 33.1261C26.3683 33.5209 27.2148 33.3382 27.8193 32.9971Z" fill="#905A09"/>
<path fill-rule="evenodd" clip-rule="evenodd" d="M42.2345 32.9971C41.6022 32.6402 41.193 32.0844 41.021 31.7086C40.86 31.3571 40.4446 31.2026 40.0931 31.3636C39.7416 31.5245 39.5871 31.9399 39.7481 32.2914C40.0246 32.8954 40.6208 33.694 41.5464 34.2163C42.4998 34.7544 43.7638 34.9755 45.2833 34.4489C45.6486 34.3223 45.8421 33.9236 45.7155 33.5583C45.5889 33.193 45.1902 32.9995 44.8249 33.1261C43.6854 33.5209 42.8389 33.3382 42.2345 32.9971Z" fill="#905A09"/>
<path fill-rule="evenodd" clip-rule="evenodd" d="M59.425 34.9065C60.4441 32.7608 61.0002 30.4434 61.0002 28.0259C61.0002 16.9659 49.3596 8 35.0001 8C20.6406 8 9 16.9659 9 28.0259C9 30.6034 9.63221 33.0672 10.7837 35.3303L10.1276 36.4815C9.67174 37.2815 10.4666 38.2057 11.3775 37.9594C32.152 32.3414 37.7953 26.9586 39.0463 24.3195C39.1544 24.6918 39.3179 25.1297 39.5548 25.6377C44.3925 36.0131 58.368 38.6077 59.4431 37.5701C59.6946 37.3273 59.6519 36.3176 59.425 34.9065Z" fill="#6B4D20"/>
</svg>
